<?xml version="1.0" encoding="utf-8" standalone="no"?>
<!DOCTYPE svg PUBLIC "-//W3C//DTD SVG 1.1//EN"
  "http://www.w3.org/Graphics/SVG/1.1/DTD/svg11.dtd">
<svg xmlns:xlink="http://www.w3.org/1999/xlink" width="346.19625pt" height="135.034375pt" viewBox="0 0 346.19625 135.034375" xmlns="http://www.w3.org/2000/svg" version="1.1">
 <metadata>
  <rdf:RDF xmlns:dc="http://purl.org/dc/elements/1.1/" xmlns:cc="http://creativecommons.org/ns#" xmlns:rdf="http://www.w3.org/1999/02/22-rdf-syntax-ns#">
   <cc:Work>
    <dc:type rdf:resource="http://purl.org/dc/dcmitype/StillImage"/>
    <dc:date>2026-03-03T17:05:29.281111</dc:date>
    <dc:format>image/svg+xml</dc:format>
    <dc:creator>
     <cc:Agent>
      <dc:title>Matplotlib v3.10.1, https://matplotlib.org/</dc:title>
     </cc:Agent>
    </dc:creator>
   </cc:Work>
  </rdf:RDF>
 </metadata>
 <defs>
  <style type="text/css">*{stroke-linejoin: round; stroke-linecap: butt}</style>
 </defs>
 <g id="figure_1">
  <g id="patch_1">
   <path d="M 0 135.034375 
L 346.19625 135.034375 
L 346.19625 0 
L 0 0 
z
" style="fill: #ffffff"/>
  </g>
  <g id="axes_1">
   <g id="patch_2">
    <path d="M 43.78125 97.478125 
L 326.27125 97.478125 
L 326.27125 22.318125 
L 43.78125 22.318125 
z
" style="fill: #ffffff"/>
   </g>
   <g id="matplotlib.axis_1">
    <g id="xtick_1">
     <g id="line2d_1">
      <defs>
       <path id="m614ea72299" d="M 0 0 
L 0 3.5 
" style="stroke: #000000; stroke-width: 0.8"/>
      </defs>
      <g>
       <use xlink:href="#m614ea72299" x="43.78125" y="97.478125" style="stroke: #000000; stroke-width: 0.8"/>
      </g>
     </g>
     <g id="text_1">
      <!-- 900 -->
      <g transform="translate(34.2375 112.076563) scale(0.1 -0.1)">
       <defs>
        <path id="DejaVuSans-39" d="M 703 97 
L 703 672 
Q 941 559 1184 500 
Q 1428 441 1663 441 
Q 2288 441 2617 861 
Q 2947 1281 2994 2138 
Q 2813 1869 2534 1725 
Q 2256 1581 1919 1581 
Q 1219 1581 811 2004 
Q 403 2428 403 3163 
Q 403 3881 828 4315 
Q 1253 4750 1959 4750 
Q 2769 4750 3195 4129 
Q 3622 3509 3622 2328 
Q 3622 1225 3098 567 
Q 2575 -91 1691 -91 
Q 1453 -91 1209 -44 
Q 966 3 703 97 
z
M 1959 2075 
Q 2384 2075 2632 2365 
Q 2881 2656 2881 3163 
Q 2881 3666 2632 3958 
Q 2384 4250 1959 4250 
Q 1534 4250 1286 3958 
Q 1038 3666 1038 3163 
Q 1038 2656 1286 2365 
Q 1534 2075 1959 2075 
z
" transform="scale(0.015625)"/>
        <path id="DejaVuSans-30" d="M 2034 4250 
Q 1547 4250 1301 3770 
Q 1056 3291 1056 2328 
Q 1056 1369 1301 889 
Q 1547 409 2034 409 
Q 2525 409 2770 889 
Q 3016 1369 3016 2328 
Q 3016 3291 2770 3770 
Q 2525 4250 2034 4250 
z
M 2034 4750 
Q 2819 4750 3233 4129 
Q 3647 3509 3647 2328 
Q 3647 1150 3233 529 
Q 2819 -91 2034 -91 
Q 1250 -91 836 529 
Q 422 1150 422 2328 
Q 422 3509 836 4129 
Q 1250 4750 2034 4750 
z
" transform="scale(0.015625)"/>
       </defs>
       <use xlink:href="#DejaVuSans-39"/>
       <use xlink:href="#DejaVuSans-30" transform="translate(63.623047 0)"/>
       <use xlink:href="#DejaVuSans-30" transform="translate(127.246094 0)"/>
      </g>
     </g>
    </g>
    <g id="xtick_2">
     <g id="line2d_2">
      <g>
       <use xlink:href="#m614ea72299" x="79.0925" y="97.478125" style="stroke: #000000; stroke-width: 0.8"/>
      </g>
     </g>
     <g id="text_2">
      <!-- 925 -->
      <g transform="translate(69.54875 112.076563) scale(0.1 -0.1)">
       <defs>
        <path id="DejaVuSans-32" d="M 1228 531 
L 3431 531 
L 3431 0 
L 469 0 
L 469 531 
Q 828 903 1448 1529 
Q 2069 2156 2228 2338 
Q 2531 2678 2651 2914 
Q 2772 3150 2772 3378 
Q 2772 3750 2511 3984 
Q 2250 4219 1831 4219 
Q 1534 4219 1204 4116 
Q 875 4013 500 3803 
L 500 4441 
Q 881 4594 1212 4672 
Q 1544 4750 1819 4750 
Q 2544 4750 2975 4387 
Q 3406 4025 3406 3419 
Q 3406 3131 3298 2873 
Q 3191 2616 2906 2266 
Q 2828 2175 2409 1742 
Q 1991 1309 1228 531 
z
" transform="scale(0.015625)"/>
        <path id="DejaVuSans-35" d="M 691 4666 
L 3169 4666 
L 3169 4134 
L 1269 4134 
L 1269 2991 
Q 1406 3038 1543 3061 
Q 1681 3084 1819 3084 
Q 2600 3084 3056 2656 
Q 3513 2228 3513 1497 
Q 3513 744 3044 326 
Q 2575 -91 1722 -91 
Q 1428 -91 1123 -41 
Q 819 9 494 109 
L 494 744 
Q 775 591 1075 516 
Q 1375 441 1709 441 
Q 2250 441 2565 725 
Q 2881 1009 2881 1497 
Q 2881 1984 2565 2268 
Q 2250 2553 1709 2553 
Q 1456 2553 1204 2497 
Q 953 2441 691 2322 
L 691 4666 
z
" transform="scale(0.015625)"/>
       </defs>
       <use xlink:href="#DejaVuSans-39"/>
       <use xlink:href="#DejaVuSans-32" transform="translate(63.623047 0)"/>
       <use xlink:href="#DejaVuSans-35" transform="translate(127.246094 0)"/>
      </g>
     </g>
    </g>
    <g id="xtick_3">
     <g id="line2d_3">
      <g>
       <use xlink:href="#m614ea72299" x="114.40375" y="97.478125" style="stroke: #000000; stroke-width: 0.8"/>
      </g>
     </g>
     <g id="text_3">
      <!-- 950 -->
      <g transform="translate(104.86 112.076563) scale(0.1 -0.1)">
       <use xlink:href="#DejaVuSans-39"/>
       <use xlink:href="#DejaVuSans-35" transform="translate(63.623047 0)"/>
       <use xlink:href="#DejaVuSans-30" transform="translate(127.246094 0)"/>
      </g>
     </g>
    </g>
    <g id="xtick_4">
     <g id="line2d_4">
      <g>
       <use xlink:href="#m614ea72299" x="149.715" y="97.478125" style="stroke: #000000; stroke-width: 0.8"/>
      </g>
     </g>
     <g id="text_4">
      <!-- 975 -->
      <g transform="translate(140.17125 112.076563) scale(0.1 -0.1)">
       <defs>
        <path id="DejaVuSans-37" d="M 525 4666 
L 3525 4666 
L 3525 4397 
L 1831 0 
L 1172 0 
L 2766 4134 
L 525 4134 
L 525 4666 
z
" transform="scale(0.015625)"/>
       </defs>
       <use xlink:href="#DejaVuSans-39"/>
       <use xlink:href="#DejaVuSans-37" transform="translate(63.623047 0)"/>
       <use xlink:href="#DejaVuSans-35" transform="translate(127.246094 0)"/>
      </g>
     </g>
    </g>
    <g id="xtick_5">
     <g id="line2d_5">
      <g>
       <use xlink:href="#m614ea72299" x="185.02625" y="97.478125" style="stroke: #000000; stroke-width: 0.8"/>
      </g>
     </g>
     <g id="text_5">
      <!-- 1000 -->
      <g transform="translate(172.30125 112.076563) scale(0.1 -0.1)">
       <defs>
        <path id="DejaVuSans-31" d="M 794 531 
L 1825 531 
L 1825 4091 
L 703 3866 
L 703 4441 
L 1819 4666 
L 2450 4666 
L 2450 531 
L 3481 531 
L 3481 0 
L 794 0 
L 794 531 
z
" transform="scale(0.015625)"/>
       </defs>
       <use xlink:href="#DejaVuSans-31"/>
       <use xlink:href="#DejaVuSans-30" transform="translate(63.623047 0)"/>
       <use xlink:href="#DejaVuSans-30" transform="translate(127.246094 0)"/>
       <use xlink:href="#DejaVuSans-30" transform="translate(190.869141 0)"/>
      </g>
     </g>
    </g>
    <g id="xtick_6">
     <g id="line2d_6">
      <g>
       <use xlink:href="#m614ea72299" x="220.3375" y="97.478125" style="stroke: #000000; stroke-width: 0.8"/>
      </g>
     </g>
     <g id="text_6">
      <!-- 1025 -->
      <g transform="translate(207.6125 112.076563) scale(0.1 -0.1)">
       <use xlink:href="#DejaVuSans-31"/>
       <use xlink:href="#DejaVuSans-30" transform="translate(63.623047 0)"/>
       <use xlink:href="#DejaVuSans-32" transform="translate(127.246094 0)"/>
       <use xlink:href="#DejaVuSans-35" transform="translate(190.869141 0)"/>
      </g>
     </g>
    </g>
    <g id="xtick_7">
     <g id="line2d_7">
      <g>
       <use xlink:href="#m614ea72299" x="255.64875" y="97.478125" style="stroke: #000000; stroke-width: 0.8"/>
      </g>
     </g>
     <g id="text_7">
      <!-- 1050 -->
      <g transform="translate(242.92375 112.076563) scale(0.1 -0.1)">
       <use xlink:href="#DejaVuSans-31"/>
       <use xlink:href="#DejaVuSans-30" transform="translate(63.623047 0)"/>
       <use xlink:href="#DejaVuSans-35" transform="translate(127.246094 0)"/>
       <use xlink:href="#DejaVuSans-30" transform="translate(190.869141 0)"/>
      </g>
     </g>
    </g>
    <g id="xtick_8">
     <g id="line2d_8">
      <g>
       <use xlink:href="#m614ea72299" x="290.96" y="97.478125" style="stroke: #000000; stroke-width: 0.8"/>
      </g>
     </g>
     <g id="text_8">
      <!-- 1075 -->
      <g transform="translate(278.235 112.076563) scale(0.1 -0.1)">
       <use xlink:href="#DejaVuSans-31"/>
       <use xlink:href="#DejaVuSans-30" transform="translate(63.623047 0)"/>
       <use xlink:href="#DejaVuSans-37" transform="translate(127.246094 0)"/>
       <use xlink:href="#DejaVuSans-35" transform="translate(190.869141 0)"/>
      </g>
     </g>
    </g>
    <g id="xtick_9">
     <g id="line2d_9">
      <g>
       <use xlink:href="#m614ea72299" x="326.27125" y="97.478125" style="stroke: #000000; stroke-width: 0.8"/>
      </g>
     </g>
     <g id="text_9">
      <!-- 1100 -->
      <g transform="translate(313.54625 112.076563) scale(0.1 -0.1)">
       <use xlink:href="#DejaVuSans-31"/>
       <use xlink:href="#DejaVuSans-31" transform="translate(63.623047 0)"/>
       <use xlink:href="#DejaVuSans-30" transform="translate(127.246094 0)"/>
       <use xlink:href="#DejaVuSans-30" transform="translate(190.869141 0)"/>
      </g>
     </g>
    </g>
    <g id="text_10">
     <!-- Energy (eV) -->
     <g transform="translate(155.5325 125.754688) scale(0.1 -0.1)">
      <defs>
       <path id="DejaVuSans-45" d="M 628 4666 
L 3578 4666 
L 3578 4134 
L 1259 4134 
L 1259 2753 
L 3481 2753 
L 3481 2222 
L 1259 2222 
L 1259 531 
L 3634 531 
L 3634 0 
L 628 0 
L 628 4666 
z
" transform="scale(0.015625)"/>
       <path id="DejaVuSans-6e" d="M 3513 2113 
L 3513 0 
L 2938 0 
L 2938 2094 
Q 2938 2591 2744 2837 
Q 2550 3084 2163 3084 
Q 1697 3084 1428 2787 
Q 1159 2491 1159 1978 
L 1159 0 
L 581 0 
L 581 3500 
L 1159 3500 
L 1159 2956 
Q 1366 3272 1645 3428 
Q 1925 3584 2291 3584 
Q 2894 3584 3203 3211 
Q 3513 2838 3513 2113 
z
" transform="scale(0.015625)"/>
       <path id="DejaVuSans-65" d="M 3597 1894 
L 3597 1613 
L 953 1613 
Q 991 1019 1311 708 
Q 1631 397 2203 397 
Q 2534 397 2845 478 
Q 3156 559 3463 722 
L 3463 178 
Q 3153 47 2828 -22 
Q 2503 -91 2169 -91 
Q 1331 -91 842 396 
Q 353 884 353 1716 
Q 353 2575 817 3079 
Q 1281 3584 2069 3584 
Q 2775 3584 3186 3129 
Q 3597 2675 3597 1894 
z
M 3022 2063 
Q 3016 2534 2758 2815 
Q 2500 3097 2075 3097 
Q 1594 3097 1305 2825 
Q 1016 2553 972 2059 
L 3022 2063 
z
" transform="scale(0.015625)"/>
       <path id="DejaVuSans-72" d="M 2631 2963 
Q 2534 3019 2420 3045 
Q 2306 3072 2169 3072 
Q 1681 3072 1420 2755 
Q 1159 2438 1159 1844 
L 1159 0 
L 581 0 
L 581 3500 
L 1159 3500 
L 1159 2956 
Q 1341 3275 1631 3429 
Q 1922 3584 2338 3584 
Q 2397 3584 2469 3576 
Q 2541 3569 2628 3553 
L 2631 2963 
z
" transform="scale(0.015625)"/>
       <path id="DejaVuSans-67" d="M 2906 1791 
Q 2906 2416 2648 2759 
Q 2391 3103 1925 3103 
Q 1463 3103 1205 2759 
Q 947 2416 947 1791 
Q 947 1169 1205 825 
Q 1463 481 1925 481 
Q 2391 481 2648 825 
Q 2906 1169 2906 1791 
z
M 3481 434 
Q 3481 -459 3084 -895 
Q 2688 -1331 1869 -1331 
Q 1566 -1331 1297 -1286 
Q 1028 -1241 775 -1147 
L 775 -588 
Q 1028 -725 1275 -790 
Q 1522 -856 1778 -856 
Q 2344 -856 2625 -561 
Q 2906 -266 2906 331 
L 2906 616 
Q 2728 306 2450 153 
Q 2172 0 1784 0 
Q 1141 0 747 490 
Q 353 981 353 1791 
Q 353 2603 747 3093 
Q 1141 3584 1784 3584 
Q 2172 3584 2450 3431 
Q 2728 3278 2906 2969 
L 2906 3500 
L 3481 3500 
L 3481 434 
z
" transform="scale(0.015625)"/>
       <path id="DejaVuSans-79" d="M 2059 -325 
Q 1816 -950 1584 -1140 
Q 1353 -1331 966 -1331 
L 506 -1331 
L 506 -850 
L 844 -850 
Q 1081 -850 1212 -737 
Q 1344 -625 1503 -206 
L 1606 56 
L 191 3500 
L 800 3500 
L 1894 763 
L 2988 3500 
L 3597 3500 
L 2059 -325 
z
" transform="scale(0.015625)"/>
       <path id="DejaVuSans-20" transform="scale(0.015625)"/>
       <path id="DejaVuSans-28" d="M 1984 4856 
Q 1566 4138 1362 3434 
Q 1159 2731 1159 2009 
Q 1159 1288 1364 580 
Q 1569 -128 1984 -844 
L 1484 -844 
Q 1016 -109 783 600 
Q 550 1309 550 2009 
Q 550 2706 781 3412 
Q 1013 4119 1484 4856 
L 1984 4856 
z
" transform="scale(0.015625)"/>
       <path id="DejaVuSans-56" d="M 1831 0 
L 50 4666 
L 709 4666 
L 2188 738 
L 3669 4666 
L 4325 4666 
L 2547 0 
L 1831 0 
z
" transform="scale(0.015625)"/>
       <path id="DejaVuSans-29" d="M 513 4856 
L 1013 4856 
Q 1481 4119 1714 3412 
Q 1947 2706 1947 2009 
Q 1947 1309 1714 600 
Q 1481 -109 1013 -844 
L 513 -844 
Q 928 -128 1133 580 
Q 1338 1288 1338 2009 
Q 1338 2731 1133 3434 
Q 928 4138 513 4856 
z
" transform="scale(0.015625)"/>
      </defs>
      <use xlink:href="#DejaVuSans-45"/>
      <use xlink:href="#DejaVuSans-6e" transform="translate(63.183594 0)"/>
      <use xlink:href="#DejaVuSans-65" transform="translate(126.5625 0)"/>
      <use xlink:href="#DejaVuSans-72" transform="translate(188.085938 0)"/>
      <use xlink:href="#DejaVuSans-67" transform="translate(227.449219 0)"/>
      <use xlink:href="#DejaVuSans-79" transform="translate(290.925781 0)"/>
      <use xlink:href="#DejaVuSans-20" transform="translate(350.105469 0)"/>
      <use xlink:href="#DejaVuSans-28" transform="translate(381.892578 0)"/>
      <use xlink:href="#DejaVuSans-65" transform="translate(420.90625 0)"/>
      <use xlink:href="#DejaVuSans-56" transform="translate(482.429688 0)"/>
      <use xlink:href="#DejaVuSans-29" transform="translate(550.837891 0)"/>
     </g>
    </g>
   </g>
   <g id="matplotlib.axis_2">
    <g id="ytick_1">
     <g id="line2d_10">
      <defs>
       <path id="m9682104e2d" d="M 0 0 
L -3.5 0 
" style="stroke: #000000; stroke-width: 0.8"/>
      </defs>
      <g>
       <use xlink:href="#m9682104e2d" x="43.78125" y="94.061761" style="stroke: #000000; stroke-width: 0.8"/>
      </g>
     </g>
     <g id="text_11">
      <!-- 0.0 -->
      <g transform="translate(20.878125 97.86098) scale(0.1 -0.1)">
       <defs>
        <path id="DejaVuSans-2e" d="M 684 794 
L 1344 794 
L 1344 0 
L 684 0 
L 684 794 
z
" transform="scale(0.015625)"/>
       </defs>
       <use xlink:href="#DejaVuSans-30"/>
       <use xlink:href="#DejaVuSans-2e" transform="translate(63.623047 0)"/>
       <use xlink:href="#DejaVuSans-30" transform="translate(95.410156 0)"/>
      </g>
     </g>
    </g>
    <g id="ytick_2">
     <g id="line2d_11">
      <g>
       <use xlink:href="#m9682104e2d" x="43.78125" y="59.898125" style="stroke: #000000; stroke-width: 0.8"/>
      </g>
     </g>
     <g id="text_12">
      <!-- 0.5 -->
      <g transform="translate(20.878125 63.697344) scale(0.1 -0.1)">
       <use xlink:href="#DejaVuSans-30"/>
       <use xlink:href="#DejaVuSans-2e" transform="translate(63.623047 0)"/>
       <use xlink:href="#DejaVuSans-35" transform="translate(95.410156 0)"/>
      </g>
     </g>
    </g>
    <g id="ytick_3">
     <g id="line2d_12">
      <g>
       <use xlink:href="#m9682104e2d" x="43.78125" y="25.734489" style="stroke: #000000; stroke-width: 0.8"/>
      </g>
     </g>
     <g id="text_13">
      <!-- 1.0 -->
      <g transform="translate(20.878125 29.533707) scale(0.1 -0.1)">
       <use xlink:href="#DejaVuSans-31"/>
       <use xlink:href="#DejaVuSans-2e" transform="translate(63.623047 0)"/>
       <use xlink:href="#DejaVuSans-30" transform="translate(95.410156 0)"/>
      </g>
     </g>
    </g>
    <g id="text_14">
     <!-- Intensity (a.u.) -->
     <g transform="translate(14.798438 96.562187) rotate(-90) scale(0.1 -0.1)">
      <defs>
       <path id="DejaVuSans-49" d="M 628 4666 
L 1259 4666 
L 1259 0 
L 628 0 
L 628 4666 
z
" transform="scale(0.015625)"/>
       <path id="DejaVuSans-74" d="M 1172 4494 
L 1172 3500 
L 2356 3500 
L 2356 3053 
L 1172 3053 
L 1172 1153 
Q 1172 725 1289 603 
Q 1406 481 1766 481 
L 2356 481 
L 2356 0 
L 1766 0 
Q 1100 0 847 248 
Q 594 497 594 1153 
L 594 3053 
L 172 3053 
L 172 3500 
L 594 3500 
L 594 4494 
L 1172 4494 
z
" transform="scale(0.015625)"/>
       <path id="DejaVuSans-73" d="M 2834 3397 
L 2834 2853 
Q 2591 2978 2328 3040 
Q 2066 3103 1784 3103 
Q 1356 3103 1142 2972 
Q 928 2841 928 2578 
Q 928 2378 1081 2264 
Q 1234 2150 1697 2047 
L 1894 2003 
Q 2506 1872 2764 1633 
Q 3022 1394 3022 966 
Q 3022 478 2636 193 
Q 2250 -91 1575 -91 
Q 1294 -91 989 -36 
Q 684 19 347 128 
L 347 722 
Q 666 556 975 473 
Q 1284 391 1588 391 
Q 1994 391 2212 530 
Q 2431 669 2431 922 
Q 2431 1156 2273 1281 
Q 2116 1406 1581 1522 
L 1381 1569 
Q 847 1681 609 1914 
Q 372 2147 372 2553 
Q 372 3047 722 3315 
Q 1072 3584 1716 3584 
Q 2034 3584 2315 3537 
Q 2597 3491 2834 3397 
z
" transform="scale(0.015625)"/>
       <path id="DejaVuSans-69" d="M 603 3500 
L 1178 3500 
L 1178 0 
L 603 0 
L 603 3500 
z
M 603 4863 
L 1178 4863 
L 1178 4134 
L 603 4134 
L 603 4863 
z
" transform="scale(0.015625)"/>
       <path id="DejaVuSans-61" d="M 2194 1759 
Q 1497 1759 1228 1600 
Q 959 1441 959 1056 
Q 959 750 1161 570 
Q 1363 391 1709 391 
Q 2188 391 2477 730 
Q 2766 1069 2766 1631 
L 2766 1759 
L 2194 1759 
z
M 3341 1997 
L 3341 0 
L 2766 0 
L 2766 531 
Q 2569 213 2275 61 
Q 1981 -91 1556 -91 
Q 1019 -91 701 211 
Q 384 513 384 1019 
Q 384 1609 779 1909 
Q 1175 2209 1959 2209 
L 2766 2209 
L 2766 2266 
Q 2766 2663 2505 2880 
Q 2244 3097 1772 3097 
Q 1472 3097 1187 3025 
Q 903 2953 641 2809 
L 641 3341 
Q 956 3463 1253 3523 
Q 1550 3584 1831 3584 
Q 2591 3584 2966 3190 
Q 3341 2797 3341 1997 
z
" transform="scale(0.015625)"/>
       <path id="DejaVuSans-75" d="M 544 1381 
L 544 3500 
L 1119 3500 
L 1119 1403 
Q 1119 906 1312 657 
Q 1506 409 1894 409 
Q 2359 409 2629 706 
Q 2900 1003 2900 1516 
L 2900 3500 
L 3475 3500 
L 3475 0 
L 2900 0 
L 2900 538 
Q 2691 219 2414 64 
Q 2138 -91 1772 -91 
Q 1169 -91 856 284 
Q 544 659 544 1381 
z
M 1991 3584 
L 1991 3584 
z
" transform="scale(0.015625)"/>
      </defs>
      <use xlink:href="#DejaVuSans-49"/>
      <use xlink:href="#DejaVuSans-6e" transform="translate(29.492188 0)"/>
      <use xlink:href="#DejaVuSans-74" transform="translate(92.871094 0)"/>
      <use xlink:href="#DejaVuSans-65" transform="translate(132.080078 0)"/>
      <use xlink:href="#DejaVuSans-6e" transform="translate(193.603516 0)"/>
      <use xlink:href="#DejaVuSans-73" transform="translate(256.982422 0)"/>
      <use xlink:href="#DejaVuSans-69" transform="translate(309.082031 0)"/>
      <use xlink:href="#DejaVuSans-74" transform="translate(336.865234 0)"/>
      <use xlink:href="#DejaVuSans-79" transform="translate(376.074219 0)"/>
      <use xlink:href="#DejaVuSans-20" transform="translate(435.253906 0)"/>
      <use xlink:href="#DejaVuSans-28" transform="translate(467.041016 0)"/>
      <use xlink:href="#DejaVuSans-61" transform="translate(506.054688 0)"/>
      <use xlink:href="#DejaVuSans-2e" transform="translate(567.333984 0)"/>
      <use xlink:href="#DejaVuSans-75" transform="translate(599.121094 0)"/>
      <use xlink:href="#DejaVuSans-2e" transform="translate(662.5 0)"/>
      <use xlink:href="#DejaVuSans-29" transform="translate(694.287109 0)"/>
     </g>
    </g>
   </g>
   <g id="line2d_13">
    <path d="M 43.707246 93.937767 
L 45.333442 93.925423 
L 46.083994 93.957766 
L 49.086202 93.753162 
L 49.586569 93.497106 
L 49.961846 93.454032 
L 50.587305 93.16816 
L 50.837489 93.179655 
L 51.087673 93.286791 
L 51.212765 93.189522 
L 52.213501 93.509938 
L 52.338593 93.389489 
L 52.964053 93.522752 
L 53.464421 93.374222 
L 53.839696 93.413606 
L 54.08988 93.434252 
L 54.214973 93.478884 
L 54.465157 93.302949 
L 54.840433 93.322743 
L 55.090616 93.168936 
L 56.091353 93.163034 
L 56.466628 93.333866 
L 56.716812 93.309673 
L 57.092088 93.406105 
L 57.21718 93.369046 
L 57.592457 93.53553 
L 57.967732 93.495171 
L 58.092824 93.617603 
L 58.4681 93.516061 
L 58.593191 93.636158 
L 58.843377 93.473568 
L 59.09356 93.570196 
L 59.343744 93.537973 
L 59.468836 93.574139 
L 59.71902 93.45434 
L 60.219387 93.336577 
L 60.469572 93.067777 
L 60.594664 93.094663 
L 61.220124 92.606703 
L 61.470307 92.61367 
L 61.845583 92.512179 
L 62.095768 92.446358 
L 62.596136 91.812942 
L 62.971411 91.288667 
L 63.346687 90.586818 
L 63.596872 90.091755 
L 63.721964 89.866378 
L 63.972148 89.103655 
L 64.097239 88.946385 
L 64.472515 87.997087 
L 64.597607 87.771348 
L 65.097976 88.193929 
L 65.34816 89.003894 
L 65.848527 90.539529 
L 65.973619 90.515922 
L 66.348894 90.951931 
L 66.473986 90.980086 
L 66.849262 91.47738 
L 68.225275 92.212679 
L 68.350367 92.199252 
L 68.600551 92.323426 
L 69.22601 92.167786 
L 69.351102 92.217058 
L 69.476194 92.140235 
L 69.726378 91.67895 
L 69.85147 91.696707 
L 70.101653 91.369789 
L 70.226745 91.396255 
L 70.476929 91.00721 
L 71.102391 89.562953 
L 71.352575 89.254067 
L 71.602759 88.781619 
L 71.72785 88.358068 
L 71.978034 86.904543 
L 72.103126 86.655665 
L 72.603493 81.101664 
L 73.103861 68.574027 
L 74.104599 34.249028 
L 74.354783 29.969987 
L 74.479874 30.480761 
L 74.604966 31.461 
L 74.85515 25.734489 
L 74.980242 25.770955 
L 75.230426 32.243492 
L 75.980977 58.438859 
L 76.356252 68.199534 
L 77.231898 82.895607 
L 77.607174 86.65301 
L 77.857358 87.603957 
L 78.107541 89.202544 
L 78.482817 90.169753 
L 78.858093 91.118725 
L 79.35846 91.672845 
L 79.733736 92.193165 
L 80.359198 92.516084 
L 80.48429 92.44751 
L 80.734473 92.675839 
L 80.859565 92.621497 
L 81.234841 92.981377 
L 81.485025 92.916606 
L 81.735208 93.108847 
L 81.8603 93.030028 
L 82.235576 93.307779 
L 82.610851 93.35581 
L 83.111222 93.450384 
L 83.361406 93.216381 
L 83.736681 93.393956 
L 84.737416 93.566394 
L 87.114164 93.729187 
L 87.48944 93.674867 
L 97.371706 93.834399 
L 97.872074 93.81508 
L 98.122257 93.928452 
L 99.873543 93.866452 
L 100.373917 93.890284 
L 103.125938 93.867143 
L 103.876489 93.816212 
L 104.376856 93.88378 
L 104.752135 93.889449 
L 110.506367 93.933743 
L 110.75655 93.942731 
L 111.131823 93.894618 
L 111.382007 93.882703 
L 112.132558 93.951343 
L 112.507836 93.949765 
L 115.88532 93.900481 
L 116.510782 93.933977 
L 117.261333 93.919163 
L 118.387157 93.949761 
L 119.387898 93.924186 
L 121.76464 93.923368 
L 122.014824 93.889223 
L 122.640286 93.946692 
L 123.265748 93.953459 
L 127.518872 93.930982 
L 127.769056 93.935188 
L 128.269423 93.928965 
L 129.01998 93.971693 
L 134.899301 93.931275 
L 142.154641 93.943315 
L 142.905186 93.943234 
L 144.656478 93.940023 
L 145.532118 93.943873 
L 149.910342 93.962987 
L 151.661622 93.969105 
L 153.412914 93.992331 
L 153.663104 93.938383 
L 154.038376 93.946131 
L 154.663839 93.98072 
L 156.290024 93.967281 
L 160.41807 93.964092 
L 160.668248 93.934948 
L 161.043521 93.975487 
L 162.294445 93.945967 
L 163.670453 93.983637 
L 187.938304 93.880132 
L 189.439406 93.755293 
L 191.691066 93.919326 
L 191.941244 93.898672 
L 193.442346 93.85009 
L 194.067808 93.824387 
L 195.068543 93.766078 
L 195.443816 93.747528 
L 195.694005 93.818218 
L 195.944183 93.777431 
L 197.695475 93.97413 
L 198.320937 93.937879 
L 198.9464 93.936934 
L 199.82204 93.9024 
L 200.447502 93.91486 
L 202.949339 93.927391 
L 203.449707 93.899998 
L 203.824979 93.903943 
L 204.450442 93.903037 
L 205.576271 93.912858 
L 206.201734 93.911312 
L 206.577006 93.880193 
L 207.702836 93.89043 
L 208.203204 93.842956 
L 208.703571 93.852932 
L 208.953749 93.800487 
L 209.329033 93.814996 
L 209.954496 93.663141 
L 210.705041 93.59364 
L 211.330503 93.537945 
L 211.580681 93.566465 
L 211.955965 93.425122 
L 212.706511 93.117678 
L 213.081795 92.727958 
L 213.206878 92.766922 
L 213.707246 92.058816 
L 214.08253 90.727798 
L 214.332708 90.185759 
L 214.70798 88.460356 
L 215.083265 86.436749 
L 215.583632 83.992741 
L 215.708715 83.970464 
L 215.958905 83.176555 
L 216.334178 84.198428 
L 216.584367 83.965762 
L 216.834545 84.535111 
L 216.95964 84.43696 
L 218.460742 90.414902 
L 218.96111 91.790441 
L 219.836762 93.195762 
L 221.462947 93.698945 
L 223.214239 93.777569 
L 223.464429 93.783599 
L 223.839701 93.837205 
L 224.089879 93.819908 
L 224.340069 93.819467 
L 224.590246 93.825413 
L 225.716076 93.871141 
L 227.342273 93.855258 
L 227.592463 94.031784 
L 235.598342 94.047832 
L 239.601294 94.023829 
L 241.102396 94.022418 
L 244.354791 94.036023 
L 249.73375 94.043467 
L 273.751411 94.05147 
L 288.262079 93.898163 
L 290.013359 93.775325 
L 290.388644 93.656193 
L 290.888999 93.592787 
L 291.389379 93.326302 
L 291.639544 93.194331 
L 292.014829 93.008597 
L 293.390848 92.188581 
L 293.641014 92.296932 
L 293.891204 92.291566 
L 294.141394 92.300907 
L 294.516678 92.198621 
L 294.766844 92.336896 
L 295.267223 92.61956 
L 295.517413 92.595137 
L 295.892674 92.784953 
L 296.017769 92.763606 
L 296.393053 93.030291 
L 297.268693 93.302922 
L 297.769072 93.557963 
L 298.894878 93.792868 
L 299.270163 93.824256 
L 300.145803 93.942263 
L 302.397462 93.980594 
L 304.649122 93.994027 
L 306.275307 93.967225 
L 307.150971 93.995614 
L 311.404077 94.006107 
L 313.280475 94.028497 
L 315.782301 94.006513 
L 318.659411 94.003277 
L 319.40998 94.013924 
L 319.78524 94.011977 
L 319.78524 94.011977 
" clip-path="url(#pd3bc62ab5d)" style="fill: none; stroke: #000000; stroke-width: 1.2; stroke-linecap: square"/>
   </g>
   <g id="line2d_14">
    <path d="M 43.707246 94.061761 
L 43.95743 93.980405 
L 48.836017 93.837776 
L 49.086202 93.597722 
L 49.461477 93.07397 
L 49.711661 88.08811 
L 49.961846 84.305784 
L 50.712397 93.357965 
L 51.588041 93.863247 
L 53.964788 93.787744 
L 54.08988 93.750866 
L 54.715341 92.071759 
L 55.090616 74.675353 
L 55.215708 77.428075 
L 55.465892 91.193345 
L 55.716077 92.155007 
L 56.716812 93.798579 
L 60.844848 93.712964 
L 63.096503 93.568491 
L 63.346687 93.30212 
L 64.347423 91.93065 
L 64.472515 90.077918 
L 64.722699 72.250413 
L 64.972882 91.254592 
L 65.223068 92.210589 
L 65.848527 93.227496 
L 67.099446 92.952337 
L 68.475459 91.621425 
L 69.726378 91.634043 
L 70.977299 89.950793 
L 72.228218 85.345234 
L 72.478402 82.181605 
L 73.604228 64.079174 
L 74.479874 25.764147 
L 74.730058 25.765239 
L 75.230426 25.925567 
L 75.355517 28.049279 
L 76.356252 68.905346 
L 77.607174 86.013004 
L 78.983184 90.391845 
L 80.359198 91.991015 
L 81.985392 92.820628 
L 83.736681 93.269937 
L 85.613059 93.530733 
L 89.866188 93.791769 
L 97.371706 93.944521 
L 115.259857 94.026676 
L 188.563766 94.056738 
L 190.815414 93.949884 
L 192.066338 94.05804 
L 214.833075 94.001031 
L 215.083265 93.738534 
L 215.333443 93.025288 
L 215.458538 93.027413 
L 215.708715 93.45235 
L 215.958905 92.942603 
L 216.209095 92.995932 
L 216.459272 93.808704 
L 216.709462 93.963401 
L 218.460742 94.055005 
L 237.850002 94.060876 
L 286.135514 94.000177 
L 286.510775 93.916187 
L 286.88606 93.982584 
L 287.636605 93.880955 
L 288.762435 92.55009 
L 289.012624 91.777001 
L 289.51298 91.784585 
L 289.888264 92.939427 
L 290.763904 93.90137 
L 293.766109 94.043937 
L 318.784505 94.060865 
L 319.78524 94.060889 
L 319.78524 94.060889 
" clip-path="url(#pd3bc62ab5d)" style="fill: none; stroke-dasharray: 4.44,1.92; stroke-dashoffset: 0; stroke: #e8402a; stroke-width: 1.2"/>
   </g>
   <g id="patch_3">
    <path d="M 43.78125 97.478125 
L 43.78125 22.318125 
" style="fill: none; stroke: #000000; stroke-width: 0.8; stroke-linejoin: miter; stroke-linecap: square"/>
   </g>
   <g id="patch_4">
    <path d="M 326.27125 97.478125 
L 326.27125 22.318125 
" style="fill: none; stroke: #000000; stroke-width: 0.8; stroke-linejoin: miter; stroke-linecap: square"/>
   </g>
   <g id="patch_5">
    <path d="M 43.78125 97.478125 
L 326.27125 97.478125 
" style="fill: none; stroke: #000000; stroke-width: 0.8; stroke-linejoin: miter; stroke-linecap: square"/>
   </g>
   <g id="patch_6">
    <path d="M 43.78125 22.318125 
L 326.27125 22.318125 
" style="fill: none; stroke: #000000; stroke-width: 0.8; stroke-linejoin: miter; stroke-linecap: square"/>
   </g>
   <g id="text_15">
    <!-- 6262 -->
    <g transform="translate(169.75625 16.318125) scale(0.12 -0.12)">
     <defs>
      <path id="DejaVuSans-36" d="M 2113 2584 
Q 1688 2584 1439 2293 
Q 1191 2003 1191 1497 
Q 1191 994 1439 701 
Q 1688 409 2113 409 
Q 2538 409 2786 701 
Q 3034 994 3034 1497 
Q 3034 2003 2786 2293 
Q 2538 2584 2113 2584 
z
M 3366 4563 
L 3366 3988 
Q 3128 4100 2886 4159 
Q 2644 4219 2406 4219 
Q 1781 4219 1451 3797 
Q 1122 3375 1075 2522 
Q 1259 2794 1537 2939 
Q 1816 3084 2150 3084 
Q 2853 3084 3261 2657 
Q 3669 2231 3669 1497 
Q 3669 778 3244 343 
Q 2819 -91 2113 -91 
Q 1303 -91 875 529 
Q 447 1150 447 2328 
Q 447 3434 972 4092 
Q 1497 4750 2381 4750 
Q 2619 4750 2861 4703 
Q 3103 4656 3366 4563 
z
" transform="scale(0.015625)"/>
     </defs>
     <use xlink:href="#DejaVuSans-36"/>
     <use xlink:href="#DejaVuSans-32" transform="translate(63.623047 0)"/>
     <use xlink:href="#DejaVuSans-36" transform="translate(127.246094 0)"/>
     <use xlink:href="#DejaVuSans-32" transform="translate(190.869141 0)"/>
    </g>
   </g>
  </g>
 </g>
 <defs>
  <clipPath id="pd3bc62ab5d">
   <rect x="43.78125" y="22.318125" width="282.49" height="75.16"/>
  </clipPath>
 </defs>
</svg>
