<?xml version="1.0" encoding="utf-8" standalone="no"?>
<!DOCTYPE svg PUBLIC "-//W3C//DTD SVG 1.1//EN"
  "http://www.w3.org/Graphics/SVG/1.1/DTD/svg11.dtd">
<svg xmlns:xlink="http://www.w3.org/1999/xlink" width="346.19625pt" height="135.034375pt" viewBox="0 0 346.19625 135.034375" xmlns="http://www.w3.org/2000/svg" version="1.1">
 <metadata>
  <rdf:RDF xmlns:dc="http://purl.org/dc/elements/1.1/" xmlns:cc="http://creativecommons.org/ns#" xmlns:rdf="http://www.w3.org/1999/02/22-rdf-syntax-ns#">
   <cc:Work>
    <dc:type rdf:resource="http://purl.org/dc/dcmitype/StillImage"/>
    <dc:date>2026-03-03T17:05:29.396684</dc:date>
    <dc:format>image/svg+xml</dc:format>
    <dc:creator>
     <cc:Agent>
      <dc:title>Matplotlib v3.10.1, https://matplotlib.org/</dc:title>
     </cc:Agent>
    </dc:creator>
   </cc:Work>
  </rdf:RDF>
 </metadata>
 <defs>
  <style type="text/css">*{stroke-linejoin: round; stroke-linecap: butt}</style>
 </defs>
 <g id="figure_1">
  <g id="patch_1">
   <path d="M 0 135.034375 
L 346.19625 135.034375 
L 346.19625 0 
L 0 0 
z
" style="fill: #ffffff"/>
  </g>
  <g id="axes_1">
   <g id="patch_2">
    <path d="M 43.78125 97.478125 
L 326.27125 97.478125 
L 326.27125 22.318125 
L 43.78125 22.318125 
z
" style="fill: #ffffff"/>
   </g>
   <g id="matplotlib.axis_1">
    <g id="xtick_1">
     <g id="line2d_1">
      <defs>
       <path id="m2a3ee214ad" d="M 0 0 
L 0 3.5 
" style="stroke: #000000; stroke-width: 0.8"/>
      </defs>
      <g>
       <use xlink:href="#m2a3ee214ad" x="43.78125" y="97.478125" style="stroke: #000000; stroke-width: 0.8"/>
      </g>
     </g>
     <g id="text_1">
      <!-- 900 -->
      <g transform="translate(34.2375 112.076563) scale(0.1 -0.1)">
       <defs>
        <path id="DejaVuSans-39" d="M 703 97 
L 703 672 
Q 941 559 1184 500 
Q 1428 441 1663 441 
Q 2288 441 2617 861 
Q 2947 1281 2994 2138 
Q 2813 1869 2534 1725 
Q 2256 1581 1919 1581 
Q 1219 1581 811 2004 
Q 403 2428 403 3163 
Q 403 3881 828 4315 
Q 1253 4750 1959 4750 
Q 2769 4750 3195 4129 
Q 3622 3509 3622 2328 
Q 3622 1225 3098 567 
Q 2575 -91 1691 -91 
Q 1453 -91 1209 -44 
Q 966 3 703 97 
z
M 1959 2075 
Q 2384 2075 2632 2365 
Q 2881 2656 2881 3163 
Q 2881 3666 2632 3958 
Q 2384 4250 1959 4250 
Q 1534 4250 1286 3958 
Q 1038 3666 1038 3163 
Q 1038 2656 1286 2365 
Q 1534 2075 1959 2075 
z
" transform="scale(0.015625)"/>
        <path id="DejaVuSans-30" d="M 2034 4250 
Q 1547 4250 1301 3770 
Q 1056 3291 1056 2328 
Q 1056 1369 1301 889 
Q 1547 409 2034 409 
Q 2525 409 2770 889 
Q 3016 1369 3016 2328 
Q 3016 3291 2770 3770 
Q 2525 4250 2034 4250 
z
M 2034 4750 
Q 2819 4750 3233 4129 
Q 3647 3509 3647 2328 
Q 3647 1150 3233 529 
Q 2819 -91 2034 -91 
Q 1250 -91 836 529 
Q 422 1150 422 2328 
Q 422 3509 836 4129 
Q 1250 4750 2034 4750 
z
" transform="scale(0.015625)"/>
       </defs>
       <use xlink:href="#DejaVuSans-39"/>
       <use xlink:href="#DejaVuSans-30" transform="translate(63.623047 0)"/>
       <use xlink:href="#DejaVuSans-30" transform="translate(127.246094 0)"/>
      </g>
     </g>
    </g>
    <g id="xtick_2">
     <g id="line2d_2">
      <g>
       <use xlink:href="#m2a3ee214ad" x="79.0925" y="97.478125" style="stroke: #000000; stroke-width: 0.8"/>
      </g>
     </g>
     <g id="text_2">
      <!-- 925 -->
      <g transform="translate(69.54875 112.076563) scale(0.1 -0.1)">
       <defs>
        <path id="DejaVuSans-32" d="M 1228 531 
L 3431 531 
L 3431 0 
L 469 0 
L 469 531 
Q 828 903 1448 1529 
Q 2069 2156 2228 2338 
Q 2531 2678 2651 2914 
Q 2772 3150 2772 3378 
Q 2772 3750 2511 3984 
Q 2250 4219 1831 4219 
Q 1534 4219 1204 4116 
Q 875 4013 500 3803 
L 500 4441 
Q 881 4594 1212 4672 
Q 1544 4750 1819 4750 
Q 2544 4750 2975 4387 
Q 3406 4025 3406 3419 
Q 3406 3131 3298 2873 
Q 3191 2616 2906 2266 
Q 2828 2175 2409 1742 
Q 1991 1309 1228 531 
z
" transform="scale(0.015625)"/>
        <path id="DejaVuSans-35" d="M 691 4666 
L 3169 4666 
L 3169 4134 
L 1269 4134 
L 1269 2991 
Q 1406 3038 1543 3061 
Q 1681 3084 1819 3084 
Q 2600 3084 3056 2656 
Q 3513 2228 3513 1497 
Q 3513 744 3044 326 
Q 2575 -91 1722 -91 
Q 1428 -91 1123 -41 
Q 819 9 494 109 
L 494 744 
Q 775 591 1075 516 
Q 1375 441 1709 441 
Q 2250 441 2565 725 
Q 2881 1009 2881 1497 
Q 2881 1984 2565 2268 
Q 2250 2553 1709 2553 
Q 1456 2553 1204 2497 
Q 953 2441 691 2322 
L 691 4666 
z
" transform="scale(0.015625)"/>
       </defs>
       <use xlink:href="#DejaVuSans-39"/>
       <use xlink:href="#DejaVuSans-32" transform="translate(63.623047 0)"/>
       <use xlink:href="#DejaVuSans-35" transform="translate(127.246094 0)"/>
      </g>
     </g>
    </g>
    <g id="xtick_3">
     <g id="line2d_3">
      <g>
       <use xlink:href="#m2a3ee214ad" x="114.40375" y="97.478125" style="stroke: #000000; stroke-width: 0.8"/>
      </g>
     </g>
     <g id="text_3">
      <!-- 950 -->
      <g transform="translate(104.86 112.076563) scale(0.1 -0.1)">
       <use xlink:href="#DejaVuSans-39"/>
       <use xlink:href="#DejaVuSans-35" transform="translate(63.623047 0)"/>
       <use xlink:href="#DejaVuSans-30" transform="translate(127.246094 0)"/>
      </g>
     </g>
    </g>
    <g id="xtick_4">
     <g id="line2d_4">
      <g>
       <use xlink:href="#m2a3ee214ad" x="149.715" y="97.478125" style="stroke: #000000; stroke-width: 0.8"/>
      </g>
     </g>
     <g id="text_4">
      <!-- 975 -->
      <g transform="translate(140.17125 112.076563) scale(0.1 -0.1)">
       <defs>
        <path id="DejaVuSans-37" d="M 525 4666 
L 3525 4666 
L 3525 4397 
L 1831 0 
L 1172 0 
L 2766 4134 
L 525 4134 
L 525 4666 
z
" transform="scale(0.015625)"/>
       </defs>
       <use xlink:href="#DejaVuSans-39"/>
       <use xlink:href="#DejaVuSans-37" transform="translate(63.623047 0)"/>
       <use xlink:href="#DejaVuSans-35" transform="translate(127.246094 0)"/>
      </g>
     </g>
    </g>
    <g id="xtick_5">
     <g id="line2d_5">
      <g>
       <use xlink:href="#m2a3ee214ad" x="185.02625" y="97.478125" style="stroke: #000000; stroke-width: 0.8"/>
      </g>
     </g>
     <g id="text_5">
      <!-- 1000 -->
      <g transform="translate(172.30125 112.076563) scale(0.1 -0.1)">
       <defs>
        <path id="DejaVuSans-31" d="M 794 531 
L 1825 531 
L 1825 4091 
L 703 3866 
L 703 4441 
L 1819 4666 
L 2450 4666 
L 2450 531 
L 3481 531 
L 3481 0 
L 794 0 
L 794 531 
z
" transform="scale(0.015625)"/>
       </defs>
       <use xlink:href="#DejaVuSans-31"/>
       <use xlink:href="#DejaVuSans-30" transform="translate(63.623047 0)"/>
       <use xlink:href="#DejaVuSans-30" transform="translate(127.246094 0)"/>
       <use xlink:href="#DejaVuSans-30" transform="translate(190.869141 0)"/>
      </g>
     </g>
    </g>
    <g id="xtick_6">
     <g id="line2d_6">
      <g>
       <use xlink:href="#m2a3ee214ad" x="220.3375" y="97.478125" style="stroke: #000000; stroke-width: 0.8"/>
      </g>
     </g>
     <g id="text_6">
      <!-- 1025 -->
      <g transform="translate(207.6125 112.076563) scale(0.1 -0.1)">
       <use xlink:href="#DejaVuSans-31"/>
       <use xlink:href="#DejaVuSans-30" transform="translate(63.623047 0)"/>
       <use xlink:href="#DejaVuSans-32" transform="translate(127.246094 0)"/>
       <use xlink:href="#DejaVuSans-35" transform="translate(190.869141 0)"/>
      </g>
     </g>
    </g>
    <g id="xtick_7">
     <g id="line2d_7">
      <g>
       <use xlink:href="#m2a3ee214ad" x="255.64875" y="97.478125" style="stroke: #000000; stroke-width: 0.8"/>
      </g>
     </g>
     <g id="text_7">
      <!-- 1050 -->
      <g transform="translate(242.92375 112.076563) scale(0.1 -0.1)">
       <use xlink:href="#DejaVuSans-31"/>
       <use xlink:href="#DejaVuSans-30" transform="translate(63.623047 0)"/>
       <use xlink:href="#DejaVuSans-35" transform="translate(127.246094 0)"/>
       <use xlink:href="#DejaVuSans-30" transform="translate(190.869141 0)"/>
      </g>
     </g>
    </g>
    <g id="xtick_8">
     <g id="line2d_8">
      <g>
       <use xlink:href="#m2a3ee214ad" x="290.96" y="97.478125" style="stroke: #000000; stroke-width: 0.8"/>
      </g>
     </g>
     <g id="text_8">
      <!-- 1075 -->
      <g transform="translate(278.235 112.076563) scale(0.1 -0.1)">
       <use xlink:href="#DejaVuSans-31"/>
       <use xlink:href="#DejaVuSans-30" transform="translate(63.623047 0)"/>
       <use xlink:href="#DejaVuSans-37" transform="translate(127.246094 0)"/>
       <use xlink:href="#DejaVuSans-35" transform="translate(190.869141 0)"/>
      </g>
     </g>
    </g>
    <g id="xtick_9">
     <g id="line2d_9">
      <g>
       <use xlink:href="#m2a3ee214ad" x="326.27125" y="97.478125" style="stroke: #000000; stroke-width: 0.8"/>
      </g>
     </g>
     <g id="text_9">
      <!-- 1100 -->
      <g transform="translate(313.54625 112.076563) scale(0.1 -0.1)">
       <use xlink:href="#DejaVuSans-31"/>
       <use xlink:href="#DejaVuSans-31" transform="translate(63.623047 0)"/>
       <use xlink:href="#DejaVuSans-30" transform="translate(127.246094 0)"/>
       <use xlink:href="#DejaVuSans-30" transform="translate(190.869141 0)"/>
      </g>
     </g>
    </g>
    <g id="text_10">
     <!-- Energy (eV) -->
     <g transform="translate(155.5325 125.754688) scale(0.1 -0.1)">
      <defs>
       <path id="DejaVuSans-45" d="M 628 4666 
L 3578 4666 
L 3578 4134 
L 1259 4134 
L 1259 2753 
L 3481 2753 
L 3481 2222 
L 1259 2222 
L 1259 531 
L 3634 531 
L 3634 0 
L 628 0 
L 628 4666 
z
" transform="scale(0.015625)"/>
       <path id="DejaVuSans-6e" d="M 3513 2113 
L 3513 0 
L 2938 0 
L 2938 2094 
Q 2938 2591 2744 2837 
Q 2550 3084 2163 3084 
Q 1697 3084 1428 2787 
Q 1159 2491 1159 1978 
L 1159 0 
L 581 0 
L 581 3500 
L 1159 3500 
L 1159 2956 
Q 1366 3272 1645 3428 
Q 1925 3584 2291 3584 
Q 2894 3584 3203 3211 
Q 3513 2838 3513 2113 
z
" transform="scale(0.015625)"/>
       <path id="DejaVuSans-65" d="M 3597 1894 
L 3597 1613 
L 953 1613 
Q 991 1019 1311 708 
Q 1631 397 2203 397 
Q 2534 397 2845 478 
Q 3156 559 3463 722 
L 3463 178 
Q 3153 47 2828 -22 
Q 2503 -91 2169 -91 
Q 1331 -91 842 396 
Q 353 884 353 1716 
Q 353 2575 817 3079 
Q 1281 3584 2069 3584 
Q 2775 3584 3186 3129 
Q 3597 2675 3597 1894 
z
M 3022 2063 
Q 3016 2534 2758 2815 
Q 2500 3097 2075 3097 
Q 1594 3097 1305 2825 
Q 1016 2553 972 2059 
L 3022 2063 
z
" transform="scale(0.015625)"/>
       <path id="DejaVuSans-72" d="M 2631 2963 
Q 2534 3019 2420 3045 
Q 2306 3072 2169 3072 
Q 1681 3072 1420 2755 
Q 1159 2438 1159 1844 
L 1159 0 
L 581 0 
L 581 3500 
L 1159 3500 
L 1159 2956 
Q 1341 3275 1631 3429 
Q 1922 3584 2338 3584 
Q 2397 3584 2469 3576 
Q 2541 3569 2628 3553 
L 2631 2963 
z
" transform="scale(0.015625)"/>
       <path id="DejaVuSans-67" d="M 2906 1791 
Q 2906 2416 2648 2759 
Q 2391 3103 1925 3103 
Q 1463 3103 1205 2759 
Q 947 2416 947 1791 
Q 947 1169 1205 825 
Q 1463 481 1925 481 
Q 2391 481 2648 825 
Q 2906 1169 2906 1791 
z
M 3481 434 
Q 3481 -459 3084 -895 
Q 2688 -1331 1869 -1331 
Q 1566 -1331 1297 -1286 
Q 1028 -1241 775 -1147 
L 775 -588 
Q 1028 -725 1275 -790 
Q 1522 -856 1778 -856 
Q 2344 -856 2625 -561 
Q 2906 -266 2906 331 
L 2906 616 
Q 2728 306 2450 153 
Q 2172 0 1784 0 
Q 1141 0 747 490 
Q 353 981 353 1791 
Q 353 2603 747 3093 
Q 1141 3584 1784 3584 
Q 2172 3584 2450 3431 
Q 2728 3278 2906 2969 
L 2906 3500 
L 3481 3500 
L 3481 434 
z
" transform="scale(0.015625)"/>
       <path id="DejaVuSans-79" d="M 2059 -325 
Q 1816 -950 1584 -1140 
Q 1353 -1331 966 -1331 
L 506 -1331 
L 506 -850 
L 844 -850 
Q 1081 -850 1212 -737 
Q 1344 -625 1503 -206 
L 1606 56 
L 191 3500 
L 800 3500 
L 1894 763 
L 2988 3500 
L 3597 3500 
L 2059 -325 
z
" transform="scale(0.015625)"/>
       <path id="DejaVuSans-20" transform="scale(0.015625)"/>
       <path id="DejaVuSans-28" d="M 1984 4856 
Q 1566 4138 1362 3434 
Q 1159 2731 1159 2009 
Q 1159 1288 1364 580 
Q 1569 -128 1984 -844 
L 1484 -844 
Q 1016 -109 783 600 
Q 550 1309 550 2009 
Q 550 2706 781 3412 
Q 1013 4119 1484 4856 
L 1984 4856 
z
" transform="scale(0.015625)"/>
       <path id="DejaVuSans-56" d="M 1831 0 
L 50 4666 
L 709 4666 
L 2188 738 
L 3669 4666 
L 4325 4666 
L 2547 0 
L 1831 0 
z
" transform="scale(0.015625)"/>
       <path id="DejaVuSans-29" d="M 513 4856 
L 1013 4856 
Q 1481 4119 1714 3412 
Q 1947 2706 1947 2009 
Q 1947 1309 1714 600 
Q 1481 -109 1013 -844 
L 513 -844 
Q 928 -128 1133 580 
Q 1338 1288 1338 2009 
Q 1338 2731 1133 3434 
Q 928 4138 513 4856 
z
" transform="scale(0.015625)"/>
      </defs>
      <use xlink:href="#DejaVuSans-45"/>
      <use xlink:href="#DejaVuSans-6e" transform="translate(63.183594 0)"/>
      <use xlink:href="#DejaVuSans-65" transform="translate(126.5625 0)"/>
      <use xlink:href="#DejaVuSans-72" transform="translate(188.085938 0)"/>
      <use xlink:href="#DejaVuSans-67" transform="translate(227.449219 0)"/>
      <use xlink:href="#DejaVuSans-79" transform="translate(290.925781 0)"/>
      <use xlink:href="#DejaVuSans-20" transform="translate(350.105469 0)"/>
      <use xlink:href="#DejaVuSans-28" transform="translate(381.892578 0)"/>
      <use xlink:href="#DejaVuSans-65" transform="translate(420.90625 0)"/>
      <use xlink:href="#DejaVuSans-56" transform="translate(482.429688 0)"/>
      <use xlink:href="#DejaVuSans-29" transform="translate(550.837891 0)"/>
     </g>
    </g>
   </g>
   <g id="matplotlib.axis_2">
    <g id="ytick_1">
     <g id="line2d_10">
      <defs>
       <path id="m53ca92d683" d="M 0 0 
L -3.5 0 
" style="stroke: #000000; stroke-width: 0.8"/>
      </defs>
      <g>
       <use xlink:href="#m53ca92d683" x="43.78125" y="94.061761" style="stroke: #000000; stroke-width: 0.8"/>
      </g>
     </g>
     <g id="text_11">
      <!-- 0.0 -->
      <g transform="translate(20.878125 97.86098) scale(0.1 -0.1)">
       <defs>
        <path id="DejaVuSans-2e" d="M 684 794 
L 1344 794 
L 1344 0 
L 684 0 
L 684 794 
z
" transform="scale(0.015625)"/>
       </defs>
       <use xlink:href="#DejaVuSans-30"/>
       <use xlink:href="#DejaVuSans-2e" transform="translate(63.623047 0)"/>
       <use xlink:href="#DejaVuSans-30" transform="translate(95.410156 0)"/>
      </g>
     </g>
    </g>
    <g id="ytick_2">
     <g id="line2d_11">
      <g>
       <use xlink:href="#m53ca92d683" x="43.78125" y="59.898125" style="stroke: #000000; stroke-width: 0.8"/>
      </g>
     </g>
     <g id="text_12">
      <!-- 0.5 -->
      <g transform="translate(20.878125 63.697344) scale(0.1 -0.1)">
       <use xlink:href="#DejaVuSans-30"/>
       <use xlink:href="#DejaVuSans-2e" transform="translate(63.623047 0)"/>
       <use xlink:href="#DejaVuSans-35" transform="translate(95.410156 0)"/>
      </g>
     </g>
    </g>
    <g id="ytick_3">
     <g id="line2d_12">
      <g>
       <use xlink:href="#m53ca92d683" x="43.78125" y="25.734489" style="stroke: #000000; stroke-width: 0.8"/>
      </g>
     </g>
     <g id="text_13">
      <!-- 1.0 -->
      <g transform="translate(20.878125 29.533707) scale(0.1 -0.1)">
       <use xlink:href="#DejaVuSans-31"/>
       <use xlink:href="#DejaVuSans-2e" transform="translate(63.623047 0)"/>
       <use xlink:href="#DejaVuSans-30" transform="translate(95.410156 0)"/>
      </g>
     </g>
    </g>
    <g id="text_14">
     <!-- Intensity (a.u.) -->
     <g transform="translate(14.798438 96.562187) rotate(-90) scale(0.1 -0.1)">
      <defs>
       <path id="DejaVuSans-49" d="M 628 4666 
L 1259 4666 
L 1259 0 
L 628 0 
L 628 4666 
z
" transform="scale(0.015625)"/>
       <path id="DejaVuSans-74" d="M 1172 4494 
L 1172 3500 
L 2356 3500 
L 2356 3053 
L 1172 3053 
L 1172 1153 
Q 1172 725 1289 603 
Q 1406 481 1766 481 
L 2356 481 
L 2356 0 
L 1766 0 
Q 1100 0 847 248 
Q 594 497 594 1153 
L 594 3053 
L 172 3053 
L 172 3500 
L 594 3500 
L 594 4494 
L 1172 4494 
z
" transform="scale(0.015625)"/>
       <path id="DejaVuSans-73" d="M 2834 3397 
L 2834 2853 
Q 2591 2978 2328 3040 
Q 2066 3103 1784 3103 
Q 1356 3103 1142 2972 
Q 928 2841 928 2578 
Q 928 2378 1081 2264 
Q 1234 2150 1697 2047 
L 1894 2003 
Q 2506 1872 2764 1633 
Q 3022 1394 3022 966 
Q 3022 478 2636 193 
Q 2250 -91 1575 -91 
Q 1294 -91 989 -36 
Q 684 19 347 128 
L 347 722 
Q 666 556 975 473 
Q 1284 391 1588 391 
Q 1994 391 2212 530 
Q 2431 669 2431 922 
Q 2431 1156 2273 1281 
Q 2116 1406 1581 1522 
L 1381 1569 
Q 847 1681 609 1914 
Q 372 2147 372 2553 
Q 372 3047 722 3315 
Q 1072 3584 1716 3584 
Q 2034 3584 2315 3537 
Q 2597 3491 2834 3397 
z
" transform="scale(0.015625)"/>
       <path id="DejaVuSans-69" d="M 603 3500 
L 1178 3500 
L 1178 0 
L 603 0 
L 603 3500 
z
M 603 4863 
L 1178 4863 
L 1178 4134 
L 603 4134 
L 603 4863 
z
" transform="scale(0.015625)"/>
       <path id="DejaVuSans-61" d="M 2194 1759 
Q 1497 1759 1228 1600 
Q 959 1441 959 1056 
Q 959 750 1161 570 
Q 1363 391 1709 391 
Q 2188 391 2477 730 
Q 2766 1069 2766 1631 
L 2766 1759 
L 2194 1759 
z
M 3341 1997 
L 3341 0 
L 2766 0 
L 2766 531 
Q 2569 213 2275 61 
Q 1981 -91 1556 -91 
Q 1019 -91 701 211 
Q 384 513 384 1019 
Q 384 1609 779 1909 
Q 1175 2209 1959 2209 
L 2766 2209 
L 2766 2266 
Q 2766 2663 2505 2880 
Q 2244 3097 1772 3097 
Q 1472 3097 1187 3025 
Q 903 2953 641 2809 
L 641 3341 
Q 956 3463 1253 3523 
Q 1550 3584 1831 3584 
Q 2591 3584 2966 3190 
Q 3341 2797 3341 1997 
z
" transform="scale(0.015625)"/>
       <path id="DejaVuSans-75" d="M 544 1381 
L 544 3500 
L 1119 3500 
L 1119 1403 
Q 1119 906 1312 657 
Q 1506 409 1894 409 
Q 2359 409 2629 706 
Q 2900 1003 2900 1516 
L 2900 3500 
L 3475 3500 
L 3475 0 
L 2900 0 
L 2900 538 
Q 2691 219 2414 64 
Q 2138 -91 1772 -91 
Q 1169 -91 856 284 
Q 544 659 544 1381 
z
M 1991 3584 
L 1991 3584 
z
" transform="scale(0.015625)"/>
      </defs>
      <use xlink:href="#DejaVuSans-49"/>
      <use xlink:href="#DejaVuSans-6e" transform="translate(29.492188 0)"/>
      <use xlink:href="#DejaVuSans-74" transform="translate(92.871094 0)"/>
      <use xlink:href="#DejaVuSans-65" transform="translate(132.080078 0)"/>
      <use xlink:href="#DejaVuSans-6e" transform="translate(193.603516 0)"/>
      <use xlink:href="#DejaVuSans-73" transform="translate(256.982422 0)"/>
      <use xlink:href="#DejaVuSans-69" transform="translate(309.082031 0)"/>
      <use xlink:href="#DejaVuSans-74" transform="translate(336.865234 0)"/>
      <use xlink:href="#DejaVuSans-79" transform="translate(376.074219 0)"/>
      <use xlink:href="#DejaVuSans-20" transform="translate(435.253906 0)"/>
      <use xlink:href="#DejaVuSans-28" transform="translate(467.041016 0)"/>
      <use xlink:href="#DejaVuSans-61" transform="translate(506.054688 0)"/>
      <use xlink:href="#DejaVuSans-2e" transform="translate(567.333984 0)"/>
      <use xlink:href="#DejaVuSans-75" transform="translate(599.121094 0)"/>
      <use xlink:href="#DejaVuSans-2e" transform="translate(662.5 0)"/>
      <use xlink:href="#DejaVuSans-29" transform="translate(694.287109 0)"/>
     </g>
    </g>
   </g>
   <g id="line2d_13">
    <path d="M 43.762375 93.926035 
L 49.13181 93.767858 
L 49.256682 93.669649 
L 49.381552 93.805692 
L 49.506423 93.569608 
L 49.756164 93.655873 
L 49.881034 93.544589 
L 50.005904 93.630561 
L 50.380516 93.39414 
L 50.630257 93.406884 
L 50.755127 93.322096 
L 50.879999 93.574491 
L 51.00487 93.49746 
L 51.254611 93.626119 
L 51.629222 93.576913 
L 51.754092 93.665124 
L 52.003833 93.55756 
L 52.877928 93.657595 
L 53.002798 93.470783 
L 53.127669 93.652378 
L 53.252539 93.479853 
L 53.37741 93.640004 
L 53.627151 93.459777 
L 53.876892 93.555045 
L 54.750986 93.346855 
L 55.000727 92.961388 
L 55.375339 93.034581 
L 55.500211 92.907834 
L 55.749952 93.23772 
L 55.999693 93.027152 
L 56.374304 93.306454 
L 56.624045 93.160698 
L 56.873786 93.422038 
L 57.123528 93.414396 
L 57.373269 93.55865 
L 57.49814 93.509437 
L 57.74788 93.682561 
L 57.997621 93.585437 
L 58.497103 93.765741 
L 58.871716 93.605425 
L 59.121457 93.626753 
L 59.246327 93.680054 
L 59.496068 93.617333 
L 60.120421 93.559892 
L 60.495032 93.636054 
L 60.619903 93.428522 
L 60.994517 93.557485 
L 61.119387 93.354839 
L 61.369128 93.446725 
L 61.493999 93.171869 
L 61.618869 93.3838 
L 61.993481 92.837731 
L 62.243222 92.873786 
L 62.617833 92.081668 
L 62.742703 92.017722 
L 63.367056 90.975047 
L 63.616797 89.694146 
L 63.741667 89.867916 
L 63.991408 88.858109 
L 64.116281 88.76469 
L 64.241152 88.48257 
L 64.366022 88.578071 
L 64.490893 88.101666 
L 64.865504 89.027595 
L 64.990375 88.848221 
L 65.115245 89.173928 
L 65.240116 88.897952 
L 65.364986 89.403693 
L 65.489856 89.433599 
L 65.614727 89.796949 
L 65.739597 90.579361 
L 65.864468 90.464831 
L 66.114209 90.795332 
L 66.239079 90.771339 
L 66.36395 90.95412 
L 66.48882 91.507468 
L 66.863432 91.5745 
L 67.238046 92.082314 
L 67.487787 92.147659 
L 67.862398 92.498104 
L 68.112139 92.566319 
L 68.23701 92.672856 
L 68.486751 92.470131 
L 68.611621 92.774324 
L 68.986232 92.323674 
L 69.111103 92.317681 
L 69.235973 92.598272 
L 69.485714 92.150913 
L 69.735455 92.083409 
L 69.985196 91.528603 
L 70.234937 91.845456 
L 70.484681 90.789102 
L 70.609551 90.722917 
L 70.859292 90.047636 
L 70.984163 89.979616 
L 71.109033 89.364042 
L 71.358774 89.212717 
L 71.608515 88.691486 
L 71.733385 88.298102 
L 72.107997 85.758348 
L 72.482608 81.064442 
L 73.356701 59.504009 
L 73.981057 37.941684 
L 74.105927 35.986178 
L 74.230798 36.894521 
L 74.605409 29.743188 
L 74.98002 25.734489 
L 75.229761 36.254584 
L 75.729243 60.593513 
L 76.478466 79.48445 
L 77.102821 87.091081 
L 77.352562 87.954784 
L 77.602303 89.224955 
L 77.852044 89.670689 
L 78.226655 90.630076 
L 78.351526 90.739655 
L 78.726137 91.624917 
L 78.851008 91.536384 
L 78.975878 91.803814 
L 79.100749 91.777239 
L 79.35049 92.054093 
L 79.47536 92.037835 
L 79.60023 92.526325 
L 79.725104 92.450925 
L 79.974845 92.604109 
L 80.599197 93.060577 
L 80.848938 93.036747 
L 81.47329 93.063912 
L 81.598161 93.300658 
L 81.723031 93.193137 
L 82.222513 93.318449 
L 82.347384 93.293523 
L 82.721995 93.515004 
L 82.971739 93.556937 
L 83.096609 93.342973 
L 83.22148 93.489369 
L 83.471221 93.492045 
L 83.970703 93.603818 
L 84.595055 93.678132 
L 84.844796 93.623307 
L 85.21941 93.747508 
L 85.594019 93.625236 
L 85.84376 93.715638 
L 86.343241 93.612262 
L 86.842723 93.797406 
L 86.967597 93.65699 
L 87.092464 93.79765 
L 87.716819 93.736031 
L 88.341175 93.725042 
L 88.590916 93.679999 
L 88.840657 93.778993 
L 89.714747 93.777887 
L 90.089361 93.77236 
L 90.588843 93.76748 
L 91.088325 93.836619 
L 91.338066 93.774323 
L 91.587807 93.873025 
L 91.71268 93.761621 
L 91.962421 93.799413 
L 92.087289 93.714747 
L 92.337029 93.806297 
L 92.711644 93.778547 
L 93.211126 93.84221 
L 134.293546 93.963226 
L 134.418419 93.890052 
L 134.668154 93.953698 
L 135.417383 93.968823 
L 141.660912 93.950567 
L 141.910647 93.944665 
L 144.53293 93.940484 
L 144.782677 93.901931 
L 145.157285 93.993947 
L 145.531894 93.942051 
L 146.530857 93.95818 
L 149.278013 93.931755 
L 149.902369 93.989572 
L 150.276977 93.908385 
L 150.776459 93.946734 
L 153.648488 93.975393 
L 154.772326 93.98937 
L 155.396669 93.923156 
L 155.896151 93.98193 
L 156.520506 93.965505 
L 187.738151 93.869625 
L 187.987898 93.79967 
L 189.985825 93.739152 
L 191.109662 93.883944 
L 191.359397 93.820938 
L 191.983753 93.898348 
L 192.358361 93.870291 
L 193.731945 93.830455 
L 194.231427 93.708218 
L 194.481162 93.782892 
L 194.980644 93.746787 
L 197.103445 93.940736 
L 197.478065 93.896473 
L 197.7278 93.949672 
L 198.227282 93.921708 
L 199.226245 93.940591 
L 199.600854 93.894192 
L 203.097239 93.906528 
L 203.471847 93.941202 
L 204.720558 93.935151 
L 208.591539 93.79785 
L 209.215894 93.727458 
L 209.840249 93.651425 
L 210.089984 93.62902 
L 210.839213 93.577666 
L 211.088948 93.369179 
L 211.338695 93.475306 
L 211.58843 93.400567 
L 212.587406 93.093108 
L 212.83714 92.909625 
L 213.086887 92.694109 
L 213.960978 91.017859 
L 214.210713 89.801245 
L 214.335586 89.472552 
L 214.710194 86.995154 
L 215.209676 85.008988 
L 215.33455 84.97791 
L 215.459423 84.431142 
L 215.584297 84.486575 
L 215.958905 82.218102 
L 216.083778 82.84976 
L 216.333513 82.495728 
L 216.458387 82.701635 
L 217.207616 86.71318 
L 218.206579 91.644286 
L 218.830935 92.87842 
L 219.205543 93.102946 
L 219.455278 93.234702 
L 219.705025 93.411286 
L 220.454242 93.624385 
L 220.828862 93.639808 
L 226.073427 93.865828 
L 226.323162 93.796168 
L 226.572909 93.850962 
L 227.322126 93.751042 
L 227.571873 94.029065 
L 233.31592 94.046138 
L 276.770876 94.054495 
L 277.145496 94.011115 
L 278.519057 93.997889 
L 288.383844 93.934985 
L 289.133061 93.833752 
L 290.881265 93.4747 
L 291.380735 93.298758 
L 291.755355 93.065328 
L 293.004042 92.660466 
L 293.253789 92.319667 
L 293.753283 92.346962 
L 293.878156 92.313279 
L 294.127879 92.479146 
L 295.001993 92.662914 
L 295.75121 93.031001 
L 297.249644 93.585123 
L 301.495245 93.978698 
L 302.743956 93.998507 
L 303.867793 94.008226 
L 314.606671 94.004026 
L 314.606671 94.004026 
" clip-path="url(#p06a7ae2fb7)" style="fill: none; stroke: #000000; stroke-width: 1.2; stroke-linecap: square"/>
   </g>
   <g id="line2d_14">
    <path d="M 43.762375 94.061761 
L 44.012116 93.989791 
L 48.882069 93.86067 
L 49.381552 93.274518 
L 49.506423 93.116961 
L 49.881034 84.759403 
L 50.255645 88.819966 
L 50.630257 93.381851 
L 51.629222 93.887318 
L 54.001764 93.817784 
L 54.126634 93.711447 
L 54.626116 92.678139 
L 54.750986 91.271461 
L 55.125598 75.613597 
L 55.500211 91.997068 
L 56.748915 93.830441 
L 60.994517 93.748984 
L 63.117315 93.627773 
L 63.491926 93.125595 
L 64.366022 91.827184 
L 64.490893 89.218103 
L 64.740634 75.126971 
L 64.990375 91.991113 
L 65.864468 93.3276 
L 67.113172 93.076367 
L 68.486751 91.92184 
L 69.735455 91.921065 
L 70.984163 90.442371 
L 72.232867 86.356334 
L 72.482608 83.42835 
L 73.606445 66.929439 
L 74.480539 25.81817 
L 74.73028 25.767409 
L 75.229761 25.972915 
L 75.354632 28.620046 
L 76.353596 71.406353 
L 77.602303 86.959773 
L 78.975878 90.837347 
L 80.349456 92.245349 
L 81.972772 92.973825 
L 83.845832 93.389246 
L 85.718892 93.606652 
L 90.089361 93.833406 
L 98.081077 93.966018 
L 119.683687 94.038528 
L 188.612253 94.058861 
L 190.610181 93.986393 
L 192.732981 94.06014 
L 214.959941 94.023357 
L 215.084815 93.962054 
L 215.33455 93.549463 
L 215.459423 93.555048 
L 215.70917 93.85332 
L 215.958905 93.434793 
L 216.208652 93.538713 
L 216.458387 93.98592 
L 216.957869 94.040322 
L 220.703988 94.060718 
L 286.261043 93.979235 
L 286.51079 93.956444 
L 287.01026 94.001874 
L 287.634627 93.93877 
L 288.758464 92.988766 
L 289.008187 92.186758 
L 289.507681 92.194679 
L 289.757428 93.111105 
L 290.756392 93.954158 
L 294.377626 94.051944 
L 314.606671 94.06103 
L 314.606671 94.06103 
" clip-path="url(#p06a7ae2fb7)" style="fill: none; stroke-dasharray: 4.44,1.92; stroke-dashoffset: 0; stroke: #e8402a; stroke-width: 1.2"/>
   </g>
   <g id="patch_3">
    <path d="M 43.78125 97.478125 
L 43.78125 22.318125 
" style="fill: none; stroke: #000000; stroke-width: 0.8; stroke-linejoin: miter; stroke-linecap: square"/>
   </g>
   <g id="patch_4">
    <path d="M 326.27125 97.478125 
L 326.27125 22.318125 
" style="fill: none; stroke: #000000; stroke-width: 0.8; stroke-linejoin: miter; stroke-linecap: square"/>
   </g>
   <g id="patch_5">
    <path d="M 43.78125 97.478125 
L 326.27125 97.478125 
" style="fill: none; stroke: #000000; stroke-width: 0.8; stroke-linejoin: miter; stroke-linecap: square"/>
   </g>
   <g id="patch_6">
    <path d="M 43.78125 22.318125 
L 326.27125 22.318125 
" style="fill: none; stroke: #000000; stroke-width: 0.8; stroke-linejoin: miter; stroke-linecap: square"/>
   </g>
   <g id="text_15">
    <!-- 6263 -->
    <g transform="translate(169.75625 16.318125) scale(0.12 -0.12)">
     <defs>
      <path id="DejaVuSans-36" d="M 2113 2584 
Q 1688 2584 1439 2293 
Q 1191 2003 1191 1497 
Q 1191 994 1439 701 
Q 1688 409 2113 409 
Q 2538 409 2786 701 
Q 3034 994 3034 1497 
Q 3034 2003 2786 2293 
Q 2538 2584 2113 2584 
z
M 3366 4563 
L 3366 3988 
Q 3128 4100 2886 4159 
Q 2644 4219 2406 4219 
Q 1781 4219 1451 3797 
Q 1122 3375 1075 2522 
Q 1259 2794 1537 2939 
Q 1816 3084 2150 3084 
Q 2853 3084 3261 2657 
Q 3669 2231 3669 1497 
Q 3669 778 3244 343 
Q 2819 -91 2113 -91 
Q 1303 -91 875 529 
Q 447 1150 447 2328 
Q 447 3434 972 4092 
Q 1497 4750 2381 4750 
Q 2619 4750 2861 4703 
Q 3103 4656 3366 4563 
z
" transform="scale(0.015625)"/>
      <path id="DejaVuSans-33" d="M 2597 2516 
Q 3050 2419 3304 2112 
Q 3559 1806 3559 1356 
Q 3559 666 3084 287 
Q 2609 -91 1734 -91 
Q 1441 -91 1130 -33 
Q 819 25 488 141 
L 488 750 
Q 750 597 1062 519 
Q 1375 441 1716 441 
Q 2309 441 2620 675 
Q 2931 909 2931 1356 
Q 2931 1769 2642 2001 
Q 2353 2234 1838 2234 
L 1294 2234 
L 1294 2753 
L 1863 2753 
Q 2328 2753 2575 2939 
Q 2822 3125 2822 3475 
Q 2822 3834 2567 4026 
Q 2313 4219 1838 4219 
Q 1578 4219 1281 4162 
Q 984 4106 628 3988 
L 628 4550 
Q 988 4650 1302 4700 
Q 1616 4750 1894 4750 
Q 2613 4750 3031 4423 
Q 3450 4097 3450 3541 
Q 3450 3153 3228 2886 
Q 3006 2619 2597 2516 
z
" transform="scale(0.015625)"/>
     </defs>
     <use xlink:href="#DejaVuSans-36"/>
     <use xlink:href="#DejaVuSans-32" transform="translate(63.623047 0)"/>
     <use xlink:href="#DejaVuSans-36" transform="translate(127.246094 0)"/>
     <use xlink:href="#DejaVuSans-33" transform="translate(190.869141 0)"/>
    </g>
   </g>
  </g>
 </g>
 <defs>
  <clipPath id="p06a7ae2fb7">
   <rect x="43.78125" y="22.318125" width="282.49" height="75.16"/>
  </clipPath>
 </defs>
</svg>
