<?xml version="1.0" encoding="utf-8" standalone="no"?>
<!DOCTYPE svg PUBLIC "-//W3C//DTD SVG 1.1//EN"
  "http://www.w3.org/Graphics/SVG/1.1/DTD/svg11.dtd">
<svg xmlns:xlink="http://www.w3.org/1999/xlink" width="346.19625pt" height="135.034375pt" viewBox="0 0 346.19625 135.034375" xmlns="http://www.w3.org/2000/svg" version="1.1">
 <metadata>
  <rdf:RDF xmlns:dc="http://purl.org/dc/elements/1.1/" xmlns:cc="http://creativecommons.org/ns#" xmlns:rdf="http://www.w3.org/1999/02/22-rdf-syntax-ns#">
   <cc:Work>
    <dc:type rdf:resource="http://purl.org/dc/dcmitype/StillImage"/>
    <dc:date>2026-03-03T16:03:48.605681</dc:date>
    <dc:format>image/svg+xml</dc:format>
    <dc:creator>
     <cc:Agent>
      <dc:title>Matplotlib v3.10.1, https://matplotlib.org/</dc:title>
     </cc:Agent>
    </dc:creator>
   </cc:Work>
  </rdf:RDF>
 </metadata>
 <defs>
  <style type="text/css">*{stroke-linejoin: round; stroke-linecap: butt}</style>
 </defs>
 <g id="figure_1">
  <g id="patch_1">
   <path d="M 0 135.034375 
L 346.19625 135.034375 
L 346.19625 0 
L 0 0 
z
" style="fill: #ffffff"/>
  </g>
  <g id="axes_1">
   <g id="patch_2">
    <path d="M 43.78125 97.478125 
L 326.27125 97.478125 
L 326.27125 22.318125 
L 43.78125 22.318125 
z
" style="fill: #ffffff"/>
   </g>
   <g id="matplotlib.axis_1">
    <g id="xtick_1">
     <g id="line2d_1">
      <defs>
       <path id="m24c1410ab9" d="M 0 0 
L 0 3.5 
" style="stroke: #000000; stroke-width: 0.8"/>
      </defs>
      <g>
       <use xlink:href="#m24c1410ab9" x="43.78125" y="97.478125" style="stroke: #000000; stroke-width: 0.8"/>
      </g>
     </g>
     <g id="text_1">
      <!-- 900 -->
      <g transform="translate(34.2375 112.076563) scale(0.1 -0.1)">
       <defs>
        <path id="DejaVuSans-39" d="M 703 97 
L 703 672 
Q 941 559 1184 500 
Q 1428 441 1663 441 
Q 2288 441 2617 861 
Q 2947 1281 2994 2138 
Q 2813 1869 2534 1725 
Q 2256 1581 1919 1581 
Q 1219 1581 811 2004 
Q 403 2428 403 3163 
Q 403 3881 828 4315 
Q 1253 4750 1959 4750 
Q 2769 4750 3195 4129 
Q 3622 3509 3622 2328 
Q 3622 1225 3098 567 
Q 2575 -91 1691 -91 
Q 1453 -91 1209 -44 
Q 966 3 703 97 
z
M 1959 2075 
Q 2384 2075 2632 2365 
Q 2881 2656 2881 3163 
Q 2881 3666 2632 3958 
Q 2384 4250 1959 4250 
Q 1534 4250 1286 3958 
Q 1038 3666 1038 3163 
Q 1038 2656 1286 2365 
Q 1534 2075 1959 2075 
z
" transform="scale(0.015625)"/>
        <path id="DejaVuSans-30" d="M 2034 4250 
Q 1547 4250 1301 3770 
Q 1056 3291 1056 2328 
Q 1056 1369 1301 889 
Q 1547 409 2034 409 
Q 2525 409 2770 889 
Q 3016 1369 3016 2328 
Q 3016 3291 2770 3770 
Q 2525 4250 2034 4250 
z
M 2034 4750 
Q 2819 4750 3233 4129 
Q 3647 3509 3647 2328 
Q 3647 1150 3233 529 
Q 2819 -91 2034 -91 
Q 1250 -91 836 529 
Q 422 1150 422 2328 
Q 422 3509 836 4129 
Q 1250 4750 2034 4750 
z
" transform="scale(0.015625)"/>
       </defs>
       <use xlink:href="#DejaVuSans-39"/>
       <use xlink:href="#DejaVuSans-30" transform="translate(63.623047 0)"/>
       <use xlink:href="#DejaVuSans-30" transform="translate(127.246094 0)"/>
      </g>
     </g>
    </g>
    <g id="xtick_2">
     <g id="line2d_2">
      <g>
       <use xlink:href="#m24c1410ab9" x="79.0925" y="97.478125" style="stroke: #000000; stroke-width: 0.8"/>
      </g>
     </g>
     <g id="text_2">
      <!-- 925 -->
      <g transform="translate(69.54875 112.076563) scale(0.1 -0.1)">
       <defs>
        <path id="DejaVuSans-32" d="M 1228 531 
L 3431 531 
L 3431 0 
L 469 0 
L 469 531 
Q 828 903 1448 1529 
Q 2069 2156 2228 2338 
Q 2531 2678 2651 2914 
Q 2772 3150 2772 3378 
Q 2772 3750 2511 3984 
Q 2250 4219 1831 4219 
Q 1534 4219 1204 4116 
Q 875 4013 500 3803 
L 500 4441 
Q 881 4594 1212 4672 
Q 1544 4750 1819 4750 
Q 2544 4750 2975 4387 
Q 3406 4025 3406 3419 
Q 3406 3131 3298 2873 
Q 3191 2616 2906 2266 
Q 2828 2175 2409 1742 
Q 1991 1309 1228 531 
z
" transform="scale(0.015625)"/>
        <path id="DejaVuSans-35" d="M 691 4666 
L 3169 4666 
L 3169 4134 
L 1269 4134 
L 1269 2991 
Q 1406 3038 1543 3061 
Q 1681 3084 1819 3084 
Q 2600 3084 3056 2656 
Q 3513 2228 3513 1497 
Q 3513 744 3044 326 
Q 2575 -91 1722 -91 
Q 1428 -91 1123 -41 
Q 819 9 494 109 
L 494 744 
Q 775 591 1075 516 
Q 1375 441 1709 441 
Q 2250 441 2565 725 
Q 2881 1009 2881 1497 
Q 2881 1984 2565 2268 
Q 2250 2553 1709 2553 
Q 1456 2553 1204 2497 
Q 953 2441 691 2322 
L 691 4666 
z
" transform="scale(0.015625)"/>
       </defs>
       <use xlink:href="#DejaVuSans-39"/>
       <use xlink:href="#DejaVuSans-32" transform="translate(63.623047 0)"/>
       <use xlink:href="#DejaVuSans-35" transform="translate(127.246094 0)"/>
      </g>
     </g>
    </g>
    <g id="xtick_3">
     <g id="line2d_3">
      <g>
       <use xlink:href="#m24c1410ab9" x="114.40375" y="97.478125" style="stroke: #000000; stroke-width: 0.8"/>
      </g>
     </g>
     <g id="text_3">
      <!-- 950 -->
      <g transform="translate(104.86 112.076563) scale(0.1 -0.1)">
       <use xlink:href="#DejaVuSans-39"/>
       <use xlink:href="#DejaVuSans-35" transform="translate(63.623047 0)"/>
       <use xlink:href="#DejaVuSans-30" transform="translate(127.246094 0)"/>
      </g>
     </g>
    </g>
    <g id="xtick_4">
     <g id="line2d_4">
      <g>
       <use xlink:href="#m24c1410ab9" x="149.715" y="97.478125" style="stroke: #000000; stroke-width: 0.8"/>
      </g>
     </g>
     <g id="text_4">
      <!-- 975 -->
      <g transform="translate(140.17125 112.076563) scale(0.1 -0.1)">
       <defs>
        <path id="DejaVuSans-37" d="M 525 4666 
L 3525 4666 
L 3525 4397 
L 1831 0 
L 1172 0 
L 2766 4134 
L 525 4134 
L 525 4666 
z
" transform="scale(0.015625)"/>
       </defs>
       <use xlink:href="#DejaVuSans-39"/>
       <use xlink:href="#DejaVuSans-37" transform="translate(63.623047 0)"/>
       <use xlink:href="#DejaVuSans-35" transform="translate(127.246094 0)"/>
      </g>
     </g>
    </g>
    <g id="xtick_5">
     <g id="line2d_5">
      <g>
       <use xlink:href="#m24c1410ab9" x="185.02625" y="97.478125" style="stroke: #000000; stroke-width: 0.8"/>
      </g>
     </g>
     <g id="text_5">
      <!-- 1000 -->
      <g transform="translate(172.30125 112.076563) scale(0.1 -0.1)">
       <defs>
        <path id="DejaVuSans-31" d="M 794 531 
L 1825 531 
L 1825 4091 
L 703 3866 
L 703 4441 
L 1819 4666 
L 2450 4666 
L 2450 531 
L 3481 531 
L 3481 0 
L 794 0 
L 794 531 
z
" transform="scale(0.015625)"/>
       </defs>
       <use xlink:href="#DejaVuSans-31"/>
       <use xlink:href="#DejaVuSans-30" transform="translate(63.623047 0)"/>
       <use xlink:href="#DejaVuSans-30" transform="translate(127.246094 0)"/>
       <use xlink:href="#DejaVuSans-30" transform="translate(190.869141 0)"/>
      </g>
     </g>
    </g>
    <g id="xtick_6">
     <g id="line2d_6">
      <g>
       <use xlink:href="#m24c1410ab9" x="220.3375" y="97.478125" style="stroke: #000000; stroke-width: 0.8"/>
      </g>
     </g>
     <g id="text_6">
      <!-- 1025 -->
      <g transform="translate(207.6125 112.076563) scale(0.1 -0.1)">
       <use xlink:href="#DejaVuSans-31"/>
       <use xlink:href="#DejaVuSans-30" transform="translate(63.623047 0)"/>
       <use xlink:href="#DejaVuSans-32" transform="translate(127.246094 0)"/>
       <use xlink:href="#DejaVuSans-35" transform="translate(190.869141 0)"/>
      </g>
     </g>
    </g>
    <g id="xtick_7">
     <g id="line2d_7">
      <g>
       <use xlink:href="#m24c1410ab9" x="255.64875" y="97.478125" style="stroke: #000000; stroke-width: 0.8"/>
      </g>
     </g>
     <g id="text_7">
      <!-- 1050 -->
      <g transform="translate(242.92375 112.076563) scale(0.1 -0.1)">
       <use xlink:href="#DejaVuSans-31"/>
       <use xlink:href="#DejaVuSans-30" transform="translate(63.623047 0)"/>
       <use xlink:href="#DejaVuSans-35" transform="translate(127.246094 0)"/>
       <use xlink:href="#DejaVuSans-30" transform="translate(190.869141 0)"/>
      </g>
     </g>
    </g>
    <g id="xtick_8">
     <g id="line2d_8">
      <g>
       <use xlink:href="#m24c1410ab9" x="290.96" y="97.478125" style="stroke: #000000; stroke-width: 0.8"/>
      </g>
     </g>
     <g id="text_8">
      <!-- 1075 -->
      <g transform="translate(278.235 112.076563) scale(0.1 -0.1)">
       <use xlink:href="#DejaVuSans-31"/>
       <use xlink:href="#DejaVuSans-30" transform="translate(63.623047 0)"/>
       <use xlink:href="#DejaVuSans-37" transform="translate(127.246094 0)"/>
       <use xlink:href="#DejaVuSans-35" transform="translate(190.869141 0)"/>
      </g>
     </g>
    </g>
    <g id="xtick_9">
     <g id="line2d_9">
      <g>
       <use xlink:href="#m24c1410ab9" x="326.27125" y="97.478125" style="stroke: #000000; stroke-width: 0.8"/>
      </g>
     </g>
     <g id="text_9">
      <!-- 1100 -->
      <g transform="translate(313.54625 112.076563) scale(0.1 -0.1)">
       <use xlink:href="#DejaVuSans-31"/>
       <use xlink:href="#DejaVuSans-31" transform="translate(63.623047 0)"/>
       <use xlink:href="#DejaVuSans-30" transform="translate(127.246094 0)"/>
       <use xlink:href="#DejaVuSans-30" transform="translate(190.869141 0)"/>
      </g>
     </g>
    </g>
    <g id="text_10">
     <!-- Energy (eV) -->
     <g transform="translate(155.5325 125.754688) scale(0.1 -0.1)">
      <defs>
       <path id="DejaVuSans-45" d="M 628 4666 
L 3578 4666 
L 3578 4134 
L 1259 4134 
L 1259 2753 
L 3481 2753 
L 3481 2222 
L 1259 2222 
L 1259 531 
L 3634 531 
L 3634 0 
L 628 0 
L 628 4666 
z
" transform="scale(0.015625)"/>
       <path id="DejaVuSans-6e" d="M 3513 2113 
L 3513 0 
L 2938 0 
L 2938 2094 
Q 2938 2591 2744 2837 
Q 2550 3084 2163 3084 
Q 1697 3084 1428 2787 
Q 1159 2491 1159 1978 
L 1159 0 
L 581 0 
L 581 3500 
L 1159 3500 
L 1159 2956 
Q 1366 3272 1645 3428 
Q 1925 3584 2291 3584 
Q 2894 3584 3203 3211 
Q 3513 2838 3513 2113 
z
" transform="scale(0.015625)"/>
       <path id="DejaVuSans-65" d="M 3597 1894 
L 3597 1613 
L 953 1613 
Q 991 1019 1311 708 
Q 1631 397 2203 397 
Q 2534 397 2845 478 
Q 3156 559 3463 722 
L 3463 178 
Q 3153 47 2828 -22 
Q 2503 -91 2169 -91 
Q 1331 -91 842 396 
Q 353 884 353 1716 
Q 353 2575 817 3079 
Q 1281 3584 2069 3584 
Q 2775 3584 3186 3129 
Q 3597 2675 3597 1894 
z
M 3022 2063 
Q 3016 2534 2758 2815 
Q 2500 3097 2075 3097 
Q 1594 3097 1305 2825 
Q 1016 2553 972 2059 
L 3022 2063 
z
" transform="scale(0.015625)"/>
       <path id="DejaVuSans-72" d="M 2631 2963 
Q 2534 3019 2420 3045 
Q 2306 3072 2169 3072 
Q 1681 3072 1420 2755 
Q 1159 2438 1159 1844 
L 1159 0 
L 581 0 
L 581 3500 
L 1159 3500 
L 1159 2956 
Q 1341 3275 1631 3429 
Q 1922 3584 2338 3584 
Q 2397 3584 2469 3576 
Q 2541 3569 2628 3553 
L 2631 2963 
z
" transform="scale(0.015625)"/>
       <path id="DejaVuSans-67" d="M 2906 1791 
Q 2906 2416 2648 2759 
Q 2391 3103 1925 3103 
Q 1463 3103 1205 2759 
Q 947 2416 947 1791 
Q 947 1169 1205 825 
Q 1463 481 1925 481 
Q 2391 481 2648 825 
Q 2906 1169 2906 1791 
z
M 3481 434 
Q 3481 -459 3084 -895 
Q 2688 -1331 1869 -1331 
Q 1566 -1331 1297 -1286 
Q 1028 -1241 775 -1147 
L 775 -588 
Q 1028 -725 1275 -790 
Q 1522 -856 1778 -856 
Q 2344 -856 2625 -561 
Q 2906 -266 2906 331 
L 2906 616 
Q 2728 306 2450 153 
Q 2172 0 1784 0 
Q 1141 0 747 490 
Q 353 981 353 1791 
Q 353 2603 747 3093 
Q 1141 3584 1784 3584 
Q 2172 3584 2450 3431 
Q 2728 3278 2906 2969 
L 2906 3500 
L 3481 3500 
L 3481 434 
z
" transform="scale(0.015625)"/>
       <path id="DejaVuSans-79" d="M 2059 -325 
Q 1816 -950 1584 -1140 
Q 1353 -1331 966 -1331 
L 506 -1331 
L 506 -850 
L 844 -850 
Q 1081 -850 1212 -737 
Q 1344 -625 1503 -206 
L 1606 56 
L 191 3500 
L 800 3500 
L 1894 763 
L 2988 3500 
L 3597 3500 
L 2059 -325 
z
" transform="scale(0.015625)"/>
       <path id="DejaVuSans-20" transform="scale(0.015625)"/>
       <path id="DejaVuSans-28" d="M 1984 4856 
Q 1566 4138 1362 3434 
Q 1159 2731 1159 2009 
Q 1159 1288 1364 580 
Q 1569 -128 1984 -844 
L 1484 -844 
Q 1016 -109 783 600 
Q 550 1309 550 2009 
Q 550 2706 781 3412 
Q 1013 4119 1484 4856 
L 1984 4856 
z
" transform="scale(0.015625)"/>
       <path id="DejaVuSans-56" d="M 1831 0 
L 50 4666 
L 709 4666 
L 2188 738 
L 3669 4666 
L 4325 4666 
L 2547 0 
L 1831 0 
z
" transform="scale(0.015625)"/>
       <path id="DejaVuSans-29" d="M 513 4856 
L 1013 4856 
Q 1481 4119 1714 3412 
Q 1947 2706 1947 2009 
Q 1947 1309 1714 600 
Q 1481 -109 1013 -844 
L 513 -844 
Q 928 -128 1133 580 
Q 1338 1288 1338 2009 
Q 1338 2731 1133 3434 
Q 928 4138 513 4856 
z
" transform="scale(0.015625)"/>
      </defs>
      <use xlink:href="#DejaVuSans-45"/>
      <use xlink:href="#DejaVuSans-6e" transform="translate(63.183594 0)"/>
      <use xlink:href="#DejaVuSans-65" transform="translate(126.5625 0)"/>
      <use xlink:href="#DejaVuSans-72" transform="translate(188.085938 0)"/>
      <use xlink:href="#DejaVuSans-67" transform="translate(227.449219 0)"/>
      <use xlink:href="#DejaVuSans-79" transform="translate(290.925781 0)"/>
      <use xlink:href="#DejaVuSans-20" transform="translate(350.105469 0)"/>
      <use xlink:href="#DejaVuSans-28" transform="translate(381.892578 0)"/>
      <use xlink:href="#DejaVuSans-65" transform="translate(420.90625 0)"/>
      <use xlink:href="#DejaVuSans-56" transform="translate(482.429688 0)"/>
      <use xlink:href="#DejaVuSans-29" transform="translate(550.837891 0)"/>
     </g>
    </g>
   </g>
   <g id="matplotlib.axis_2">
    <g id="ytick_1">
     <g id="line2d_10">
      <defs>
       <path id="m5d2aee2b89" d="M 0 0 
L -3.5 0 
" style="stroke: #000000; stroke-width: 0.8"/>
      </defs>
      <g>
       <use xlink:href="#m5d2aee2b89" x="43.78125" y="94.061761" style="stroke: #000000; stroke-width: 0.8"/>
      </g>
     </g>
     <g id="text_11">
      <!-- 0.0 -->
      <g transform="translate(20.878125 97.86098) scale(0.1 -0.1)">
       <defs>
        <path id="DejaVuSans-2e" d="M 684 794 
L 1344 794 
L 1344 0 
L 684 0 
L 684 794 
z
" transform="scale(0.015625)"/>
       </defs>
       <use xlink:href="#DejaVuSans-30"/>
       <use xlink:href="#DejaVuSans-2e" transform="translate(63.623047 0)"/>
       <use xlink:href="#DejaVuSans-30" transform="translate(95.410156 0)"/>
      </g>
     </g>
    </g>
    <g id="ytick_2">
     <g id="line2d_11">
      <g>
       <use xlink:href="#m5d2aee2b89" x="43.78125" y="59.898125" style="stroke: #000000; stroke-width: 0.8"/>
      </g>
     </g>
     <g id="text_12">
      <!-- 0.5 -->
      <g transform="translate(20.878125 63.697344) scale(0.1 -0.1)">
       <use xlink:href="#DejaVuSans-30"/>
       <use xlink:href="#DejaVuSans-2e" transform="translate(63.623047 0)"/>
       <use xlink:href="#DejaVuSans-35" transform="translate(95.410156 0)"/>
      </g>
     </g>
    </g>
    <g id="ytick_3">
     <g id="line2d_12">
      <g>
       <use xlink:href="#m5d2aee2b89" x="43.78125" y="25.734489" style="stroke: #000000; stroke-width: 0.8"/>
      </g>
     </g>
     <g id="text_13">
      <!-- 1.0 -->
      <g transform="translate(20.878125 29.533707) scale(0.1 -0.1)">
       <use xlink:href="#DejaVuSans-31"/>
       <use xlink:href="#DejaVuSans-2e" transform="translate(63.623047 0)"/>
       <use xlink:href="#DejaVuSans-30" transform="translate(95.410156 0)"/>
      </g>
     </g>
    </g>
    <g id="text_14">
     <!-- Intensity (a.u.) -->
     <g transform="translate(14.798438 96.562187) rotate(-90) scale(0.1 -0.1)">
      <defs>
       <path id="DejaVuSans-49" d="M 628 4666 
L 1259 4666 
L 1259 0 
L 628 0 
L 628 4666 
z
" transform="scale(0.015625)"/>
       <path id="DejaVuSans-74" d="M 1172 4494 
L 1172 3500 
L 2356 3500 
L 2356 3053 
L 1172 3053 
L 1172 1153 
Q 1172 725 1289 603 
Q 1406 481 1766 481 
L 2356 481 
L 2356 0 
L 1766 0 
Q 1100 0 847 248 
Q 594 497 594 1153 
L 594 3053 
L 172 3053 
L 172 3500 
L 594 3500 
L 594 4494 
L 1172 4494 
z
" transform="scale(0.015625)"/>
       <path id="DejaVuSans-73" d="M 2834 3397 
L 2834 2853 
Q 2591 2978 2328 3040 
Q 2066 3103 1784 3103 
Q 1356 3103 1142 2972 
Q 928 2841 928 2578 
Q 928 2378 1081 2264 
Q 1234 2150 1697 2047 
L 1894 2003 
Q 2506 1872 2764 1633 
Q 3022 1394 3022 966 
Q 3022 478 2636 193 
Q 2250 -91 1575 -91 
Q 1294 -91 989 -36 
Q 684 19 347 128 
L 347 722 
Q 666 556 975 473 
Q 1284 391 1588 391 
Q 1994 391 2212 530 
Q 2431 669 2431 922 
Q 2431 1156 2273 1281 
Q 2116 1406 1581 1522 
L 1381 1569 
Q 847 1681 609 1914 
Q 372 2147 372 2553 
Q 372 3047 722 3315 
Q 1072 3584 1716 3584 
Q 2034 3584 2315 3537 
Q 2597 3491 2834 3397 
z
" transform="scale(0.015625)"/>
       <path id="DejaVuSans-69" d="M 603 3500 
L 1178 3500 
L 1178 0 
L 603 0 
L 603 3500 
z
M 603 4863 
L 1178 4863 
L 1178 4134 
L 603 4134 
L 603 4863 
z
" transform="scale(0.015625)"/>
       <path id="DejaVuSans-61" d="M 2194 1759 
Q 1497 1759 1228 1600 
Q 959 1441 959 1056 
Q 959 750 1161 570 
Q 1363 391 1709 391 
Q 2188 391 2477 730 
Q 2766 1069 2766 1631 
L 2766 1759 
L 2194 1759 
z
M 3341 1997 
L 3341 0 
L 2766 0 
L 2766 531 
Q 2569 213 2275 61 
Q 1981 -91 1556 -91 
Q 1019 -91 701 211 
Q 384 513 384 1019 
Q 384 1609 779 1909 
Q 1175 2209 1959 2209 
L 2766 2209 
L 2766 2266 
Q 2766 2663 2505 2880 
Q 2244 3097 1772 3097 
Q 1472 3097 1187 3025 
Q 903 2953 641 2809 
L 641 3341 
Q 956 3463 1253 3523 
Q 1550 3584 1831 3584 
Q 2591 3584 2966 3190 
Q 3341 2797 3341 1997 
z
" transform="scale(0.015625)"/>
       <path id="DejaVuSans-75" d="M 544 1381 
L 544 3500 
L 1119 3500 
L 1119 1403 
Q 1119 906 1312 657 
Q 1506 409 1894 409 
Q 2359 409 2629 706 
Q 2900 1003 2900 1516 
L 2900 3500 
L 3475 3500 
L 3475 0 
L 2900 0 
L 2900 538 
Q 2691 219 2414 64 
Q 2138 -91 1772 -91 
Q 1169 -91 856 284 
Q 544 659 544 1381 
z
M 1991 3584 
L 1991 3584 
z
" transform="scale(0.015625)"/>
      </defs>
      <use xlink:href="#DejaVuSans-49"/>
      <use xlink:href="#DejaVuSans-6e" transform="translate(29.492188 0)"/>
      <use xlink:href="#DejaVuSans-74" transform="translate(92.871094 0)"/>
      <use xlink:href="#DejaVuSans-65" transform="translate(132.080078 0)"/>
      <use xlink:href="#DejaVuSans-6e" transform="translate(193.603516 0)"/>
      <use xlink:href="#DejaVuSans-73" transform="translate(256.982422 0)"/>
      <use xlink:href="#DejaVuSans-69" transform="translate(309.082031 0)"/>
      <use xlink:href="#DejaVuSans-74" transform="translate(336.865234 0)"/>
      <use xlink:href="#DejaVuSans-79" transform="translate(376.074219 0)"/>
      <use xlink:href="#DejaVuSans-20" transform="translate(435.253906 0)"/>
      <use xlink:href="#DejaVuSans-28" transform="translate(467.041016 0)"/>
      <use xlink:href="#DejaVuSans-61" transform="translate(506.054688 0)"/>
      <use xlink:href="#DejaVuSans-2e" transform="translate(567.333984 0)"/>
      <use xlink:href="#DejaVuSans-75" transform="translate(599.121094 0)"/>
      <use xlink:href="#DejaVuSans-2e" transform="translate(662.5 0)"/>
      <use xlink:href="#DejaVuSans-29" transform="translate(694.287109 0)"/>
     </g>
    </g>
   </g>
   <g id="line2d_13">
    <path d="M 43.773306 93.674629 
L 43.903358 93.62549 
L 44.163451 93.761155 
L 44.423556 93.671611 
L 44.553608 93.581842 
L 44.813701 93.590844 
L 45.203846 93.659016 
L 45.333899 93.448126 
L 45.724044 93.660658 
L 45.984149 93.536559 
L 46.244241 93.536725 
L 46.504347 93.616596 
L 46.634399 93.673161 
L 46.894492 93.471159 
L 47.154597 93.638928 
L 47.414689 93.443429 
L 47.674794 93.277443 
L 47.804847 93.550153 
L 48.064939 93.326816 
L 48.325045 93.400232 
L 48.71519 93.286159 
L 48.975282 93.312902 
L 49.36544 93.032626 
L 49.49548 93.019548 
L 49.625532 92.877361 
L 49.755585 92.915854 
L 50.405835 92.472048 
L 50.535888 92.508811 
L 50.665928 92.732222 
L 50.926033 92.543899 
L 51.056085 92.70461 
L 51.316178 92.533248 
L 51.446231 92.87921 
L 51.576283 92.716927 
L 52.096481 93.047752 
L 52.356573 92.619195 
L 52.746718 93.110544 
L 53.136876 93.065325 
L 53.266928 92.669189 
L 53.657074 92.861703 
L 53.917166 92.456083 
L 54.047219 92.782383 
L 54.177271 92.720944 
L 54.437364 92.967828 
L 54.827521 92.76458 
L 55.087614 92.729179 
L 55.347719 92.564518 
L 55.477759 92.896001 
L 55.867917 92.645636 
L 56.258062 93.120374 
L 56.388114 92.837715 
L 56.648207 92.912752 
L 56.77826 93.079577 
L 56.908312 92.861564 
L 57.42851 93.182054 
L 57.558562 93.079848 
L 57.818655 93.243603 
L 58.07876 93.117604 
L 58.2088 93.107307 
L 58.338853 93.28328 
L 58.468905 93.19195 
L 58.598958 93.276004 
L 58.85905 93.233256 
L 60.029498 93.213693 
L 60.159551 93.085473 
L 60.289603 93.142729 
L 60.549696 92.920173 
L 60.679748 93.046038 
L 61.460039 92.723162 
L 61.980236 92.169127 
L 62.370394 91.197367 
L 62.760539 90.562131 
L 62.890591 89.985082 
L 63.020644 90.016419 
L 63.150684 89.806858 
L 63.280737 88.933016 
L 63.410789 89.414459 
L 63.540842 89.22257 
L 63.800934 88.247394 
L 63.930987 88.911175 
L 64.061039 88.917273 
L 64.191079 88.550241 
L 64.321132 88.733274 
L 64.451184 88.635167 
L 64.711277 87.951472 
L 64.971382 88.104479 
L 65.101435 87.929589 
L 65.231475 88.405294 
L 65.49158 88.138407 
L 65.621632 88.283661 
L 66.011777 87.636554 
L 66.14183 87.814184 
L 66.271882 87.033797 
L 67.052173 89.609242 
L 67.312278 89.260013 
L 67.44233 89.289111 
L 67.70241 90.162434 
L 67.832463 90.235687 
L 68.092568 91.173873 
L 68.222621 91.082936 
L 68.352673 91.067321 
L 68.872858 91.604998 
L 69.002911 91.188176 
L 69.132963 91.578023 
L 69.393068 90.736128 
L 69.523121 91.062614 
L 69.913254 90.578413 
L 70.043306 90.483183 
L 70.173359 90.788364 
L 70.433464 89.587111 
L 70.563516 89.418255 
L 70.823621 89.433484 
L 71.083701 88.620216 
L 71.343807 87.660213 
L 72.124097 84.28312 
L 72.904412 75.29431 
L 74.85515 25.734489 
L 74.985203 29.441893 
L 75.115255 29.727099 
L 75.245283 30.820728 
L 75.765493 48.565737 
L 76.025598 56.496159 
L 76.15565 56.492764 
L 76.285703 57.52305 
L 77.065993 76.770594 
L 77.846283 86.682898 
L 78.106388 87.494144 
L 78.236441 87.474681 
L 78.626574 89.494426 
L 78.886679 90.170891 
L 79.016731 90.663695 
L 79.146784 90.275766 
L 79.406889 91.080602 
L 79.666969 91.017905 
L 79.927074 91.892938 
L 80.187179 91.923171 
L 80.317232 91.638184 
L 80.447284 91.665112 
L 80.837417 92.358821 
L 80.967469 92.411416 
L 81.097522 92.284112 
L 81.357627 92.672663 
L 81.617732 92.273081 
L 81.74776 92.61308 
L 82.007865 92.3805 
L 82.398022 92.872901 
L 82.918208 93.00435 
L 83.438418 93.150657 
L 83.56847 93.05704 
L 83.958603 93.120566 
L 84.088655 92.816812 
L 84.478813 93.046509 
L 84.608865 93.199515 
L 84.738918 92.98703 
L 84.86897 93.242733 
L 84.998998 93.238039 
L 85.129051 93.101987 
L 85.259103 93.289067 
L 85.389156 92.99228 
L 85.779313 93.412849 
L 85.909366 93.275807 
L 86.039418 92.919358 
L 86.429551 93.243374 
L 87.860104 93.351547 
L 87.990156 93.502587 
L 88.380289 93.349868 
L 88.640394 93.437657 
L 88.770447 93.342474 
L 88.900499 93.625936 
L 89.160604 93.414025 
L 89.290657 93.427594 
L 89.550737 93.256937 
L 89.810842 93.517073 
L 90.070947 93.366386 
L 90.591132 93.317287 
L 90.721185 93.225457 
L 90.98129 93.489696 
L 91.241395 93.522664 
L 91.76158 93.406749 
L 91.891633 93.540582 
L 92.28179 93.39877 
L 92.411843 93.302089 
L 92.671923 93.417613 
L 93.062081 93.445578 
L 93.192133 93.528812 
L 93.452238 93.276606 
L 93.582291 93.6178 
L 93.842371 93.588575 
L 93.972423 93.465634 
L 94.102476 93.607168 
L 94.752714 93.374541 
L 94.882766 93.457264 
L 95.012819 93.371869 
L 95.272924 93.507362 
L 95.533029 93.492307 
L 95.793134 93.647455 
L 96.183267 93.423813 
L 96.313319 93.578825 
L 96.573424 93.603646 
L 96.703477 93.687336 
L 97.353714 93.387665 
L 97.613819 93.633215 
L 97.743872 93.652409 
L 97.873924 93.4475 
L 98.134005 93.536296 
L 98.39411 93.552597 
L 98.524162 93.652623 
L 98.654215 93.589129 
L 98.784267 93.691739 
L 98.91432 93.53665 
L 99.434505 93.628135 
L 99.564558 93.411976 
L 99.824663 93.76341 
L 99.954715 93.655557 
L 100.084768 93.377466 
L 100.344848 93.580068 
L 100.99511 93.65759 
L 101.125163 93.534006 
L 101.515296 93.601957 
L 101.645348 93.549618 
L 101.775401 93.648058 
L 102.165558 93.580299 
L 102.295611 93.549731 
L 102.425638 93.676799 
L 102.685743 93.624913 
L 102.815796 93.752788 
L 103.466034 93.577642 
L 103.856191 93.712871 
L 104.246349 93.518509 
L 104.766534 93.711473 
L 105.416797 93.658864 
L 105.546849 93.758466 
L 105.676877 93.514222 
L 105.806929 93.566701 
L 106.067034 93.733496 
L 106.327139 93.734506 
L 106.457192 93.723566 
L 106.587245 93.555402 
L 106.847325 93.691622 
L 107.62764 93.554189 
L 107.757668 93.695535 
L 108.277878 93.572997 
L 108.537983 93.684441 
L 108.928115 93.681142 
L 109.318273 93.571996 
L 109.708431 93.603638 
L 109.968511 93.709735 
L 110.098563 93.760533 
L 110.228616 93.616968 
L 110.618773 93.71218 
L 110.878878 93.68515 
L 111.399064 93.727472 
L 111.529116 93.578818 
L 111.789221 93.554327 
L 112.049326 93.622711 
L 112.309406 93.736874 
L 112.439459 93.65215 
L 112.699564 93.797781 
L 113.479854 93.699187 
L 114.000064 93.680754 
L 114.130117 93.567778 
L 114.52025 93.737354 
L 114.650302 93.651389 
L 114.780355 93.737583 
L 114.910407 93.597505 
L 115.170512 93.592246 
L 115.430592 93.490909 
L 115.690697 93.584857 
L 116.080855 93.688323 
L 116.210907 93.759855 
L 116.470988 93.72104 
L 116.731093 93.664776 
L 117.381355 93.746923 
L 117.511383 93.575861 
L 117.771488 93.617464 
L 118.421751 93.711298 
L 118.681831 93.492391 
L 118.941936 93.748026 
L 119.202041 93.66663 
L 119.332093 93.735575 
L 119.592198 93.623076 
L 119.982331 93.763242 
L 120.502541 93.695955 
L 121.152779 93.770484 
L 121.412884 93.774885 
L 121.672989 93.824346 
L 121.933069 93.534901 
L 122.063122 93.749301 
L 122.323227 93.665742 
L 122.453279 93.760296 
L 122.583332 93.581882 
L 123.23357 93.806125 
L 123.75378 93.714889 
L 124.273965 93.762457 
L 124.404018 93.596378 
L 124.53407 93.781002 
L 125.05428 93.667757 
L 125.444413 93.76452 
L 125.704518 93.772288 
L 125.964623 93.651467 
L 126.354756 93.803379 
L 127.525203 93.735241 
L 127.785308 93.82427 
L 128.045413 93.775943 
L 128.695651 93.75979 
L 128.955756 93.763033 
L 129.215861 93.838973 
L 129.866099 93.789597 
L 129.996152 93.66899 
L 130.386309 93.728462 
L 130.906494 93.679673 
L 131.296652 93.828193 
L 132.206995 93.732377 
L 134.02768 93.644348 
L 134.157733 93.784922 
L 134.417838 93.736173 
L 135.588286 93.785169 
L 135.978419 93.748498 
L 136.238524 93.791683 
L 136.368576 93.852291 
L 136.498629 93.681573 
L 137.148866 93.805344 
L 137.408971 93.829012 
L 137.669076 93.782113 
L 137.929181 93.627636 
L 138.319314 93.706068 
L 139.35971 93.663361 
L 139.749867 93.798941 
L 140.140025 93.703948 
L 140.530157 93.721001 
L 141.050367 93.659785 
L 141.18042 93.752781 
L 141.310472 93.634742 
L 141.4405 93.795917 
L 141.700605 93.697684 
L 141.96071 93.77661 
L 142.090763 93.719299 
L 142.220815 93.85316 
L 142.480895 93.742185 
L 143.261211 93.753917 
L 143.911448 93.785893 
L 144.041501 93.650715 
L 144.171553 93.781465 
L 144.561711 93.700585 
L 145.211949 93.778621 
L 145.602106 93.70068 
L 145.732134 93.822857 
L 145.992239 93.620446 
L 146.252344 93.70588 
L 146.902582 93.793472 
L 147.032634 93.72859 
L 147.292739 93.797585 
L 147.552844 93.728856 
L 147.682897 93.776503 
L 147.942977 93.685586 
L 148.07303 93.81805 
L 148.463187 93.665586 
L 148.723292 93.813066 
L 150.15382 93.767092 
L 150.543978 93.757301 
L 150.934135 93.718417 
L 151.194216 93.765619 
L 152.104583 93.70968 
L 152.364663 93.805419 
L 153.925269 93.784341 
L 154.315426 93.802538 
L 154.705559 93.649566 
L 154.965664 93.801501 
L 155.095717 93.596241 
L 155.225769 93.821779 
L 155.355822 93.733902 
L 155.485849 93.839274 
L 155.745954 93.768295 
L 156.526245 93.831227 
L 156.916402 93.746164 
L 157.176507 93.782354 
L 158.08685 93.790755 
L 159.38735 93.838272 
L 159.517403 93.714445 
L 159.647456 93.846808 
L 160.297693 93.747725 
L 160.687851 93.810095 
L 160.817903 93.701994 
L 161.208036 93.836949 
L 163.418879 93.848143 
L 163.678984 93.897192 
L 163.939089 93.8004 
L 164.19917 93.781741 
L 164.329222 93.921533 
L 164.71938 93.85209 
L 164.979485 93.882309 
L 165.109537 93.851266 
L 165.239565 93.69685 
L 165.49967 93.829405 
L 165.759775 93.797358 
L 166.80017 93.813454 
L 167.060275 93.788649 
L 167.32038 93.84804 
L 167.450408 93.765122 
L 167.710513 93.787183 
L 167.970618 93.810167 
L 168.490803 93.774524 
L 168.750908 93.929177 
L 168.880961 93.775657 
L 169.271118 93.861862 
L 169.531199 93.79461 
L 169.661251 93.886734 
L 169.921356 93.775746 
L 170.311514 93.811198 
L 170.571619 93.837936 
L 170.701646 93.840843 
L 170.831699 93.727603 
L 171.091804 93.829719 
L 171.351909 93.839922 
L 171.742042 93.783587 
L 173.172595 93.786054 
L 173.302647 93.738096 
L 173.562752 93.780207 
L 173.952885 93.777313 
L 174.082937 93.675454 
L 174.473095 93.888071 
L 174.7332 93.848087 
L 174.863253 93.893273 
L 175.253385 93.71513 
L 177.204123 93.847733 
L 177.464229 93.778116 
L 177.724334 93.815519 
L 178.894781 93.804314 
L 179.154886 93.881483 
L 179.284914 93.85378 
L 179.414967 93.704909 
L 179.805124 93.824584 
L 179.935177 93.772785 
L 180.325334 93.889779 
L 180.715467 93.823082 
L 180.845519 93.839685 
L 180.975572 93.740286 
L 181.105624 93.841854 
L 181.495757 93.761913 
L 181.755862 93.722489 
L 182.015967 93.774034 
L 182.14602 93.921741 
L 182.536153 93.74052 
L 183.056363 93.811946 
L 183.186415 93.716739 
L 183.316468 93.832946 
L 183.7066 93.702063 
L 183.966705 93.887906 
L 184.22681 93.736278 
L 185.007101 93.839027 
L 185.397258 93.804113 
L 185.787391 93.83569 
L 186.047496 93.763071 
L 186.177549 93.701986 
L 186.307601 93.861039 
L 187.478049 93.745159 
L 187.868207 93.729698 
L 188.648497 93.636551 
L 189.298735 93.630671 
L 189.688892 93.713863 
L 190.33913 93.624322 
L 190.469182 93.717639 
L 190.599235 93.631135 
L 190.729287 93.744978 
L 191.119445 93.635019 
L 191.509578 93.632172 
L 191.63963 93.660675 
L 191.769683 93.818268 
L 192.549973 93.630344 
L 192.810078 93.762484 
L 193.330288 93.676973 
L 193.980526 93.717822 
L 194.110578 93.647392 
L 194.370683 93.676391 
L 195.281026 93.711127 
L 195.411079 93.681389 
L 195.541106 93.5302 
L 196.061317 93.665285 
L 196.321422 93.759982 
L 196.451474 93.813727 
L 196.581527 93.705896 
L 196.841607 93.719868 
L 197.361817 93.612034 
L 197.491869 93.724144 
L 197.75195 93.711555 
L 198.012055 93.803844 
L 198.142107 93.801604 
L 198.27216 93.667336 
L 198.402212 93.867629 
L 198.792345 93.688991 
L 199.05245 93.816161 
L 199.182503 93.717959 
L 199.312555 93.885685 
L 199.702713 93.679463 
L 199.832765 93.768546 
L 200.092845 93.758817 
L 200.483003 93.813752 
L 200.743108 93.695109 
L 200.87316 93.782613 
L 201.133241 93.630078 
L 201.393346 93.758678 
L 201.523398 93.823822 
L 201.653451 93.617051 
L 202.043583 93.780842 
L 203.344084 93.735645 
L 203.474136 93.819098 
L 203.734241 93.759997 
L 204.124399 93.68546 
L 204.774637 93.63024 
L 205.034742 93.787131 
L 205.424874 93.736021 
L 205.684979 93.754995 
L 205.815032 93.68266 
L 206.20519 93.837439 
L 206.335242 93.715533 
L 206.595322 93.758568 
L 206.725375 93.793745 
L 206.855427 93.684158 
L 206.98548 93.887367 
L 207.245585 93.772077 
L 207.375637 93.712022 
L 207.635718 93.843123 
L 207.895823 93.74873 
L 209.196323 93.804162 
L 209.456428 93.579848 
L 209.586481 93.53804 
L 209.846561 93.812147 
L 210.106666 93.64649 
L 211.537219 93.469801 
L 211.797299 93.382557 
L 212.187456 93.476544 
L 212.447561 93.224424 
L 212.577614 93.317806 
L 212.707667 93.216458 
L 212.837719 93.265358 
L 212.967747 92.940223 
L 213.227852 92.946161 
L 213.748062 92.715548 
L 214.008142 92.198356 
L 214.3983 92.123767 
L 214.658405 91.585608 
L 214.788457 91.492543 
L 214.91851 91.258087 
L 215.17859 90.370632 
L 215.308642 90.378913 
L 215.438695 90.011322 
L 215.568747 90.238018 
L 215.6988 89.586269 
L 215.828852 89.814813 
L 215.958905 89.329444 
L 216.218985 89.345462 
L 216.349038 89.662858 
L 216.47909 89.60237 
L 216.609143 89.825846 
L 216.869248 89.376443 
L 216.9993 89.452999 
L 217.259381 89.863964 
L 217.389433 89.828562 
L 217.519486 90.202841 
L 217.649538 89.564071 
L 217.779591 90.045452 
L 217.909643 89.497146 
L 218.039696 89.73773 
L 218.299776 90.495322 
L 218.429828 90.678443 
L 218.559881 90.485103 
L 218.689933 91.07052 
L 218.819986 91.037161 
L 219.080091 91.584417 
L 219.340196 91.368763 
L 219.730329 92.349915 
L 219.990434 92.771583 
L 220.120486 92.76209 
L 220.250539 93.078307 
L 220.380591 92.861685 
L 220.770724 93.363665 
L 221.030829 93.152607 
L 221.551014 93.482162 
L 221.681067 93.446391 
L 221.811119 93.602159 
L 222.721462 93.535011 
L 222.981567 93.625211 
L 223.241672 93.637686 
L 223.501777 93.617034 
L 223.761857 93.561445 
L 224.021963 93.727012 
L 224.542173 93.380094 
L 224.802253 93.700585 
L 225.062358 93.449687 
L 225.19241 93.634732 
L 225.71262 93.605974 
L 226.492911 93.56773 
L 226.753016 93.457829 
L 227.273201 93.478204 
L 227.403254 93.959121 
L 228.833806 93.968565 
L 229.223939 93.964832 
L 230.394387 93.969613 
L 244.179656 93.966975 
L 244.699841 94.004006 
L 248.211185 93.92001 
L 248.991475 93.958601 
L 256.6644 93.973699 
L 257.18461 93.998936 
L 257.9649 94.014263 
L 259.655533 94.034917 
L 271.620092 94.039958 
L 272.530435 94.021796 
L 274.351145 94.042636 
L 275.911726 94.030166 
L 276.822068 94.042911 
L 277.082174 93.850853 
L 277.472306 93.885796 
L 278.122594 94.023901 
L 278.382699 93.890163 
L 278.642754 93.97153 
L 278.902859 93.879424 
L 279.162964 93.854249 
L 279.423069 93.885661 
L 280.203384 93.921762 
L 280.203384 93.921762 
" clip-path="url(#p2a4d274f30)" style="fill: none; stroke: #000000; stroke-width: 1.2; stroke-linecap: square"/>
   </g>
   <g id="line2d_14">
    <path d="M 43.773306 94.061761 
L 44.033411 93.978364 
L 48.71519 93.845322 
L 48.975282 93.748123 
L 49.49548 93.005886 
L 49.885637 83.506541 
L 50.405835 90.743943 
L 50.665928 93.312942 
L 51.576283 93.860311 
L 53.917166 93.786774 
L 54.047219 93.776583 
L 54.567416 92.587558 
L 54.697469 92.272409 
L 54.957562 83.039718 
L 55.087614 74.743931 
L 55.217667 77.536753 
L 55.477759 91.659876 
L 56.77826 93.794613 
L 60.809801 93.709186 
L 63.150684 93.556854 
L 64.451184 91.38833 
L 64.711277 71.076374 
L 64.971382 91.485298 
L 65.231475 92.198975 
L 65.751672 93.214493 
L 66.531987 93.078782 
L 67.182225 92.850031 
L 68.482726 91.608578 
L 69.653173 91.66361 
L 70.303411 90.813887 
L 70.953649 89.927627 
L 71.603912 87.573138 
L 72.254149 85.13756 
L 72.644307 79.352456 
L 73.55465 64.589056 
L 73.944807 48.622803 
L 74.464992 25.749754 
L 74.85515 25.799769 
L 75.245283 25.937909 
L 75.505388 34.931155 
L 76.285703 67.656478 
L 77.586178 85.850178 
L 79.016731 90.392069 
L 80.447284 92.020209 
L 81.877812 92.771975 
L 83.698523 93.254126 
L 85.649261 93.528659 
L 89.810842 93.78747 
L 97.353714 93.94357 
L 114.780355 94.025819 
L 187.738154 94.05925 
L 189.55884 93.949169 
L 190.469182 93.942424 
L 192.419921 94.059331 
L 214.91851 94.024453 
L 215.048537 93.923598 
L 215.308642 93.378462 
L 215.438695 93.364927 
L 215.6988 93.738585 
L 215.958905 93.276502 
L 216.218985 93.365294 
L 216.47909 93.964081 
L 216.9993 94.027034 
L 219.340196 94.059633 
L 280.203384 94.056843 
L 280.203384 94.056843 
" clip-path="url(#p2a4d274f30)" style="fill: none; stroke-dasharray: 4.44,1.92; stroke-dashoffset: 0; stroke: #e8402a; stroke-width: 1.2"/>
   </g>
   <g id="patch_3">
    <path d="M 43.78125 97.478125 
L 43.78125 22.318125 
" style="fill: none; stroke: #000000; stroke-width: 0.8; stroke-linejoin: miter; stroke-linecap: square"/>
   </g>
   <g id="patch_4">
    <path d="M 326.27125 97.478125 
L 326.27125 22.318125 
" style="fill: none; stroke: #000000; stroke-width: 0.8; stroke-linejoin: miter; stroke-linecap: square"/>
   </g>
   <g id="patch_5">
    <path d="M 43.78125 97.478125 
L 326.27125 97.478125 
" style="fill: none; stroke: #000000; stroke-width: 0.8; stroke-linejoin: miter; stroke-linecap: square"/>
   </g>
   <g id="patch_6">
    <path d="M 43.78125 22.318125 
L 326.27125 22.318125 
" style="fill: none; stroke: #000000; stroke-width: 0.8; stroke-linejoin: miter; stroke-linecap: square"/>
   </g>
   <g id="text_15">
    <!-- 6255 -->
    <g transform="translate(169.75625 16.318125) scale(0.12 -0.12)">
     <defs>
      <path id="DejaVuSans-36" d="M 2113 2584 
Q 1688 2584 1439 2293 
Q 1191 2003 1191 1497 
Q 1191 994 1439 701 
Q 1688 409 2113 409 
Q 2538 409 2786 701 
Q 3034 994 3034 1497 
Q 3034 2003 2786 2293 
Q 2538 2584 2113 2584 
z
M 3366 4563 
L 3366 3988 
Q 3128 4100 2886 4159 
Q 2644 4219 2406 4219 
Q 1781 4219 1451 3797 
Q 1122 3375 1075 2522 
Q 1259 2794 1537 2939 
Q 1816 3084 2150 3084 
Q 2853 3084 3261 2657 
Q 3669 2231 3669 1497 
Q 3669 778 3244 343 
Q 2819 -91 2113 -91 
Q 1303 -91 875 529 
Q 447 1150 447 2328 
Q 447 3434 972 4092 
Q 1497 4750 2381 4750 
Q 2619 4750 2861 4703 
Q 3103 4656 3366 4563 
z
" transform="scale(0.015625)"/>
     </defs>
     <use xlink:href="#DejaVuSans-36"/>
     <use xlink:href="#DejaVuSans-32" transform="translate(63.623047 0)"/>
     <use xlink:href="#DejaVuSans-35" transform="translate(127.246094 0)"/>
     <use xlink:href="#DejaVuSans-35" transform="translate(190.869141 0)"/>
    </g>
   </g>
  </g>
 </g>
 <defs>
  <clipPath id="p2a4d274f30">
   <rect x="43.78125" y="22.318125" width="282.49" height="75.16"/>
  </clipPath>
 </defs>
</svg>
