<?xml version="1.0" encoding="utf-8" standalone="no"?>
<!DOCTYPE svg PUBLIC "-//W3C//DTD SVG 1.1//EN"
  "http://www.w3.org/Graphics/SVG/1.1/DTD/svg11.dtd">
<svg xmlns:xlink="http://www.w3.org/1999/xlink" width="346.19625pt" height="135.034375pt" viewBox="0 0 346.19625 135.034375" xmlns="http://www.w3.org/2000/svg" version="1.1">
 <metadata>
  <rdf:RDF xmlns:dc="http://purl.org/dc/elements/1.1/" xmlns:cc="http://creativecommons.org/ns#" xmlns:rdf="http://www.w3.org/1999/02/22-rdf-syntax-ns#">
   <cc:Work>
    <dc:type rdf:resource="http://purl.org/dc/dcmitype/StillImage"/>
    <dc:date>2026-03-03T16:03:48.847031</dc:date>
    <dc:format>image/svg+xml</dc:format>
    <dc:creator>
     <cc:Agent>
      <dc:title>Matplotlib v3.10.1, https://matplotlib.org/</dc:title>
     </cc:Agent>
    </dc:creator>
   </cc:Work>
  </rdf:RDF>
 </metadata>
 <defs>
  <style type="text/css">*{stroke-linejoin: round; stroke-linecap: butt}</style>
 </defs>
 <g id="figure_1">
  <g id="patch_1">
   <path d="M 0 135.034375 
L 346.19625 135.034375 
L 346.19625 0 
L 0 0 
z
" style="fill: #ffffff"/>
  </g>
  <g id="axes_1">
   <g id="patch_2">
    <path d="M 43.78125 97.478125 
L 326.27125 97.478125 
L 326.27125 22.318125 
L 43.78125 22.318125 
z
" style="fill: #ffffff"/>
   </g>
   <g id="matplotlib.axis_1">
    <g id="xtick_1">
     <g id="line2d_1">
      <defs>
       <path id="m54471aa16c" d="M 0 0 
L 0 3.5 
" style="stroke: #000000; stroke-width: 0.8"/>
      </defs>
      <g>
       <use xlink:href="#m54471aa16c" x="43.78125" y="97.478125" style="stroke: #000000; stroke-width: 0.8"/>
      </g>
     </g>
     <g id="text_1">
      <!-- 900 -->
      <g transform="translate(34.2375 112.076563) scale(0.1 -0.1)">
       <defs>
        <path id="DejaVuSans-39" d="M 703 97 
L 703 672 
Q 941 559 1184 500 
Q 1428 441 1663 441 
Q 2288 441 2617 861 
Q 2947 1281 2994 2138 
Q 2813 1869 2534 1725 
Q 2256 1581 1919 1581 
Q 1219 1581 811 2004 
Q 403 2428 403 3163 
Q 403 3881 828 4315 
Q 1253 4750 1959 4750 
Q 2769 4750 3195 4129 
Q 3622 3509 3622 2328 
Q 3622 1225 3098 567 
Q 2575 -91 1691 -91 
Q 1453 -91 1209 -44 
Q 966 3 703 97 
z
M 1959 2075 
Q 2384 2075 2632 2365 
Q 2881 2656 2881 3163 
Q 2881 3666 2632 3958 
Q 2384 4250 1959 4250 
Q 1534 4250 1286 3958 
Q 1038 3666 1038 3163 
Q 1038 2656 1286 2365 
Q 1534 2075 1959 2075 
z
" transform="scale(0.015625)"/>
        <path id="DejaVuSans-30" d="M 2034 4250 
Q 1547 4250 1301 3770 
Q 1056 3291 1056 2328 
Q 1056 1369 1301 889 
Q 1547 409 2034 409 
Q 2525 409 2770 889 
Q 3016 1369 3016 2328 
Q 3016 3291 2770 3770 
Q 2525 4250 2034 4250 
z
M 2034 4750 
Q 2819 4750 3233 4129 
Q 3647 3509 3647 2328 
Q 3647 1150 3233 529 
Q 2819 -91 2034 -91 
Q 1250 -91 836 529 
Q 422 1150 422 2328 
Q 422 3509 836 4129 
Q 1250 4750 2034 4750 
z
" transform="scale(0.015625)"/>
       </defs>
       <use xlink:href="#DejaVuSans-39"/>
       <use xlink:href="#DejaVuSans-30" transform="translate(63.623047 0)"/>
       <use xlink:href="#DejaVuSans-30" transform="translate(127.246094 0)"/>
      </g>
     </g>
    </g>
    <g id="xtick_2">
     <g id="line2d_2">
      <g>
       <use xlink:href="#m54471aa16c" x="79.0925" y="97.478125" style="stroke: #000000; stroke-width: 0.8"/>
      </g>
     </g>
     <g id="text_2">
      <!-- 925 -->
      <g transform="translate(69.54875 112.076563) scale(0.1 -0.1)">
       <defs>
        <path id="DejaVuSans-32" d="M 1228 531 
L 3431 531 
L 3431 0 
L 469 0 
L 469 531 
Q 828 903 1448 1529 
Q 2069 2156 2228 2338 
Q 2531 2678 2651 2914 
Q 2772 3150 2772 3378 
Q 2772 3750 2511 3984 
Q 2250 4219 1831 4219 
Q 1534 4219 1204 4116 
Q 875 4013 500 3803 
L 500 4441 
Q 881 4594 1212 4672 
Q 1544 4750 1819 4750 
Q 2544 4750 2975 4387 
Q 3406 4025 3406 3419 
Q 3406 3131 3298 2873 
Q 3191 2616 2906 2266 
Q 2828 2175 2409 1742 
Q 1991 1309 1228 531 
z
" transform="scale(0.015625)"/>
        <path id="DejaVuSans-35" d="M 691 4666 
L 3169 4666 
L 3169 4134 
L 1269 4134 
L 1269 2991 
Q 1406 3038 1543 3061 
Q 1681 3084 1819 3084 
Q 2600 3084 3056 2656 
Q 3513 2228 3513 1497 
Q 3513 744 3044 326 
Q 2575 -91 1722 -91 
Q 1428 -91 1123 -41 
Q 819 9 494 109 
L 494 744 
Q 775 591 1075 516 
Q 1375 441 1709 441 
Q 2250 441 2565 725 
Q 2881 1009 2881 1497 
Q 2881 1984 2565 2268 
Q 2250 2553 1709 2553 
Q 1456 2553 1204 2497 
Q 953 2441 691 2322 
L 691 4666 
z
" transform="scale(0.015625)"/>
       </defs>
       <use xlink:href="#DejaVuSans-39"/>
       <use xlink:href="#DejaVuSans-32" transform="translate(63.623047 0)"/>
       <use xlink:href="#DejaVuSans-35" transform="translate(127.246094 0)"/>
      </g>
     </g>
    </g>
    <g id="xtick_3">
     <g id="line2d_3">
      <g>
       <use xlink:href="#m54471aa16c" x="114.40375" y="97.478125" style="stroke: #000000; stroke-width: 0.8"/>
      </g>
     </g>
     <g id="text_3">
      <!-- 950 -->
      <g transform="translate(104.86 112.076563) scale(0.1 -0.1)">
       <use xlink:href="#DejaVuSans-39"/>
       <use xlink:href="#DejaVuSans-35" transform="translate(63.623047 0)"/>
       <use xlink:href="#DejaVuSans-30" transform="translate(127.246094 0)"/>
      </g>
     </g>
    </g>
    <g id="xtick_4">
     <g id="line2d_4">
      <g>
       <use xlink:href="#m54471aa16c" x="149.715" y="97.478125" style="stroke: #000000; stroke-width: 0.8"/>
      </g>
     </g>
     <g id="text_4">
      <!-- 975 -->
      <g transform="translate(140.17125 112.076563) scale(0.1 -0.1)">
       <defs>
        <path id="DejaVuSans-37" d="M 525 4666 
L 3525 4666 
L 3525 4397 
L 1831 0 
L 1172 0 
L 2766 4134 
L 525 4134 
L 525 4666 
z
" transform="scale(0.015625)"/>
       </defs>
       <use xlink:href="#DejaVuSans-39"/>
       <use xlink:href="#DejaVuSans-37" transform="translate(63.623047 0)"/>
       <use xlink:href="#DejaVuSans-35" transform="translate(127.246094 0)"/>
      </g>
     </g>
    </g>
    <g id="xtick_5">
     <g id="line2d_5">
      <g>
       <use xlink:href="#m54471aa16c" x="185.02625" y="97.478125" style="stroke: #000000; stroke-width: 0.8"/>
      </g>
     </g>
     <g id="text_5">
      <!-- 1000 -->
      <g transform="translate(172.30125 112.076563) scale(0.1 -0.1)">
       <defs>
        <path id="DejaVuSans-31" d="M 794 531 
L 1825 531 
L 1825 4091 
L 703 3866 
L 703 4441 
L 1819 4666 
L 2450 4666 
L 2450 531 
L 3481 531 
L 3481 0 
L 794 0 
L 794 531 
z
" transform="scale(0.015625)"/>
       </defs>
       <use xlink:href="#DejaVuSans-31"/>
       <use xlink:href="#DejaVuSans-30" transform="translate(63.623047 0)"/>
       <use xlink:href="#DejaVuSans-30" transform="translate(127.246094 0)"/>
       <use xlink:href="#DejaVuSans-30" transform="translate(190.869141 0)"/>
      </g>
     </g>
    </g>
    <g id="xtick_6">
     <g id="line2d_6">
      <g>
       <use xlink:href="#m54471aa16c" x="220.3375" y="97.478125" style="stroke: #000000; stroke-width: 0.8"/>
      </g>
     </g>
     <g id="text_6">
      <!-- 1025 -->
      <g transform="translate(207.6125 112.076563) scale(0.1 -0.1)">
       <use xlink:href="#DejaVuSans-31"/>
       <use xlink:href="#DejaVuSans-30" transform="translate(63.623047 0)"/>
       <use xlink:href="#DejaVuSans-32" transform="translate(127.246094 0)"/>
       <use xlink:href="#DejaVuSans-35" transform="translate(190.869141 0)"/>
      </g>
     </g>
    </g>
    <g id="xtick_7">
     <g id="line2d_7">
      <g>
       <use xlink:href="#m54471aa16c" x="255.64875" y="97.478125" style="stroke: #000000; stroke-width: 0.8"/>
      </g>
     </g>
     <g id="text_7">
      <!-- 1050 -->
      <g transform="translate(242.92375 112.076563) scale(0.1 -0.1)">
       <use xlink:href="#DejaVuSans-31"/>
       <use xlink:href="#DejaVuSans-30" transform="translate(63.623047 0)"/>
       <use xlink:href="#DejaVuSans-35" transform="translate(127.246094 0)"/>
       <use xlink:href="#DejaVuSans-30" transform="translate(190.869141 0)"/>
      </g>
     </g>
    </g>
    <g id="xtick_8">
     <g id="line2d_8">
      <g>
       <use xlink:href="#m54471aa16c" x="290.96" y="97.478125" style="stroke: #000000; stroke-width: 0.8"/>
      </g>
     </g>
     <g id="text_8">
      <!-- 1075 -->
      <g transform="translate(278.235 112.076563) scale(0.1 -0.1)">
       <use xlink:href="#DejaVuSans-31"/>
       <use xlink:href="#DejaVuSans-30" transform="translate(63.623047 0)"/>
       <use xlink:href="#DejaVuSans-37" transform="translate(127.246094 0)"/>
       <use xlink:href="#DejaVuSans-35" transform="translate(190.869141 0)"/>
      </g>
     </g>
    </g>
    <g id="xtick_9">
     <g id="line2d_9">
      <g>
       <use xlink:href="#m54471aa16c" x="326.27125" y="97.478125" style="stroke: #000000; stroke-width: 0.8"/>
      </g>
     </g>
     <g id="text_9">
      <!-- 1100 -->
      <g transform="translate(313.54625 112.076563) scale(0.1 -0.1)">
       <use xlink:href="#DejaVuSans-31"/>
       <use xlink:href="#DejaVuSans-31" transform="translate(63.623047 0)"/>
       <use xlink:href="#DejaVuSans-30" transform="translate(127.246094 0)"/>
       <use xlink:href="#DejaVuSans-30" transform="translate(190.869141 0)"/>
      </g>
     </g>
    </g>
    <g id="text_10">
     <!-- Energy (eV) -->
     <g transform="translate(155.5325 125.754688) scale(0.1 -0.1)">
      <defs>
       <path id="DejaVuSans-45" d="M 628 4666 
L 3578 4666 
L 3578 4134 
L 1259 4134 
L 1259 2753 
L 3481 2753 
L 3481 2222 
L 1259 2222 
L 1259 531 
L 3634 531 
L 3634 0 
L 628 0 
L 628 4666 
z
" transform="scale(0.015625)"/>
       <path id="DejaVuSans-6e" d="M 3513 2113 
L 3513 0 
L 2938 0 
L 2938 2094 
Q 2938 2591 2744 2837 
Q 2550 3084 2163 3084 
Q 1697 3084 1428 2787 
Q 1159 2491 1159 1978 
L 1159 0 
L 581 0 
L 581 3500 
L 1159 3500 
L 1159 2956 
Q 1366 3272 1645 3428 
Q 1925 3584 2291 3584 
Q 2894 3584 3203 3211 
Q 3513 2838 3513 2113 
z
" transform="scale(0.015625)"/>
       <path id="DejaVuSans-65" d="M 3597 1894 
L 3597 1613 
L 953 1613 
Q 991 1019 1311 708 
Q 1631 397 2203 397 
Q 2534 397 2845 478 
Q 3156 559 3463 722 
L 3463 178 
Q 3153 47 2828 -22 
Q 2503 -91 2169 -91 
Q 1331 -91 842 396 
Q 353 884 353 1716 
Q 353 2575 817 3079 
Q 1281 3584 2069 3584 
Q 2775 3584 3186 3129 
Q 3597 2675 3597 1894 
z
M 3022 2063 
Q 3016 2534 2758 2815 
Q 2500 3097 2075 3097 
Q 1594 3097 1305 2825 
Q 1016 2553 972 2059 
L 3022 2063 
z
" transform="scale(0.015625)"/>
       <path id="DejaVuSans-72" d="M 2631 2963 
Q 2534 3019 2420 3045 
Q 2306 3072 2169 3072 
Q 1681 3072 1420 2755 
Q 1159 2438 1159 1844 
L 1159 0 
L 581 0 
L 581 3500 
L 1159 3500 
L 1159 2956 
Q 1341 3275 1631 3429 
Q 1922 3584 2338 3584 
Q 2397 3584 2469 3576 
Q 2541 3569 2628 3553 
L 2631 2963 
z
" transform="scale(0.015625)"/>
       <path id="DejaVuSans-67" d="M 2906 1791 
Q 2906 2416 2648 2759 
Q 2391 3103 1925 3103 
Q 1463 3103 1205 2759 
Q 947 2416 947 1791 
Q 947 1169 1205 825 
Q 1463 481 1925 481 
Q 2391 481 2648 825 
Q 2906 1169 2906 1791 
z
M 3481 434 
Q 3481 -459 3084 -895 
Q 2688 -1331 1869 -1331 
Q 1566 -1331 1297 -1286 
Q 1028 -1241 775 -1147 
L 775 -588 
Q 1028 -725 1275 -790 
Q 1522 -856 1778 -856 
Q 2344 -856 2625 -561 
Q 2906 -266 2906 331 
L 2906 616 
Q 2728 306 2450 153 
Q 2172 0 1784 0 
Q 1141 0 747 490 
Q 353 981 353 1791 
Q 353 2603 747 3093 
Q 1141 3584 1784 3584 
Q 2172 3584 2450 3431 
Q 2728 3278 2906 2969 
L 2906 3500 
L 3481 3500 
L 3481 434 
z
" transform="scale(0.015625)"/>
       <path id="DejaVuSans-79" d="M 2059 -325 
Q 1816 -950 1584 -1140 
Q 1353 -1331 966 -1331 
L 506 -1331 
L 506 -850 
L 844 -850 
Q 1081 -850 1212 -737 
Q 1344 -625 1503 -206 
L 1606 56 
L 191 3500 
L 800 3500 
L 1894 763 
L 2988 3500 
L 3597 3500 
L 2059 -325 
z
" transform="scale(0.015625)"/>
       <path id="DejaVuSans-20" transform="scale(0.015625)"/>
       <path id="DejaVuSans-28" d="M 1984 4856 
Q 1566 4138 1362 3434 
Q 1159 2731 1159 2009 
Q 1159 1288 1364 580 
Q 1569 -128 1984 -844 
L 1484 -844 
Q 1016 -109 783 600 
Q 550 1309 550 2009 
Q 550 2706 781 3412 
Q 1013 4119 1484 4856 
L 1984 4856 
z
" transform="scale(0.015625)"/>
       <path id="DejaVuSans-56" d="M 1831 0 
L 50 4666 
L 709 4666 
L 2188 738 
L 3669 4666 
L 4325 4666 
L 2547 0 
L 1831 0 
z
" transform="scale(0.015625)"/>
       <path id="DejaVuSans-29" d="M 513 4856 
L 1013 4856 
Q 1481 4119 1714 3412 
Q 1947 2706 1947 2009 
Q 1947 1309 1714 600 
Q 1481 -109 1013 -844 
L 513 -844 
Q 928 -128 1133 580 
Q 1338 1288 1338 2009 
Q 1338 2731 1133 3434 
Q 928 4138 513 4856 
z
" transform="scale(0.015625)"/>
      </defs>
      <use xlink:href="#DejaVuSans-45"/>
      <use xlink:href="#DejaVuSans-6e" transform="translate(63.183594 0)"/>
      <use xlink:href="#DejaVuSans-65" transform="translate(126.5625 0)"/>
      <use xlink:href="#DejaVuSans-72" transform="translate(188.085938 0)"/>
      <use xlink:href="#DejaVuSans-67" transform="translate(227.449219 0)"/>
      <use xlink:href="#DejaVuSans-79" transform="translate(290.925781 0)"/>
      <use xlink:href="#DejaVuSans-20" transform="translate(350.105469 0)"/>
      <use xlink:href="#DejaVuSans-28" transform="translate(381.892578 0)"/>
      <use xlink:href="#DejaVuSans-65" transform="translate(420.90625 0)"/>
      <use xlink:href="#DejaVuSans-56" transform="translate(482.429688 0)"/>
      <use xlink:href="#DejaVuSans-29" transform="translate(550.837891 0)"/>
     </g>
    </g>
   </g>
   <g id="matplotlib.axis_2">
    <g id="ytick_1">
     <g id="line2d_10">
      <defs>
       <path id="md33934213e" d="M 0 0 
L -3.5 0 
" style="stroke: #000000; stroke-width: 0.8"/>
      </defs>
      <g>
       <use xlink:href="#md33934213e" x="43.78125" y="94.061761" style="stroke: #000000; stroke-width: 0.8"/>
      </g>
     </g>
     <g id="text_11">
      <!-- 0.0 -->
      <g transform="translate(20.878125 97.86098) scale(0.1 -0.1)">
       <defs>
        <path id="DejaVuSans-2e" d="M 684 794 
L 1344 794 
L 1344 0 
L 684 0 
L 684 794 
z
" transform="scale(0.015625)"/>
       </defs>
       <use xlink:href="#DejaVuSans-30"/>
       <use xlink:href="#DejaVuSans-2e" transform="translate(63.623047 0)"/>
       <use xlink:href="#DejaVuSans-30" transform="translate(95.410156 0)"/>
      </g>
     </g>
    </g>
    <g id="ytick_2">
     <g id="line2d_11">
      <g>
       <use xlink:href="#md33934213e" x="43.78125" y="59.898125" style="stroke: #000000; stroke-width: 0.8"/>
      </g>
     </g>
     <g id="text_12">
      <!-- 0.5 -->
      <g transform="translate(20.878125 63.697344) scale(0.1 -0.1)">
       <use xlink:href="#DejaVuSans-30"/>
       <use xlink:href="#DejaVuSans-2e" transform="translate(63.623047 0)"/>
       <use xlink:href="#DejaVuSans-35" transform="translate(95.410156 0)"/>
      </g>
     </g>
    </g>
    <g id="ytick_3">
     <g id="line2d_12">
      <g>
       <use xlink:href="#md33934213e" x="43.78125" y="25.734489" style="stroke: #000000; stroke-width: 0.8"/>
      </g>
     </g>
     <g id="text_13">
      <!-- 1.0 -->
      <g transform="translate(20.878125 29.533707) scale(0.1 -0.1)">
       <use xlink:href="#DejaVuSans-31"/>
       <use xlink:href="#DejaVuSans-2e" transform="translate(63.623047 0)"/>
       <use xlink:href="#DejaVuSans-30" transform="translate(95.410156 0)"/>
      </g>
     </g>
    </g>
    <g id="text_14">
     <!-- Intensity (a.u.) -->
     <g transform="translate(14.798438 96.562187) rotate(-90) scale(0.1 -0.1)">
      <defs>
       <path id="DejaVuSans-49" d="M 628 4666 
L 1259 4666 
L 1259 0 
L 628 0 
L 628 4666 
z
" transform="scale(0.015625)"/>
       <path id="DejaVuSans-74" d="M 1172 4494 
L 1172 3500 
L 2356 3500 
L 2356 3053 
L 1172 3053 
L 1172 1153 
Q 1172 725 1289 603 
Q 1406 481 1766 481 
L 2356 481 
L 2356 0 
L 1766 0 
Q 1100 0 847 248 
Q 594 497 594 1153 
L 594 3053 
L 172 3053 
L 172 3500 
L 594 3500 
L 594 4494 
L 1172 4494 
z
" transform="scale(0.015625)"/>
       <path id="DejaVuSans-73" d="M 2834 3397 
L 2834 2853 
Q 2591 2978 2328 3040 
Q 2066 3103 1784 3103 
Q 1356 3103 1142 2972 
Q 928 2841 928 2578 
Q 928 2378 1081 2264 
Q 1234 2150 1697 2047 
L 1894 2003 
Q 2506 1872 2764 1633 
Q 3022 1394 3022 966 
Q 3022 478 2636 193 
Q 2250 -91 1575 -91 
Q 1294 -91 989 -36 
Q 684 19 347 128 
L 347 722 
Q 666 556 975 473 
Q 1284 391 1588 391 
Q 1994 391 2212 530 
Q 2431 669 2431 922 
Q 2431 1156 2273 1281 
Q 2116 1406 1581 1522 
L 1381 1569 
Q 847 1681 609 1914 
Q 372 2147 372 2553 
Q 372 3047 722 3315 
Q 1072 3584 1716 3584 
Q 2034 3584 2315 3537 
Q 2597 3491 2834 3397 
z
" transform="scale(0.015625)"/>
       <path id="DejaVuSans-69" d="M 603 3500 
L 1178 3500 
L 1178 0 
L 603 0 
L 603 3500 
z
M 603 4863 
L 1178 4863 
L 1178 4134 
L 603 4134 
L 603 4863 
z
" transform="scale(0.015625)"/>
       <path id="DejaVuSans-61" d="M 2194 1759 
Q 1497 1759 1228 1600 
Q 959 1441 959 1056 
Q 959 750 1161 570 
Q 1363 391 1709 391 
Q 2188 391 2477 730 
Q 2766 1069 2766 1631 
L 2766 1759 
L 2194 1759 
z
M 3341 1997 
L 3341 0 
L 2766 0 
L 2766 531 
Q 2569 213 2275 61 
Q 1981 -91 1556 -91 
Q 1019 -91 701 211 
Q 384 513 384 1019 
Q 384 1609 779 1909 
Q 1175 2209 1959 2209 
L 2766 2209 
L 2766 2266 
Q 2766 2663 2505 2880 
Q 2244 3097 1772 3097 
Q 1472 3097 1187 3025 
Q 903 2953 641 2809 
L 641 3341 
Q 956 3463 1253 3523 
Q 1550 3584 1831 3584 
Q 2591 3584 2966 3190 
Q 3341 2797 3341 1997 
z
" transform="scale(0.015625)"/>
       <path id="DejaVuSans-75" d="M 544 1381 
L 544 3500 
L 1119 3500 
L 1119 1403 
Q 1119 906 1312 657 
Q 1506 409 1894 409 
Q 2359 409 2629 706 
Q 2900 1003 2900 1516 
L 2900 3500 
L 3475 3500 
L 3475 0 
L 2900 0 
L 2900 538 
Q 2691 219 2414 64 
Q 2138 -91 1772 -91 
Q 1169 -91 856 284 
Q 544 659 544 1381 
z
M 1991 3584 
L 1991 3584 
z
" transform="scale(0.015625)"/>
      </defs>
      <use xlink:href="#DejaVuSans-49"/>
      <use xlink:href="#DejaVuSans-6e" transform="translate(29.492188 0)"/>
      <use xlink:href="#DejaVuSans-74" transform="translate(92.871094 0)"/>
      <use xlink:href="#DejaVuSans-65" transform="translate(132.080078 0)"/>
      <use xlink:href="#DejaVuSans-6e" transform="translate(193.603516 0)"/>
      <use xlink:href="#DejaVuSans-73" transform="translate(256.982422 0)"/>
      <use xlink:href="#DejaVuSans-69" transform="translate(309.082031 0)"/>
      <use xlink:href="#DejaVuSans-74" transform="translate(336.865234 0)"/>
      <use xlink:href="#DejaVuSans-79" transform="translate(376.074219 0)"/>
      <use xlink:href="#DejaVuSans-20" transform="translate(435.253906 0)"/>
      <use xlink:href="#DejaVuSans-28" transform="translate(467.041016 0)"/>
      <use xlink:href="#DejaVuSans-61" transform="translate(506.054688 0)"/>
      <use xlink:href="#DejaVuSans-2e" transform="translate(567.333984 0)"/>
      <use xlink:href="#DejaVuSans-75" transform="translate(599.121094 0)"/>
      <use xlink:href="#DejaVuSans-2e" transform="translate(662.5 0)"/>
      <use xlink:href="#DejaVuSans-29" transform="translate(694.287109 0)"/>
     </g>
    </g>
   </g>
   <g id="line2d_13">
    <path d="M 43.685573 93.757075 
L 44.20291 93.756441 
L 44.332244 93.612796 
L 44.72025 93.815748 
L 44.978919 93.719081 
L 45.237587 93.84096 
L 45.754924 93.75392 
L 48.341611 93.741971 
L 48.470945 93.577767 
L 48.858948 93.623985 
L 48.988282 93.528549 
L 49.117617 93.637502 
L 49.246951 93.466472 
L 49.376285 93.546549 
L 49.764288 93.351829 
L 49.893622 93.379515 
L 50.022956 93.005392 
L 50.15229 93.287752 
L 50.540293 93.150677 
L 50.798961 93.187184 
L 51.057633 92.950677 
L 51.186967 93.252561 
L 51.57497 92.933902 
L 51.833638 93.227646 
L 51.962972 93.217582 
L 52.221641 93.360618 
L 52.350975 93.157319 
L 52.480309 93.233491 
L 52.609643 93.169871 
L 52.997646 93.333356 
L 53.256315 93.404198 
L 53.385649 93.239448 
L 53.514983 93.375127 
L 53.773651 93.240363 
L 54.290991 93.256318 
L 54.54966 93.075368 
L 55.325665 92.960677 
L 55.713668 93.200509 
L 55.843005 92.907238 
L 55.972336 93.073684 
L 56.101673 92.990939 
L 56.231004 93.151053 
L 56.360342 93.115471 
L 56.489673 93.289978 
L 56.61901 92.972111 
L 57.265678 93.304974 
L 57.524347 93.125473 
L 57.653684 93.033947 
L 57.912352 93.293424 
L 58.041684 93.269347 
L 58.300352 93.340755 
L 58.429689 93.137149 
L 58.688358 93.321246 
L 59.076363 93.225347 
L 59.335032 93.279595 
L 59.464363 93.043587 
L 60.240368 92.999252 
L 60.499037 92.792294 
L 60.628374 92.919081 
L 60.887042 92.638783 
L 61.145711 92.723036 
L 61.53371 92.03245 
L 61.792379 92.055302 
L 61.921716 91.542702 
L 62.051047 91.527869 
L 62.56839 90.543562 
L 62.697721 90.512926 
L 62.95639 89.712059 
L 63.085727 89.741579 
L 63.473727 88.245498 
L 63.732395 87.653354 
L 63.861732 86.904445 
L 63.991064 86.882535 
L 64.120401 87.122219 
L 64.5084 85.887718 
L 64.637738 86.16357 
L 64.767069 85.353985 
L 65.025737 85.862566 
L 65.284406 87.408288 
L 65.413743 86.497079 
L 65.54308 86.470178 
L 65.672411 87.125116 
L 65.93108 86.651819 
L 66.060417 87.227793 
L 66.319086 86.940136 
L 66.448417 87.163094 
L 66.577754 87.091293 
L 66.707085 87.185715 
L 66.836422 87.741347 
L 66.965754 87.772942 
L 67.095091 88.255688 
L 67.224422 88.21829 
L 67.48309 88.891621 
L 67.741759 89.346167 
L 68.000427 89.136278 
L 68.129765 89.343148 
L 68.259096 89.810658 
L 68.388433 89.68725 
L 68.647101 89.743169 
L 68.776439 90.378163 
L 68.90577 89.941713 
L 69.035107 89.97518 
L 69.164438 89.717114 
L 69.423107 90.080427 
L 69.552444 89.94539 
L 69.681775 90.002139 
L 69.811113 89.916098 
L 69.940444 90.225749 
L 70.069781 89.950165 
L 70.199112 89.198494 
L 70.457781 89.116574 
L 70.716449 88.320271 
L 71.492454 86.002697 
L 71.88046 83.895371 
L 72.527134 77.065416 
L 73.044471 69.798292 
L 74.596482 28.842622 
L 74.85515 25.734489 
L 74.984481 27.708435 
L 75.243156 26.325444 
L 75.372487 26.58733 
L 76.148492 45.312783 
L 76.277829 46.765266 
L 77.053835 65.971198 
L 77.441834 73.699992 
L 77.82984 79.671815 
L 78.088508 82.981609 
L 78.476514 85.75456 
L 78.605845 86.331776 
L 78.735183 87.585079 
L 78.864514 87.706539 
L 79.252519 89.089763 
L 79.769856 90.010303 
L 79.899187 89.921155 
L 80.416524 91.171049 
L 80.545862 91.241617 
L 80.675193 91.151402 
L 80.80453 91.499276 
L 80.933861 91.39691 
L 81.19253 92.033368 
L 81.451198 92.043444 
L 81.839204 92.430664 
L 82.097872 91.94906 
L 82.485878 92.501578 
L 82.615209 92.410453 
L 82.873877 92.644164 
L 83.391214 92.469981 
L 83.520552 92.563295 
L 83.649883 92.79747 
L 83.908551 92.530895 
L 84.296557 92.876132 
L 84.555225 92.687963 
L 84.684557 92.988011 
L 84.813894 92.966906 
L 85.072562 93.140232 
L 85.719236 93.032589 
L 85.848568 93.071234 
L 86.107236 93.327892 
L 86.236573 93.112392 
L 86.495242 93.263499 
L 86.624573 93.151487 
L 86.883241 93.29693 
L 87.14191 93.123763 
L 87.271247 93.236655 
L 87.529915 93.195553 
L 87.659247 93.379829 
L 87.788584 93.276407 
L 87.917915 93.405945 
L 88.305921 93.267944 
L 88.823258 93.429898 
L 88.952595 93.388866 
L 89.211263 93.45279 
L 89.340594 93.526101 
L 89.7286 93.421274 
L 89.987269 93.466857 
L 91.021942 93.577436 
L 91.280611 93.539214 
L 91.409948 93.615858 
L 91.539279 93.44372 
L 92.315284 93.544329 
L 92.444622 93.54109 
L 92.573953 93.676122 
L 92.832621 93.58328 
L 95.419312 93.695251 
L 95.807311 93.547231 
L 95.936649 93.556948 
L 96.195317 93.715047 
L 96.324648 93.781108 
L 96.453985 93.695865 
L 96.712654 93.733537 
L 96.971322 93.70024 
L 97.229991 93.721863 
L 97.876665 93.696824 
L 98.394002 93.738241 
L 99.04067 93.656678 
L 99.428676 93.664488 
L 100.204681 93.728681 
L 100.851349 93.756806 
L 100.980686 93.639657 
L 101.110023 93.802304 
L 101.239355 93.672649 
L 101.886029 93.758365 
L 102.01536 93.72145 
L 102.274028 93.77406 
L 102.791365 93.642168 
L 103.050034 93.816653 
L 103.308702 93.67684 
L 104.214045 93.782543 
L 104.60205 93.717267 
L 104.731381 93.78301 
L 104.860719 93.656063 
L 105.119387 93.774254 
L 105.895392 93.786009 
L 106.024724 93.681876 
L 106.412729 93.819895 
L 106.671398 93.737162 
L 106.800729 93.832651 
L 107.188735 93.721639 
L 107.57674 93.830033 
L 117.018141 93.854788 
L 117.147478 93.692986 
L 117.406153 93.820785 
L 119.4755 93.862817 
L 119.8635 93.773488 
L 120.122162 93.865216 
L 120.380837 93.804815 
L 120.510174 93.747249 
L 120.898174 93.823078 
L 129.951575 93.811295 
L 130.080912 93.920913 
L 130.468912 93.836284 
L 131.632923 93.842798 
L 132.020922 93.766923 
L 132.279597 93.856639 
L 133.443608 93.82631 
L 133.831608 93.782798 
L 136.806304 93.874726 
L 137.064966 93.814215 
L 137.582303 93.824757 
L 137.840977 93.840249 
L 138.228977 93.822005 
L 138.487639 93.841238 
L 139.65165 93.877094 
L 139.780988 93.7997 
L 140.168987 93.905078 
L 142.755671 93.840134 
L 143.014346 93.892009 
L 152.973096 93.862849 
L 153.102421 93.923801 
L 153.361096 93.855924 
L 154.913106 93.885469 
L 155.171768 93.884595 
L 155.430443 93.88122 
L 156.077117 93.849997 
L 156.206454 93.920408 
L 156.465117 93.825251 
L 156.723791 93.887568 
L 157.111791 93.887277 
L 158.017127 93.86653 
L 158.275802 93.872801 
L 159.569138 93.857055 
L 159.827813 93.874635 
L 160.345149 93.863403 
L 160.603812 93.844449 
L 161.50916 93.87191 
L 161.89716 93.845597 
L 162.155822 93.846183 
L 162.931834 93.88022 
L 163.83717 93.89266 
L 165.777193 93.835402 
L 166.035855 93.882076 
L 186.858691 93.868799 
L 187.117353 93.766465 
L 187.376028 93.840706 
L 187.63469 93.792169 
L 188.281365 93.650873 
L 188.540039 93.738344 
L 188.798701 93.696886 
L 188.928039 93.616206 
L 189.316038 93.663472 
L 190.09205 93.576525 
L 190.221375 93.710047 
L 190.609387 93.667393 
L 190.997386 93.679691 
L 193.454733 93.71362 
L 193.58407 93.631635 
L 193.97207 93.756974 
L 194.360082 93.613105 
L 194.748081 93.641755 
L 195.006756 93.659229 
L 195.136081 93.674914 
L 195.265418 93.545953 
L 195.653418 93.682545 
L 195.782755 93.53135 
L 196.04143 93.674978 
L 196.300092 93.624584 
L 196.429429 93.745707 
L 196.817429 93.646654 
L 196.946766 93.765711 
L 197.205428 93.789299 
L 197.852103 93.767351 
L 198.757451 93.774866 
L 199.016114 93.815102 
L 199.92145 93.822862 
L 200.180125 93.761994 
L 203.93082 93.834677 
L 204.060157 93.721707 
L 204.448157 93.74671 
L 204.965494 93.833265 
L 205.224168 93.798258 
L 206.258842 93.772959 
L 207.164178 93.718692 
L 207.422841 93.591202 
L 207.810853 93.660558 
L 208.069515 93.576146 
L 209.750863 93.393287 
L 209.8802 93.295525 
L 210.009537 93.374694 
L 210.2682 93.186792 
L 211.561536 92.76448 
L 211.82021 92.435541 
L 211.949547 92.270885 
L 212.208222 92.336644 
L 212.337559 91.876306 
L 212.466897 91.989419 
L 212.854884 90.802371 
L 212.984221 90.721583 
L 213.372233 89.559173 
L 213.50157 89.358752 
L 214.018895 86.76025 
L 214.148232 86.582372 
L 215.053569 81.328839 
L 215.182906 81.045018 
L 215.700255 77.39293 
L 215.958905 76.609502 
L 216.088242 77.088394 
L 216.21758 76.921633 
L 216.734929 78.259277 
L 216.864241 78.039835 
L 217.769603 83.973339 
L 217.89894 83.934961 
L 218.416264 86.878814 
L 218.545602 86.980903 
L 219.062926 89.030661 
L 219.321601 90.024538 
L 219.450938 90.573703 
L 219.580275 90.608652 
L 220.485612 92.386825 
L 220.614949 92.187756 
L 220.744286 92.604955 
L 220.873624 92.533004 
L 221.132298 92.856908 
L 221.261611 92.790561 
L 221.520286 93.148569 
L 221.77896 92.988977 
L 222.037635 93.233809 
L 222.166972 93.167765 
L 222.296285 93.28817 
L 222.425622 93.238163 
L 222.554959 93.411286 
L 222.813634 93.370621 
L 224.753644 93.561191 
L 224.882981 93.410208 
L 225.141656 93.667264 
L 225.65898 93.59755 
L 226.046992 93.602573 
L 226.17633 93.705769 
L 226.305667 93.514803 
L 226.693654 93.65624 
L 227.081666 93.589307 
L 227.340341 93.618003 
L 227.469678 93.999831 
L 229.797675 93.990758 
L 230.961686 94.01585 
L 234.712394 94.024663 
L 236.13508 94.009038 
L 249.844513 94.02645 
L 253.724533 94.017622 
L 254.371219 93.993215 
L 260.837936 94.047048 
L 263.165958 94.042404 
L 265.623293 94.036394 
L 271.184673 94.046351 
L 273.124684 94.039456 
L 276.487379 94.044522 
L 279.720738 93.902384 
L 279.979412 93.975911 
L 281.402098 93.939476 
L 281.919423 93.934993 
L 287.351466 93.759976 
L 287.480803 93.706272 
L 287.61014 93.792999 
L 287.868815 93.72625 
L 288.127465 93.658338 
L 288.644814 93.63545 
L 289.032826 93.431208 
L 289.291476 93.505577 
L 290.0675 93.035591 
L 290.196812 93.092571 
L 290.455487 92.910782 
L 290.584824 92.762412 
L 290.714161 92.800438 
L 291.231486 92.485673 
L 291.360823 92.605253 
L 291.490161 92.337189 
L 291.619498 92.406159 
L 292.00751 92.043932 
L 292.136847 91.951133 
L 292.266184 92.167593 
L 292.783509 91.898727 
L 292.912846 91.927972 
L 293.171521 91.743363 
L 293.300858 91.971973 
L 293.430171 91.697218 
L 293.688845 91.682261 
L 293.818183 91.576842 
L 294.076857 91.754483 
L 294.594182 91.708319 
L 294.852856 92.033189 
L 294.982194 91.939237 
L 295.370206 92.152076 
L 295.499543 92.144753 
L 295.88753 92.407422 
L 296.146205 92.526436 
L 296.404879 92.604838 
L 297.180878 92.897075 
L 297.439553 93.141055 
L 298.215552 93.557691 
L 298.474227 93.534052 
L 298.732901 93.61782 
L 302.354247 93.909899 
L 309.596963 93.921243 
L 309.984975 93.959454 
L 313.864995 93.900631 
L 314.12367 93.951796 
L 317.615703 93.977234 
L 317.874377 93.94169 
L 318.650377 93.965413 
L 319.426376 93.953436 
L 319.814388 93.986033 
L 320.073062 93.935503 
L 320.331712 93.963341 
L 321.62506 93.985244 
L 326.281105 93.990037 
L 326.281105 93.990037 
" clip-path="url(#p1c114a6b17)" style="fill: none; stroke: #000000; stroke-width: 1.2; stroke-linecap: square"/>
   </g>
   <g id="line2d_14">
    <path d="M 43.685573 94.061761 
L 43.944242 93.930723 
L 48.082943 93.780898 
L 48.858948 93.65339 
L 49.117617 93.132159 
L 49.505619 91.861392 
L 49.893622 73.922303 
L 50.281624 83.652278 
L 50.669627 92.729596 
L 51.57497 93.717792 
L 53.385649 93.664073 
L 54.03232 93.566879 
L 54.290991 92.590633 
L 54.678994 90.826907 
L 55.066997 59.813166 
L 55.196331 60.269667 
L 55.454999 86.655362 
L 55.584333 90.18501 
L 56.748341 93.621918 
L 59.5937 93.585929 
L 63.085727 93.281342 
L 63.344396 92.916839 
L 64.379069 90.96506 
L 64.767069 70.058031 
L 65.025737 90.848153 
L 65.801749 92.755331 
L 67.095091 92.304489 
L 68.388433 89.787559 
L 69.681775 90.332887 
L 70.975117 87.645901 
L 72.268466 80.507603 
L 72.915134 67.406088 
L 73.691139 50.08494 
L 74.467144 25.734489 
L 75.243156 25.878926 
L 75.372487 26.866759 
L 76.407161 59.776889 
L 77.700503 82.139908 
L 78.993851 88.306302 
L 80.416524 90.826988 
L 81.839204 92.005609 
L 83.391214 92.685057 
L 85.2019 93.133135 
L 87.012579 93.393109 
L 91.021942 93.685729 
L 98.005996 93.879418 
L 112.232772 93.992049 
L 162.026497 94.05649 
L 188.798701 93.957128 
L 189.316038 93.817611 
L 189.445376 93.597337 
L 189.962712 91.656416 
L 190.09205 91.826838 
L 190.609387 93.798058 
L 191.902723 94.016991 
L 193.196071 94.012709 
L 193.58407 93.63427 
L 194.489407 93.927741 
L 195.782755 93.344843 
L 197.334766 94.037927 
L 209.750863 93.935676 
L 211.173548 93.77475 
L 213.113558 93.459217 
L 214.536244 91.026478 
L 214.794894 88.383351 
L 215.182906 78.810724 
L 215.570918 78.79597 
L 215.829568 78.600806 
L 216.21758 78.592009 
L 216.346917 78.735176 
L 216.734929 86.424158 
L 217.510928 92.529054 
L 219.062926 93.652875 
L 221.390948 93.921178 
L 224.753644 94.008785 
L 240.661762 94.052313 
L 284.635456 93.973248 
L 286.058117 93.862234 
L 286.446129 93.511628 
L 286.834141 93.731987 
L 287.61014 93.398741 
L 288.774151 89.717141 
L 288.903489 89.237866 
L 289.55015 89.247515 
L 290.455487 92.624392 
L 290.714161 93.31597 
L 292.524834 93.893581 
L 295.88753 94.020808 
L 309.079639 94.055763 
L 326.281105 94.061761 
L 326.281105 94.061761 
" clip-path="url(#p1c114a6b17)" style="fill: none; stroke-dasharray: 4.44,1.92; stroke-dashoffset: 0; stroke: #e8402a; stroke-width: 1.2"/>
   </g>
   <g id="patch_3">
    <path d="M 43.78125 97.478125 
L 43.78125 22.318125 
" style="fill: none; stroke: #000000; stroke-width: 0.8; stroke-linejoin: miter; stroke-linecap: square"/>
   </g>
   <g id="patch_4">
    <path d="M 326.27125 97.478125 
L 326.27125 22.318125 
" style="fill: none; stroke: #000000; stroke-width: 0.8; stroke-linejoin: miter; stroke-linecap: square"/>
   </g>
   <g id="patch_5">
    <path d="M 43.78125 97.478125 
L 326.27125 97.478125 
" style="fill: none; stroke: #000000; stroke-width: 0.8; stroke-linejoin: miter; stroke-linecap: square"/>
   </g>
   <g id="patch_6">
    <path d="M 43.78125 22.318125 
L 326.27125 22.318125 
" style="fill: none; stroke: #000000; stroke-width: 0.8; stroke-linejoin: miter; stroke-linecap: square"/>
   </g>
   <g id="text_15">
    <!-- 6256 -->
    <g transform="translate(169.75625 16.318125) scale(0.12 -0.12)">
     <defs>
      <path id="DejaVuSans-36" d="M 2113 2584 
Q 1688 2584 1439 2293 
Q 1191 2003 1191 1497 
Q 1191 994 1439 701 
Q 1688 409 2113 409 
Q 2538 409 2786 701 
Q 3034 994 3034 1497 
Q 3034 2003 2786 2293 
Q 2538 2584 2113 2584 
z
M 3366 4563 
L 3366 3988 
Q 3128 4100 2886 4159 
Q 2644 4219 2406 4219 
Q 1781 4219 1451 3797 
Q 1122 3375 1075 2522 
Q 1259 2794 1537 2939 
Q 1816 3084 2150 3084 
Q 2853 3084 3261 2657 
Q 3669 2231 3669 1497 
Q 3669 778 3244 343 
Q 2819 -91 2113 -91 
Q 1303 -91 875 529 
Q 447 1150 447 2328 
Q 447 3434 972 4092 
Q 1497 4750 2381 4750 
Q 2619 4750 2861 4703 
Q 3103 4656 3366 4563 
z
" transform="scale(0.015625)"/>
     </defs>
     <use xlink:href="#DejaVuSans-36"/>
     <use xlink:href="#DejaVuSans-32" transform="translate(63.623047 0)"/>
     <use xlink:href="#DejaVuSans-35" transform="translate(127.246094 0)"/>
     <use xlink:href="#DejaVuSans-36" transform="translate(190.869141 0)"/>
    </g>
   </g>
  </g>
 </g>
 <defs>
  <clipPath id="p1c114a6b17">
   <rect x="43.78125" y="22.318125" width="282.49" height="75.16"/>
  </clipPath>
 </defs>
</svg>
