<?xml version="1.0" encoding="utf-8" standalone="no"?>
<!DOCTYPE svg PUBLIC "-//W3C//DTD SVG 1.1//EN"
  "http://www.w3.org/Graphics/SVG/1.1/DTD/svg11.dtd">
<svg xmlns:xlink="http://www.w3.org/1999/xlink" width="346.19625pt" height="135.034375pt" viewBox="0 0 346.19625 135.034375" xmlns="http://www.w3.org/2000/svg" version="1.1">
 <metadata>
  <rdf:RDF xmlns:dc="http://purl.org/dc/elements/1.1/" xmlns:cc="http://creativecommons.org/ns#" xmlns:rdf="http://www.w3.org/1999/02/22-rdf-syntax-ns#">
   <cc:Work>
    <dc:type rdf:resource="http://purl.org/dc/dcmitype/StillImage"/>
    <dc:date>2026-03-03T16:03:48.700549</dc:date>
    <dc:format>image/svg+xml</dc:format>
    <dc:creator>
     <cc:Agent>
      <dc:title>Matplotlib v3.10.1, https://matplotlib.org/</dc:title>
     </cc:Agent>
    </dc:creator>
   </cc:Work>
  </rdf:RDF>
 </metadata>
 <defs>
  <style type="text/css">*{stroke-linejoin: round; stroke-linecap: butt}</style>
 </defs>
 <g id="figure_1">
  <g id="patch_1">
   <path d="M 0 135.034375 
L 346.19625 135.034375 
L 346.19625 0 
L 0 0 
z
" style="fill: #ffffff"/>
  </g>
  <g id="axes_1">
   <g id="patch_2">
    <path d="M 43.78125 97.478125 
L 326.27125 97.478125 
L 326.27125 22.318125 
L 43.78125 22.318125 
z
" style="fill: #ffffff"/>
   </g>
   <g id="matplotlib.axis_1">
    <g id="xtick_1">
     <g id="line2d_1">
      <defs>
       <path id="m397313eb15" d="M 0 0 
L 0 3.5 
" style="stroke: #000000; stroke-width: 0.8"/>
      </defs>
      <g>
       <use xlink:href="#m397313eb15" x="43.78125" y="97.478125" style="stroke: #000000; stroke-width: 0.8"/>
      </g>
     </g>
     <g id="text_1">
      <!-- 900 -->
      <g transform="translate(34.2375 112.076563) scale(0.1 -0.1)">
       <defs>
        <path id="DejaVuSans-39" d="M 703 97 
L 703 672 
Q 941 559 1184 500 
Q 1428 441 1663 441 
Q 2288 441 2617 861 
Q 2947 1281 2994 2138 
Q 2813 1869 2534 1725 
Q 2256 1581 1919 1581 
Q 1219 1581 811 2004 
Q 403 2428 403 3163 
Q 403 3881 828 4315 
Q 1253 4750 1959 4750 
Q 2769 4750 3195 4129 
Q 3622 3509 3622 2328 
Q 3622 1225 3098 567 
Q 2575 -91 1691 -91 
Q 1453 -91 1209 -44 
Q 966 3 703 97 
z
M 1959 2075 
Q 2384 2075 2632 2365 
Q 2881 2656 2881 3163 
Q 2881 3666 2632 3958 
Q 2384 4250 1959 4250 
Q 1534 4250 1286 3958 
Q 1038 3666 1038 3163 
Q 1038 2656 1286 2365 
Q 1534 2075 1959 2075 
z
" transform="scale(0.015625)"/>
        <path id="DejaVuSans-30" d="M 2034 4250 
Q 1547 4250 1301 3770 
Q 1056 3291 1056 2328 
Q 1056 1369 1301 889 
Q 1547 409 2034 409 
Q 2525 409 2770 889 
Q 3016 1369 3016 2328 
Q 3016 3291 2770 3770 
Q 2525 4250 2034 4250 
z
M 2034 4750 
Q 2819 4750 3233 4129 
Q 3647 3509 3647 2328 
Q 3647 1150 3233 529 
Q 2819 -91 2034 -91 
Q 1250 -91 836 529 
Q 422 1150 422 2328 
Q 422 3509 836 4129 
Q 1250 4750 2034 4750 
z
" transform="scale(0.015625)"/>
       </defs>
       <use xlink:href="#DejaVuSans-39"/>
       <use xlink:href="#DejaVuSans-30" transform="translate(63.623047 0)"/>
       <use xlink:href="#DejaVuSans-30" transform="translate(127.246094 0)"/>
      </g>
     </g>
    </g>
    <g id="xtick_2">
     <g id="line2d_2">
      <g>
       <use xlink:href="#m397313eb15" x="79.0925" y="97.478125" style="stroke: #000000; stroke-width: 0.8"/>
      </g>
     </g>
     <g id="text_2">
      <!-- 925 -->
      <g transform="translate(69.54875 112.076563) scale(0.1 -0.1)">
       <defs>
        <path id="DejaVuSans-32" d="M 1228 531 
L 3431 531 
L 3431 0 
L 469 0 
L 469 531 
Q 828 903 1448 1529 
Q 2069 2156 2228 2338 
Q 2531 2678 2651 2914 
Q 2772 3150 2772 3378 
Q 2772 3750 2511 3984 
Q 2250 4219 1831 4219 
Q 1534 4219 1204 4116 
Q 875 4013 500 3803 
L 500 4441 
Q 881 4594 1212 4672 
Q 1544 4750 1819 4750 
Q 2544 4750 2975 4387 
Q 3406 4025 3406 3419 
Q 3406 3131 3298 2873 
Q 3191 2616 2906 2266 
Q 2828 2175 2409 1742 
Q 1991 1309 1228 531 
z
" transform="scale(0.015625)"/>
        <path id="DejaVuSans-35" d="M 691 4666 
L 3169 4666 
L 3169 4134 
L 1269 4134 
L 1269 2991 
Q 1406 3038 1543 3061 
Q 1681 3084 1819 3084 
Q 2600 3084 3056 2656 
Q 3513 2228 3513 1497 
Q 3513 744 3044 326 
Q 2575 -91 1722 -91 
Q 1428 -91 1123 -41 
Q 819 9 494 109 
L 494 744 
Q 775 591 1075 516 
Q 1375 441 1709 441 
Q 2250 441 2565 725 
Q 2881 1009 2881 1497 
Q 2881 1984 2565 2268 
Q 2250 2553 1709 2553 
Q 1456 2553 1204 2497 
Q 953 2441 691 2322 
L 691 4666 
z
" transform="scale(0.015625)"/>
       </defs>
       <use xlink:href="#DejaVuSans-39"/>
       <use xlink:href="#DejaVuSans-32" transform="translate(63.623047 0)"/>
       <use xlink:href="#DejaVuSans-35" transform="translate(127.246094 0)"/>
      </g>
     </g>
    </g>
    <g id="xtick_3">
     <g id="line2d_3">
      <g>
       <use xlink:href="#m397313eb15" x="114.40375" y="97.478125" style="stroke: #000000; stroke-width: 0.8"/>
      </g>
     </g>
     <g id="text_3">
      <!-- 950 -->
      <g transform="translate(104.86 112.076563) scale(0.1 -0.1)">
       <use xlink:href="#DejaVuSans-39"/>
       <use xlink:href="#DejaVuSans-35" transform="translate(63.623047 0)"/>
       <use xlink:href="#DejaVuSans-30" transform="translate(127.246094 0)"/>
      </g>
     </g>
    </g>
    <g id="xtick_4">
     <g id="line2d_4">
      <g>
       <use xlink:href="#m397313eb15" x="149.715" y="97.478125" style="stroke: #000000; stroke-width: 0.8"/>
      </g>
     </g>
     <g id="text_4">
      <!-- 975 -->
      <g transform="translate(140.17125 112.076563) scale(0.1 -0.1)">
       <defs>
        <path id="DejaVuSans-37" d="M 525 4666 
L 3525 4666 
L 3525 4397 
L 1831 0 
L 1172 0 
L 2766 4134 
L 525 4134 
L 525 4666 
z
" transform="scale(0.015625)"/>
       </defs>
       <use xlink:href="#DejaVuSans-39"/>
       <use xlink:href="#DejaVuSans-37" transform="translate(63.623047 0)"/>
       <use xlink:href="#DejaVuSans-35" transform="translate(127.246094 0)"/>
      </g>
     </g>
    </g>
    <g id="xtick_5">
     <g id="line2d_5">
      <g>
       <use xlink:href="#m397313eb15" x="185.02625" y="97.478125" style="stroke: #000000; stroke-width: 0.8"/>
      </g>
     </g>
     <g id="text_5">
      <!-- 1000 -->
      <g transform="translate(172.30125 112.076563) scale(0.1 -0.1)">
       <defs>
        <path id="DejaVuSans-31" d="M 794 531 
L 1825 531 
L 1825 4091 
L 703 3866 
L 703 4441 
L 1819 4666 
L 2450 4666 
L 2450 531 
L 3481 531 
L 3481 0 
L 794 0 
L 794 531 
z
" transform="scale(0.015625)"/>
       </defs>
       <use xlink:href="#DejaVuSans-31"/>
       <use xlink:href="#DejaVuSans-30" transform="translate(63.623047 0)"/>
       <use xlink:href="#DejaVuSans-30" transform="translate(127.246094 0)"/>
       <use xlink:href="#DejaVuSans-30" transform="translate(190.869141 0)"/>
      </g>
     </g>
    </g>
    <g id="xtick_6">
     <g id="line2d_6">
      <g>
       <use xlink:href="#m397313eb15" x="220.3375" y="97.478125" style="stroke: #000000; stroke-width: 0.8"/>
      </g>
     </g>
     <g id="text_6">
      <!-- 1025 -->
      <g transform="translate(207.6125 112.076563) scale(0.1 -0.1)">
       <use xlink:href="#DejaVuSans-31"/>
       <use xlink:href="#DejaVuSans-30" transform="translate(63.623047 0)"/>
       <use xlink:href="#DejaVuSans-32" transform="translate(127.246094 0)"/>
       <use xlink:href="#DejaVuSans-35" transform="translate(190.869141 0)"/>
      </g>
     </g>
    </g>
    <g id="xtick_7">
     <g id="line2d_7">
      <g>
       <use xlink:href="#m397313eb15" x="255.64875" y="97.478125" style="stroke: #000000; stroke-width: 0.8"/>
      </g>
     </g>
     <g id="text_7">
      <!-- 1050 -->
      <g transform="translate(242.92375 112.076563) scale(0.1 -0.1)">
       <use xlink:href="#DejaVuSans-31"/>
       <use xlink:href="#DejaVuSans-30" transform="translate(63.623047 0)"/>
       <use xlink:href="#DejaVuSans-35" transform="translate(127.246094 0)"/>
       <use xlink:href="#DejaVuSans-30" transform="translate(190.869141 0)"/>
      </g>
     </g>
    </g>
    <g id="xtick_8">
     <g id="line2d_8">
      <g>
       <use xlink:href="#m397313eb15" x="290.96" y="97.478125" style="stroke: #000000; stroke-width: 0.8"/>
      </g>
     </g>
     <g id="text_8">
      <!-- 1075 -->
      <g transform="translate(278.235 112.076563) scale(0.1 -0.1)">
       <use xlink:href="#DejaVuSans-31"/>
       <use xlink:href="#DejaVuSans-30" transform="translate(63.623047 0)"/>
       <use xlink:href="#DejaVuSans-37" transform="translate(127.246094 0)"/>
       <use xlink:href="#DejaVuSans-35" transform="translate(190.869141 0)"/>
      </g>
     </g>
    </g>
    <g id="xtick_9">
     <g id="line2d_9">
      <g>
       <use xlink:href="#m397313eb15" x="326.27125" y="97.478125" style="stroke: #000000; stroke-width: 0.8"/>
      </g>
     </g>
     <g id="text_9">
      <!-- 1100 -->
      <g transform="translate(313.54625 112.076563) scale(0.1 -0.1)">
       <use xlink:href="#DejaVuSans-31"/>
       <use xlink:href="#DejaVuSans-31" transform="translate(63.623047 0)"/>
       <use xlink:href="#DejaVuSans-30" transform="translate(127.246094 0)"/>
       <use xlink:href="#DejaVuSans-30" transform="translate(190.869141 0)"/>
      </g>
     </g>
    </g>
    <g id="text_10">
     <!-- Energy (eV) -->
     <g transform="translate(155.5325 125.754688) scale(0.1 -0.1)">
      <defs>
       <path id="DejaVuSans-45" d="M 628 4666 
L 3578 4666 
L 3578 4134 
L 1259 4134 
L 1259 2753 
L 3481 2753 
L 3481 2222 
L 1259 2222 
L 1259 531 
L 3634 531 
L 3634 0 
L 628 0 
L 628 4666 
z
" transform="scale(0.015625)"/>
       <path id="DejaVuSans-6e" d="M 3513 2113 
L 3513 0 
L 2938 0 
L 2938 2094 
Q 2938 2591 2744 2837 
Q 2550 3084 2163 3084 
Q 1697 3084 1428 2787 
Q 1159 2491 1159 1978 
L 1159 0 
L 581 0 
L 581 3500 
L 1159 3500 
L 1159 2956 
Q 1366 3272 1645 3428 
Q 1925 3584 2291 3584 
Q 2894 3584 3203 3211 
Q 3513 2838 3513 2113 
z
" transform="scale(0.015625)"/>
       <path id="DejaVuSans-65" d="M 3597 1894 
L 3597 1613 
L 953 1613 
Q 991 1019 1311 708 
Q 1631 397 2203 397 
Q 2534 397 2845 478 
Q 3156 559 3463 722 
L 3463 178 
Q 3153 47 2828 -22 
Q 2503 -91 2169 -91 
Q 1331 -91 842 396 
Q 353 884 353 1716 
Q 353 2575 817 3079 
Q 1281 3584 2069 3584 
Q 2775 3584 3186 3129 
Q 3597 2675 3597 1894 
z
M 3022 2063 
Q 3016 2534 2758 2815 
Q 2500 3097 2075 3097 
Q 1594 3097 1305 2825 
Q 1016 2553 972 2059 
L 3022 2063 
z
" transform="scale(0.015625)"/>
       <path id="DejaVuSans-72" d="M 2631 2963 
Q 2534 3019 2420 3045 
Q 2306 3072 2169 3072 
Q 1681 3072 1420 2755 
Q 1159 2438 1159 1844 
L 1159 0 
L 581 0 
L 581 3500 
L 1159 3500 
L 1159 2956 
Q 1341 3275 1631 3429 
Q 1922 3584 2338 3584 
Q 2397 3584 2469 3576 
Q 2541 3569 2628 3553 
L 2631 2963 
z
" transform="scale(0.015625)"/>
       <path id="DejaVuSans-67" d="M 2906 1791 
Q 2906 2416 2648 2759 
Q 2391 3103 1925 3103 
Q 1463 3103 1205 2759 
Q 947 2416 947 1791 
Q 947 1169 1205 825 
Q 1463 481 1925 481 
Q 2391 481 2648 825 
Q 2906 1169 2906 1791 
z
M 3481 434 
Q 3481 -459 3084 -895 
Q 2688 -1331 1869 -1331 
Q 1566 -1331 1297 -1286 
Q 1028 -1241 775 -1147 
L 775 -588 
Q 1028 -725 1275 -790 
Q 1522 -856 1778 -856 
Q 2344 -856 2625 -561 
Q 2906 -266 2906 331 
L 2906 616 
Q 2728 306 2450 153 
Q 2172 0 1784 0 
Q 1141 0 747 490 
Q 353 981 353 1791 
Q 353 2603 747 3093 
Q 1141 3584 1784 3584 
Q 2172 3584 2450 3431 
Q 2728 3278 2906 2969 
L 2906 3500 
L 3481 3500 
L 3481 434 
z
" transform="scale(0.015625)"/>
       <path id="DejaVuSans-79" d="M 2059 -325 
Q 1816 -950 1584 -1140 
Q 1353 -1331 966 -1331 
L 506 -1331 
L 506 -850 
L 844 -850 
Q 1081 -850 1212 -737 
Q 1344 -625 1503 -206 
L 1606 56 
L 191 3500 
L 800 3500 
L 1894 763 
L 2988 3500 
L 3597 3500 
L 2059 -325 
z
" transform="scale(0.015625)"/>
       <path id="DejaVuSans-20" transform="scale(0.015625)"/>
       <path id="DejaVuSans-28" d="M 1984 4856 
Q 1566 4138 1362 3434 
Q 1159 2731 1159 2009 
Q 1159 1288 1364 580 
Q 1569 -128 1984 -844 
L 1484 -844 
Q 1016 -109 783 600 
Q 550 1309 550 2009 
Q 550 2706 781 3412 
Q 1013 4119 1484 4856 
L 1984 4856 
z
" transform="scale(0.015625)"/>
       <path id="DejaVuSans-56" d="M 1831 0 
L 50 4666 
L 709 4666 
L 2188 738 
L 3669 4666 
L 4325 4666 
L 2547 0 
L 1831 0 
z
" transform="scale(0.015625)"/>
       <path id="DejaVuSans-29" d="M 513 4856 
L 1013 4856 
Q 1481 4119 1714 3412 
Q 1947 2706 1947 2009 
Q 1947 1309 1714 600 
Q 1481 -109 1013 -844 
L 513 -844 
Q 928 -128 1133 580 
Q 1338 1288 1338 2009 
Q 1338 2731 1133 3434 
Q 928 4138 513 4856 
z
" transform="scale(0.015625)"/>
      </defs>
      <use xlink:href="#DejaVuSans-45"/>
      <use xlink:href="#DejaVuSans-6e" transform="translate(63.183594 0)"/>
      <use xlink:href="#DejaVuSans-65" transform="translate(126.5625 0)"/>
      <use xlink:href="#DejaVuSans-72" transform="translate(188.085938 0)"/>
      <use xlink:href="#DejaVuSans-67" transform="translate(227.449219 0)"/>
      <use xlink:href="#DejaVuSans-79" transform="translate(290.925781 0)"/>
      <use xlink:href="#DejaVuSans-20" transform="translate(350.105469 0)"/>
      <use xlink:href="#DejaVuSans-28" transform="translate(381.892578 0)"/>
      <use xlink:href="#DejaVuSans-65" transform="translate(420.90625 0)"/>
      <use xlink:href="#DejaVuSans-56" transform="translate(482.429688 0)"/>
      <use xlink:href="#DejaVuSans-29" transform="translate(550.837891 0)"/>
     </g>
    </g>
   </g>
   <g id="matplotlib.axis_2">
    <g id="ytick_1">
     <g id="line2d_10">
      <defs>
       <path id="mf6952fb3ac" d="M 0 0 
L -3.5 0 
" style="stroke: #000000; stroke-width: 0.8"/>
      </defs>
      <g>
       <use xlink:href="#mf6952fb3ac" x="43.78125" y="94.061761" style="stroke: #000000; stroke-width: 0.8"/>
      </g>
     </g>
     <g id="text_11">
      <!-- 0.0 -->
      <g transform="translate(20.878125 97.86098) scale(0.1 -0.1)">
       <defs>
        <path id="DejaVuSans-2e" d="M 684 794 
L 1344 794 
L 1344 0 
L 684 0 
L 684 794 
z
" transform="scale(0.015625)"/>
       </defs>
       <use xlink:href="#DejaVuSans-30"/>
       <use xlink:href="#DejaVuSans-2e" transform="translate(63.623047 0)"/>
       <use xlink:href="#DejaVuSans-30" transform="translate(95.410156 0)"/>
      </g>
     </g>
    </g>
    <g id="ytick_2">
     <g id="line2d_11">
      <g>
       <use xlink:href="#mf6952fb3ac" x="43.78125" y="59.898125" style="stroke: #000000; stroke-width: 0.8"/>
      </g>
     </g>
     <g id="text_12">
      <!-- 0.5 -->
      <g transform="translate(20.878125 63.697344) scale(0.1 -0.1)">
       <use xlink:href="#DejaVuSans-30"/>
       <use xlink:href="#DejaVuSans-2e" transform="translate(63.623047 0)"/>
       <use xlink:href="#DejaVuSans-35" transform="translate(95.410156 0)"/>
      </g>
     </g>
    </g>
    <g id="ytick_3">
     <g id="line2d_12">
      <g>
       <use xlink:href="#mf6952fb3ac" x="43.78125" y="25.734489" style="stroke: #000000; stroke-width: 0.8"/>
      </g>
     </g>
     <g id="text_13">
      <!-- 1.0 -->
      <g transform="translate(20.878125 29.533707) scale(0.1 -0.1)">
       <use xlink:href="#DejaVuSans-31"/>
       <use xlink:href="#DejaVuSans-2e" transform="translate(63.623047 0)"/>
       <use xlink:href="#DejaVuSans-30" transform="translate(95.410156 0)"/>
      </g>
     </g>
    </g>
    <g id="text_14">
     <!-- Intensity (a.u.) -->
     <g transform="translate(14.798438 96.562187) rotate(-90) scale(0.1 -0.1)">
      <defs>
       <path id="DejaVuSans-49" d="M 628 4666 
L 1259 4666 
L 1259 0 
L 628 0 
L 628 4666 
z
" transform="scale(0.015625)"/>
       <path id="DejaVuSans-74" d="M 1172 4494 
L 1172 3500 
L 2356 3500 
L 2356 3053 
L 1172 3053 
L 1172 1153 
Q 1172 725 1289 603 
Q 1406 481 1766 481 
L 2356 481 
L 2356 0 
L 1766 0 
Q 1100 0 847 248 
Q 594 497 594 1153 
L 594 3053 
L 172 3053 
L 172 3500 
L 594 3500 
L 594 4494 
L 1172 4494 
z
" transform="scale(0.015625)"/>
       <path id="DejaVuSans-73" d="M 2834 3397 
L 2834 2853 
Q 2591 2978 2328 3040 
Q 2066 3103 1784 3103 
Q 1356 3103 1142 2972 
Q 928 2841 928 2578 
Q 928 2378 1081 2264 
Q 1234 2150 1697 2047 
L 1894 2003 
Q 2506 1872 2764 1633 
Q 3022 1394 3022 966 
Q 3022 478 2636 193 
Q 2250 -91 1575 -91 
Q 1294 -91 989 -36 
Q 684 19 347 128 
L 347 722 
Q 666 556 975 473 
Q 1284 391 1588 391 
Q 1994 391 2212 530 
Q 2431 669 2431 922 
Q 2431 1156 2273 1281 
Q 2116 1406 1581 1522 
L 1381 1569 
Q 847 1681 609 1914 
Q 372 2147 372 2553 
Q 372 3047 722 3315 
Q 1072 3584 1716 3584 
Q 2034 3584 2315 3537 
Q 2597 3491 2834 3397 
z
" transform="scale(0.015625)"/>
       <path id="DejaVuSans-69" d="M 603 3500 
L 1178 3500 
L 1178 0 
L 603 0 
L 603 3500 
z
M 603 4863 
L 1178 4863 
L 1178 4134 
L 603 4134 
L 603 4863 
z
" transform="scale(0.015625)"/>
       <path id="DejaVuSans-61" d="M 2194 1759 
Q 1497 1759 1228 1600 
Q 959 1441 959 1056 
Q 959 750 1161 570 
Q 1363 391 1709 391 
Q 2188 391 2477 730 
Q 2766 1069 2766 1631 
L 2766 1759 
L 2194 1759 
z
M 3341 1997 
L 3341 0 
L 2766 0 
L 2766 531 
Q 2569 213 2275 61 
Q 1981 -91 1556 -91 
Q 1019 -91 701 211 
Q 384 513 384 1019 
Q 384 1609 779 1909 
Q 1175 2209 1959 2209 
L 2766 2209 
L 2766 2266 
Q 2766 2663 2505 2880 
Q 2244 3097 1772 3097 
Q 1472 3097 1187 3025 
Q 903 2953 641 2809 
L 641 3341 
Q 956 3463 1253 3523 
Q 1550 3584 1831 3584 
Q 2591 3584 2966 3190 
Q 3341 2797 3341 1997 
z
" transform="scale(0.015625)"/>
       <path id="DejaVuSans-75" d="M 544 1381 
L 544 3500 
L 1119 3500 
L 1119 1403 
Q 1119 906 1312 657 
Q 1506 409 1894 409 
Q 2359 409 2629 706 
Q 2900 1003 2900 1516 
L 2900 3500 
L 3475 3500 
L 3475 0 
L 2900 0 
L 2900 538 
Q 2691 219 2414 64 
Q 2138 -91 1772 -91 
Q 1169 -91 856 284 
Q 544 659 544 1381 
z
M 1991 3584 
L 1991 3584 
z
" transform="scale(0.015625)"/>
      </defs>
      <use xlink:href="#DejaVuSans-49"/>
      <use xlink:href="#DejaVuSans-6e" transform="translate(29.492188 0)"/>
      <use xlink:href="#DejaVuSans-74" transform="translate(92.871094 0)"/>
      <use xlink:href="#DejaVuSans-65" transform="translate(132.080078 0)"/>
      <use xlink:href="#DejaVuSans-6e" transform="translate(193.603516 0)"/>
      <use xlink:href="#DejaVuSans-73" transform="translate(256.982422 0)"/>
      <use xlink:href="#DejaVuSans-69" transform="translate(309.082031 0)"/>
      <use xlink:href="#DejaVuSans-74" transform="translate(336.865234 0)"/>
      <use xlink:href="#DejaVuSans-79" transform="translate(376.074219 0)"/>
      <use xlink:href="#DejaVuSans-20" transform="translate(435.253906 0)"/>
      <use xlink:href="#DejaVuSans-28" transform="translate(467.041016 0)"/>
      <use xlink:href="#DejaVuSans-61" transform="translate(506.054688 0)"/>
      <use xlink:href="#DejaVuSans-2e" transform="translate(567.333984 0)"/>
      <use xlink:href="#DejaVuSans-75" transform="translate(599.121094 0)"/>
      <use xlink:href="#DejaVuSans-2e" transform="translate(662.5 0)"/>
      <use xlink:href="#DejaVuSans-29" transform="translate(694.287109 0)"/>
     </g>
    </g>
   </g>
   <g id="line2d_13">
    <path d="M 46.558265 93.668574 
L 46.812048 93.683117 
L 46.93894 93.596484 
L 47.065832 93.753421 
L 47.192724 93.620946 
L 47.446508 93.695494 
L 47.573399 93.567359 
L 47.700291 93.740177 
L 48.842318 93.571176 
L 48.96921 93.656114 
L 49.096102 93.392789 
L 49.222994 93.562605 
L 49.476777 93.355854 
L 49.730561 93.534105 
L 50.238128 93.06505 
L 50.491912 93.128708 
L 50.618804 92.884135 
L 50.745696 93.058876 
L 50.872588 92.889615 
L 51.760831 93.365139 
L 51.887723 93.145042 
L 52.141506 93.229176 
L 52.39529 92.965667 
L 52.775966 93.230713 
L 52.902858 93.112825 
L 53.029749 93.381183 
L 53.156641 93.222273 
L 53.410425 93.382423 
L 53.664209 92.913224 
L 53.917992 93.172005 
L 54.298668 92.996971 
L 54.552452 93.328623 
L 54.679344 93.312895 
L 54.806235 93.135203 
L 54.933128 93.23364 
L 55.060019 92.930537 
L 55.313803 93.097479 
L 55.694479 92.953989 
L 55.948262 93.282316 
L 56.202046 93.110806 
L 56.455829 93.295546 
L 56.582722 93.091309 
L 56.709614 93.159932 
L 56.963397 93.066593 
L 57.217181 93.119933 
L 57.470965 93.086203 
L 57.85164 93.22212 
L 58.359208 93.238821 
L 58.4861 93.199698 
L 58.612991 93.402905 
L 58.993667 93.271306 
L 59.501234 93.085224 
L 59.755018 93.228224 
L 59.881909 92.921803 
L 60.262586 92.817144 
L 60.389478 92.988959 
L 60.643261 92.599737 
L 60.897045 92.638933 
L 61.27772 92.04373 
L 61.404612 92.206456 
L 61.785289 91.690424 
L 61.91218 91.888626 
L 62.039072 91.40262 
L 62.165964 91.445672 
L 62.292856 91.667182 
L 62.800423 90.956539 
L 63.054206 90.698768 
L 63.434883 89.926267 
L 63.561774 90.085006 
L 63.94245 88.457994 
L 64.069341 88.386115 
L 64.830693 86.605397 
L 64.957585 86.764106 
L 65.084477 87.274975 
L 65.211369 87.2174 
L 65.592044 86.535042 
L 65.845827 86.321035 
L 65.972719 87.046686 
L 66.099611 86.954894 
L 66.353394 86.273369 
L 66.480288 87.144705 
L 66.734071 86.824892 
L 67.114746 89.059556 
L 67.241638 88.904189 
L 67.36853 88.610741 
L 67.495421 89.35943 
L 67.622313 88.969721 
L 67.749205 89.278843 
L 67.876097 88.613626 
L 68.129882 89.076075 
L 68.256773 89.109566 
L 68.510557 89.998174 
L 68.76434 89.938962 
L 68.891232 90.339621 
L 69.018124 90.265641 
L 69.145016 89.987569 
L 69.525691 90.441982 
L 69.779476 89.559617 
L 69.906368 89.71172 
L 70.033259 89.552826 
L 70.160151 89.854829 
L 70.413935 89.032578 
L 70.540826 88.607666 
L 70.667718 89.271828 
L 70.921501 87.63382 
L 71.048393 87.707929 
L 71.175286 87.669082 
L 71.302178 87.384864 
L 71.682853 85.022212 
L 72.317312 82.232548 
L 72.571096 79.100984 
L 72.697987 78.451349 
L 73.205554 66.984623 
L 73.586233 56.20558 
L 74.0938 44.732052 
L 74.474475 30.017345 
L 74.601367 28.965466 
L 74.728258 29.705432 
L 74.85515 28.477607 
L 74.982042 25.734489 
L 75.235825 31.392463 
L 75.362717 31.195554 
L 75.489609 30.319458 
L 75.743392 40.851811 
L 76.124067 48.010064 
L 76.377851 53.150521 
L 76.504743 53.656317 
L 77.139204 68.283461 
L 77.51988 71.145705 
L 78.027447 80.596865 
L 78.154338 80.586453 
L 78.661905 84.843585 
L 78.915689 87.085509 
L 79.803931 89.789956 
L 79.930826 89.608304 
L 80.057717 90.178124 
L 80.184609 90.108944 
L 80.311501 90.763349 
L 80.438393 90.551292 
L 80.94596 91.791289 
L 81.072851 91.457596 
L 81.453527 92.24474 
L 81.580418 92.214565 
L 81.834202 91.998053 
L 82.214877 92.032077 
L 82.341769 92.24798 
L 82.595552 92.280507 
L 82.976227 92.834431 
L 83.356906 92.415843 
L 83.483797 92.676294 
L 83.610689 92.609752 
L 83.737581 92.973005 
L 84.118256 92.66491 
L 84.245148 93.066868 
L 84.498931 92.819723 
L 84.752715 92.867114 
L 84.879607 93.15274 
L 85.13339 93.156392 
L 85.387174 93.257365 
L 85.640957 93.061184 
L 85.767849 93.147746 
L 85.894741 93.058713 
L 86.148524 93.364087 
L 86.529202 93.234246 
L 86.656094 93.273108 
L 86.909877 93.182989 
L 87.036769 93.229723 
L 87.163661 93.08254 
L 87.290553 93.357279 
L 87.417444 93.094732 
L 87.671228 93.473928 
L 87.79812 93.470175 
L 88.051903 93.35885 
L 88.305687 93.266282 
L 88.432578 93.521064 
L 88.813254 93.337996 
L 89.067037 93.418832 
L 89.320821 93.361136 
L 89.574607 93.562305 
L 89.701499 93.283466 
L 89.955282 93.351309 
L 90.209066 93.282442 
L 90.335958 93.551087 
L 90.462849 93.357015 
L 90.589741 93.483412 
L 90.716633 93.319028 
L 90.843524 93.479893 
L 90.970416 93.428464 
L 91.097308 93.533201 
L 91.351091 93.501426 
L 91.477983 93.591448 
L 91.731767 93.448617 
L 91.98555 93.614389 
L 92.112442 93.705311 
L 92.366225 93.588204 
L 93.381362 93.492298 
L 93.508254 93.638885 
L 93.888929 93.511252 
L 95.157847 93.662853 
L 95.41163 93.561101 
L 95.792308 93.663576 
L 96.680551 93.569827 
L 96.934334 93.699652 
L 97.441904 93.630288 
L 97.695688 93.657016 
L 98.07636 93.626962 
L 99.218388 93.735284 
L 99.472172 93.586555 
L 99.725955 93.639257 
L 101.375551 93.588233 
L 101.629335 93.774451 
L 102.136902 93.755654 
L 102.517574 93.775876 
L 102.771357 93.654962 
L 103.025141 93.777926 
L 103.405819 93.886723 
L 103.659602 93.7397 
L 104.167169 93.743702 
L 105.68987 93.745719 
L 105.816765 93.586597 
L 106.197437 93.823019 
L 108.3546 93.809932 
L 108.735278 93.759536 
L 109.623517 93.8626 
L 110.384874 93.846319 
L 112.415142 93.787045 
L 113.430276 93.836272 
L 113.684059 93.753999 
L 115.714327 93.702142 
L 115.841222 93.86569 
L 116.348789 93.725643 
L 116.729467 93.817491 
L 117.363923 93.784515 
L 117.617706 93.86489 
L 117.998384 93.836772 
L 118.379056 93.795676 
L 118.63284 93.852678 
L 118.886623 93.814066 
L 119.267302 93.856116 
L 119.901763 93.793237 
L 121.29757 93.804956 
L 121.805136 93.815886 
L 122.947165 93.832181 
L 125.611895 93.795911 
L 125.738783 93.88763 
L 125.992573 93.811195 
L 126.373245 93.863682 
L 127.388379 93.918214 
L 127.895946 93.822225 
L 128.530408 93.890383 
L 130.68757 93.783389 
L 130.814459 93.894952 
L 130.941354 93.797615 
L 131.322026 93.84915 
L 132.464055 93.84137 
L 132.971622 93.907731 
L 133.225405 93.802831 
L 133.479189 93.887716 
L 134.11365 93.791936 
L 134.367434 93.76704 
L 135.382568 93.848649 
L 135.509463 93.773984 
L 135.890135 93.840562 
L 138.047297 93.746239 
L 138.174186 93.903263 
L 138.554864 93.824034 
L 140.712027 93.895529 
L 140.965811 93.822765 
L 142.996078 93.86231 
L 143.63054 93.800129 
L 144.011212 93.815369 
L 144.518779 93.845947 
L 145.407024 93.877672 
L 145.787703 93.787453 
L 146.168375 93.935507 
L 147.183509 93.858289 
L 148.071754 93.843258 
L 148.452426 93.914033 
L 148.706216 93.84411 
L 148.959993 93.91326 
L 149.340678 93.87793 
L 150.482694 93.841431 
L 151.751618 93.839382 
L 160.76094 93.847185 
L 161.141612 93.906805 
L 161.522297 93.862233 
L 161.776074 93.836485 
L 162.156746 93.901025 
L 163.044998 93.871383 
L 163.17188 93.809325 
L 163.42567 93.918525 
L 163.933237 93.885265 
L 164.821476 93.867595 
L 165.075265 93.766403 
L 165.455938 93.870244 
L 165.709727 93.837133 
L 166.724861 93.852595 
L 167.359323 93.871006 
L 167.6131 93.93317 
L 167.86689 93.888121 
L 170.27783 93.854819 
L 170.531619 93.907706 
L 170.658502 93.842123 
L 170.912292 93.884694 
L 174.592155 93.866396 
L 175.3535 93.897019 
L 175.734184 93.851408 
L 177.764452 93.88241 
L 178.272019 93.901001 
L 178.90648 93.859511 
L 184.743507 93.788679 
L 185.124179 93.767699 
L 185.377956 93.848836 
L 185.75864 93.802366 
L 188.16958 93.661808 
L 188.42337 93.599045 
L 189.692281 93.509866 
L 190.199848 93.647664 
L 190.83431 93.515413 
L 191.0881 93.63968 
L 193.625934 93.637743 
L 194.387279 93.594959 
L 194.767963 93.604423 
L 195.402413 93.636507 
L 195.529308 93.721692 
L 195.783097 93.632859 
L 196.036874 93.643359 
L 196.544441 93.71006 
L 197.432693 93.706913 
L 197.68647 93.798655 
L 198.574709 93.734252 
L 201.239439 93.690057 
L 201.620123 93.71931 
L 203.269719 93.69742 
L 204.157958 93.684493 
L 204.411735 93.613367 
L 204.919302 93.616202 
L 205.680659 93.658811 
L 205.934448 93.605629 
L 206.315121 93.599022 
L 206.568898 93.621851 
L 206.822688 93.586958 
L 207.076465 93.589971 
L 207.584032 93.474629 
L 207.837822 93.471815 
L 208.091599 93.380171 
L 208.345388 93.435512 
L 210.121879 92.808733 
L 210.248762 92.740731 
L 210.502551 92.880813 
L 211.39079 91.889551 
L 211.517685 91.637275 
L 211.64458 91.679101 
L 211.898357 91.112492 
L 212.279042 90.202152 
L 212.405924 90.112515 
L 213.421058 86.534423 
L 213.928625 83.623132 
L 214.05552 83.370332 
L 214.689982 79.973658 
L 214.816876 80.014102 
L 215.451338 76.049548 
L 215.705115 75.983131 
L 215.83201 76.186639 
L 215.958905 75.175788 
L 216.085788 75.386531 
L 216.339577 76.831742 
L 216.466472 77.235493 
L 216.974039 80.712396 
L 217.227816 81.27451 
L 217.608489 84.647076 
L 217.862278 86.021229 
L 217.989173 86.220697 
L 218.116068 86.078036 
L 218.369845 87.177427 
L 218.750517 88.532271 
L 219.384979 91.545629 
L 219.638769 91.5089 
L 219.765651 91.608905 
L 220.019441 91.859684 
L 220.90768 92.763342 
L 221.161469 92.736663 
L 221.288364 92.763248 
L 221.669036 93.125277 
L 221.795931 93.022229 
L 222.049709 93.190802 
L 222.176603 93.17848 
L 222.430381 93.294872 
L 222.68417 93.354866 
L 222.937948 93.312861 
L 223.064843 93.356389 
L 223.191737 93.271151 
L 223.445515 93.491077 
L 223.826199 93.449945 
L 224.333766 93.543534 
L 224.841333 93.567774 
L 225.09511 93.434238 
L 226.110244 93.540302 
L 226.237139 93.47079 
L 226.617811 93.641925 
L 226.871601 93.481961 
L 227.125378 93.522103 
L 227.379168 93.396261 
L 227.506063 93.983333 
L 229.790108 93.995895 
L 230.805254 94.007926 
L 240.82971 93.965667 
L 246.920514 93.978311 
L 248.697004 94.018418 
L 252.376856 94.000953 
L 279.024152 93.91394 
L 279.277941 93.923908 
L 280.673759 93.934866 
L 283.338477 93.860536 
L 283.592266 93.875242 
L 283.846056 93.806291 
L 284.226716 93.879552 
L 285.114955 93.847806 
L 285.49564 93.876748 
L 286.003219 93.845705 
L 286.383879 93.804031 
L 287.399013 93.664973 
L 287.779697 93.553801 
L 288.667936 93.175247 
L 288.794831 93.227803 
L 289.68307 92.645333 
L 289.93686 92.544748 
L 290.063754 92.521172 
L 290.31752 92.151256 
L 290.571309 92.16502 
L 291.078888 93.063407 
L 291.205783 93.048239 
L 291.459548 92.519974 
L 291.840233 91.818772 
L 291.967127 91.831916 
L 292.094022 91.652985 
L 292.474682 91.73415 
L 292.601577 91.475975 
L 293.109156 91.999491 
L 293.489816 91.882246 
L 293.743606 91.929685 
L 294.12429 92.027272 
L 294.885634 92.390139 
L 295.139424 92.780442 
L 295.646979 92.500657 
L 296.408347 93.069103 
L 296.662113 93.069452 
L 297.042797 93.363224 
L 297.296587 93.35901 
L 297.677271 93.570397 
L 298.438615 93.605416 
L 298.692405 93.723009 
L 299.580644 93.832106 
L 300.088199 93.883265 
L 301.103333 93.904119 
L 301.484017 93.889021 
L 302.118467 93.917085 
L 306.179002 93.932947 
L 306.559687 93.942167 
L 307.321031 93.917622 
L 308.970639 93.959652 
L 309.478194 93.933362 
L 310.112667 93.940335 
L 312.016041 93.957174 
L 314.300098 93.976007 
L 315.061442 93.961857 
L 317.09171 93.967892 
L 318.106844 93.987795 
L 318.995083 93.972976 
L 326.35481 93.982022 
L 326.35481 93.982022 
" clip-path="url(#p43331c7cd8)" style="fill: none; stroke: #000000; stroke-width: 1.2; stroke-linecap: square"/>
   </g>
   <g id="line2d_14">
    <path d="M 46.558265 93.907826 
L 48.461643 93.739296 
L 48.842318 93.677512 
L 48.96921 93.540169 
L 49.476777 92.273388 
L 49.857453 75.608016 
L 49.984345 75.69575 
L 50.365021 86.056433 
L 50.618804 92.725656 
L 51.633939 93.745784 
L 53.410425 93.693896 
L 54.044884 93.602939 
L 54.42556 92.156783 
L 54.679344 90.984763 
L 55.186911 58.996893 
L 55.440695 85.38553 
L 55.567586 90.372042 
L 56.709614 93.664188 
L 59.755018 93.635149 
L 63.054206 93.379633 
L 63.181098 93.325236 
L 64.323125 91.365629 
L 64.450017 89.420284 
L 64.7038 67.437505 
L 65.084477 91.298958 
L 65.845827 92.901538 
L 67.114746 92.474305 
L 68.383665 90.046484 
L 69.652584 90.770071 
L 70.033259 90.134591 
L 71.048393 88.080013 
L 72.317312 81.489906 
L 73.713124 52.117746 
L 74.474475 25.734489 
L 75.235825 25.852662 
L 75.362717 26.07147 
L 76.377851 62.167397 
L 77.646771 83.221096 
L 79.04258 89.059499 
L 80.311501 91.122526 
L 81.834202 92.24655 
L 83.483797 92.87298 
L 85.260282 93.252693 
L 87.163661 93.484402 
L 91.351091 93.741386 
L 98.583927 93.907388 
L 113.55717 94.002911 
L 170.150935 94.053275 
L 172.68877 94.034868 
L 174.972827 94.053218 
L 188.677147 93.971132 
L 189.311609 93.756869 
L 189.438504 93.478547 
L 189.946071 91.128001 
L 190.072966 91.172511 
L 190.707415 93.760984 
L 191.849444 94.003794 
L 193.245262 93.943556 
L 193.625934 93.571301 
L 194.387279 93.946346 
L 195.783097 93.141734 
L 197.305798 94.030452 
L 208.97985 93.925844 
L 210.883223 93.72324 
L 213.040386 93.262846 
L 213.294175 92.780244 
L 214.563087 89.594126 
L 214.816876 85.833235 
L 215.197548 73.728043 
L 215.578221 73.700841 
L 215.83201 73.474704 
L 216.212682 73.465499 
L 216.339577 73.574389 
L 216.847144 84.887623 
L 217.481606 91.873826 
L 219.004307 93.472365 
L 221.161469 93.845102 
L 224.079976 93.973172 
L 232.327955 94.037889 
L 280.673759 94.03901 
L 285.876324 93.904804 
L 286.130089 93.831108 
L 286.383879 93.590372 
L 287.018353 93.732892 
L 287.525907 93.576985 
L 287.779697 93.055133 
L 288.667936 90.62725 
L 288.921726 89.378505 
L 289.556175 89.387145 
L 290.063754 91.584646 
L 290.698204 93.438444 
L 292.601577 93.927581 
L 296.281453 94.031121 
L 311.381591 94.056882 
L 326.35481 94.061761 
L 326.35481 94.061761 
" clip-path="url(#p43331c7cd8)" style="fill: none; stroke-dasharray: 4.44,1.92; stroke-dashoffset: 0; stroke: #e8402a; stroke-width: 1.2"/>
   </g>
   <g id="patch_3">
    <path d="M 43.78125 97.478125 
L 43.78125 22.318125 
" style="fill: none; stroke: #000000; stroke-width: 0.8; stroke-linejoin: miter; stroke-linecap: square"/>
   </g>
   <g id="patch_4">
    <path d="M 326.27125 97.478125 
L 326.27125 22.318125 
" style="fill: none; stroke: #000000; stroke-width: 0.8; stroke-linejoin: miter; stroke-linecap: square"/>
   </g>
   <g id="patch_5">
    <path d="M 43.78125 97.478125 
L 326.27125 97.478125 
" style="fill: none; stroke: #000000; stroke-width: 0.8; stroke-linejoin: miter; stroke-linecap: square"/>
   </g>
   <g id="patch_6">
    <path d="M 43.78125 22.318125 
L 326.27125 22.318125 
" style="fill: none; stroke: #000000; stroke-width: 0.8; stroke-linejoin: miter; stroke-linecap: square"/>
   </g>
   <g id="text_15">
    <!-- 6257 -->
    <g transform="translate(169.75625 16.318125) scale(0.12 -0.12)">
     <defs>
      <path id="DejaVuSans-36" d="M 2113 2584 
Q 1688 2584 1439 2293 
Q 1191 2003 1191 1497 
Q 1191 994 1439 701 
Q 1688 409 2113 409 
Q 2538 409 2786 701 
Q 3034 994 3034 1497 
Q 3034 2003 2786 2293 
Q 2538 2584 2113 2584 
z
M 3366 4563 
L 3366 3988 
Q 3128 4100 2886 4159 
Q 2644 4219 2406 4219 
Q 1781 4219 1451 3797 
Q 1122 3375 1075 2522 
Q 1259 2794 1537 2939 
Q 1816 3084 2150 3084 
Q 2853 3084 3261 2657 
Q 3669 2231 3669 1497 
Q 3669 778 3244 343 
Q 2819 -91 2113 -91 
Q 1303 -91 875 529 
Q 447 1150 447 2328 
Q 447 3434 972 4092 
Q 1497 4750 2381 4750 
Q 2619 4750 2861 4703 
Q 3103 4656 3366 4563 
z
" transform="scale(0.015625)"/>
     </defs>
     <use xlink:href="#DejaVuSans-36"/>
     <use xlink:href="#DejaVuSans-32" transform="translate(63.623047 0)"/>
     <use xlink:href="#DejaVuSans-35" transform="translate(127.246094 0)"/>
     <use xlink:href="#DejaVuSans-37" transform="translate(190.869141 0)"/>
    </g>
   </g>
  </g>
 </g>
 <defs>
  <clipPath id="p43331c7cd8">
   <rect x="43.78125" y="22.318125" width="282.49" height="75.16"/>
  </clipPath>
 </defs>
</svg>
