<?xml version="1.0" encoding="utf-8" standalone="no"?>
<!DOCTYPE svg PUBLIC "-//W3C//DTD SVG 1.1//EN"
  "http://www.w3.org/Graphics/SVG/1.1/DTD/svg11.dtd">
<svg xmlns:xlink="http://www.w3.org/1999/xlink" width="346.19625pt" height="135.034375pt" viewBox="0 0 346.19625 135.034375" xmlns="http://www.w3.org/2000/svg" version="1.1">
 <metadata>
  <rdf:RDF xmlns:dc="http://purl.org/dc/elements/1.1/" xmlns:cc="http://creativecommons.org/ns#" xmlns:rdf="http://www.w3.org/1999/02/22-rdf-syntax-ns#">
   <cc:Work>
    <dc:type rdf:resource="http://purl.org/dc/dcmitype/StillImage"/>
    <dc:date>2026-03-03T16:03:48.939280</dc:date>
    <dc:format>image/svg+xml</dc:format>
    <dc:creator>
     <cc:Agent>
      <dc:title>Matplotlib v3.10.1, https://matplotlib.org/</dc:title>
     </cc:Agent>
    </dc:creator>
   </cc:Work>
  </rdf:RDF>
 </metadata>
 <defs>
  <style type="text/css">*{stroke-linejoin: round; stroke-linecap: butt}</style>
 </defs>
 <g id="figure_1">
  <g id="patch_1">
   <path d="M 0 135.034375 
L 346.19625 135.034375 
L 346.19625 0 
L 0 0 
z
" style="fill: #ffffff"/>
  </g>
  <g id="axes_1">
   <g id="patch_2">
    <path d="M 43.78125 97.478125 
L 326.27125 97.478125 
L 326.27125 22.318125 
L 43.78125 22.318125 
z
" style="fill: #ffffff"/>
   </g>
   <g id="matplotlib.axis_1">
    <g id="xtick_1">
     <g id="line2d_1">
      <defs>
       <path id="m8a2bbfb4ea" d="M 0 0 
L 0 3.5 
" style="stroke: #000000; stroke-width: 0.8"/>
      </defs>
      <g>
       <use xlink:href="#m8a2bbfb4ea" x="43.78125" y="97.478125" style="stroke: #000000; stroke-width: 0.8"/>
      </g>
     </g>
     <g id="text_1">
      <!-- 900 -->
      <g transform="translate(34.2375 112.076563) scale(0.1 -0.1)">
       <defs>
        <path id="DejaVuSans-39" d="M 703 97 
L 703 672 
Q 941 559 1184 500 
Q 1428 441 1663 441 
Q 2288 441 2617 861 
Q 2947 1281 2994 2138 
Q 2813 1869 2534 1725 
Q 2256 1581 1919 1581 
Q 1219 1581 811 2004 
Q 403 2428 403 3163 
Q 403 3881 828 4315 
Q 1253 4750 1959 4750 
Q 2769 4750 3195 4129 
Q 3622 3509 3622 2328 
Q 3622 1225 3098 567 
Q 2575 -91 1691 -91 
Q 1453 -91 1209 -44 
Q 966 3 703 97 
z
M 1959 2075 
Q 2384 2075 2632 2365 
Q 2881 2656 2881 3163 
Q 2881 3666 2632 3958 
Q 2384 4250 1959 4250 
Q 1534 4250 1286 3958 
Q 1038 3666 1038 3163 
Q 1038 2656 1286 2365 
Q 1534 2075 1959 2075 
z
" transform="scale(0.015625)"/>
        <path id="DejaVuSans-30" d="M 2034 4250 
Q 1547 4250 1301 3770 
Q 1056 3291 1056 2328 
Q 1056 1369 1301 889 
Q 1547 409 2034 409 
Q 2525 409 2770 889 
Q 3016 1369 3016 2328 
Q 3016 3291 2770 3770 
Q 2525 4250 2034 4250 
z
M 2034 4750 
Q 2819 4750 3233 4129 
Q 3647 3509 3647 2328 
Q 3647 1150 3233 529 
Q 2819 -91 2034 -91 
Q 1250 -91 836 529 
Q 422 1150 422 2328 
Q 422 3509 836 4129 
Q 1250 4750 2034 4750 
z
" transform="scale(0.015625)"/>
       </defs>
       <use xlink:href="#DejaVuSans-39"/>
       <use xlink:href="#DejaVuSans-30" transform="translate(63.623047 0)"/>
       <use xlink:href="#DejaVuSans-30" transform="translate(127.246094 0)"/>
      </g>
     </g>
    </g>
    <g id="xtick_2">
     <g id="line2d_2">
      <g>
       <use xlink:href="#m8a2bbfb4ea" x="79.0925" y="97.478125" style="stroke: #000000; stroke-width: 0.8"/>
      </g>
     </g>
     <g id="text_2">
      <!-- 925 -->
      <g transform="translate(69.54875 112.076563) scale(0.1 -0.1)">
       <defs>
        <path id="DejaVuSans-32" d="M 1228 531 
L 3431 531 
L 3431 0 
L 469 0 
L 469 531 
Q 828 903 1448 1529 
Q 2069 2156 2228 2338 
Q 2531 2678 2651 2914 
Q 2772 3150 2772 3378 
Q 2772 3750 2511 3984 
Q 2250 4219 1831 4219 
Q 1534 4219 1204 4116 
Q 875 4013 500 3803 
L 500 4441 
Q 881 4594 1212 4672 
Q 1544 4750 1819 4750 
Q 2544 4750 2975 4387 
Q 3406 4025 3406 3419 
Q 3406 3131 3298 2873 
Q 3191 2616 2906 2266 
Q 2828 2175 2409 1742 
Q 1991 1309 1228 531 
z
" transform="scale(0.015625)"/>
        <path id="DejaVuSans-35" d="M 691 4666 
L 3169 4666 
L 3169 4134 
L 1269 4134 
L 1269 2991 
Q 1406 3038 1543 3061 
Q 1681 3084 1819 3084 
Q 2600 3084 3056 2656 
Q 3513 2228 3513 1497 
Q 3513 744 3044 326 
Q 2575 -91 1722 -91 
Q 1428 -91 1123 -41 
Q 819 9 494 109 
L 494 744 
Q 775 591 1075 516 
Q 1375 441 1709 441 
Q 2250 441 2565 725 
Q 2881 1009 2881 1497 
Q 2881 1984 2565 2268 
Q 2250 2553 1709 2553 
Q 1456 2553 1204 2497 
Q 953 2441 691 2322 
L 691 4666 
z
" transform="scale(0.015625)"/>
       </defs>
       <use xlink:href="#DejaVuSans-39"/>
       <use xlink:href="#DejaVuSans-32" transform="translate(63.623047 0)"/>
       <use xlink:href="#DejaVuSans-35" transform="translate(127.246094 0)"/>
      </g>
     </g>
    </g>
    <g id="xtick_3">
     <g id="line2d_3">
      <g>
       <use xlink:href="#m8a2bbfb4ea" x="114.40375" y="97.478125" style="stroke: #000000; stroke-width: 0.8"/>
      </g>
     </g>
     <g id="text_3">
      <!-- 950 -->
      <g transform="translate(104.86 112.076563) scale(0.1 -0.1)">
       <use xlink:href="#DejaVuSans-39"/>
       <use xlink:href="#DejaVuSans-35" transform="translate(63.623047 0)"/>
       <use xlink:href="#DejaVuSans-30" transform="translate(127.246094 0)"/>
      </g>
     </g>
    </g>
    <g id="xtick_4">
     <g id="line2d_4">
      <g>
       <use xlink:href="#m8a2bbfb4ea" x="149.715" y="97.478125" style="stroke: #000000; stroke-width: 0.8"/>
      </g>
     </g>
     <g id="text_4">
      <!-- 975 -->
      <g transform="translate(140.17125 112.076563) scale(0.1 -0.1)">
       <defs>
        <path id="DejaVuSans-37" d="M 525 4666 
L 3525 4666 
L 3525 4397 
L 1831 0 
L 1172 0 
L 2766 4134 
L 525 4134 
L 525 4666 
z
" transform="scale(0.015625)"/>
       </defs>
       <use xlink:href="#DejaVuSans-39"/>
       <use xlink:href="#DejaVuSans-37" transform="translate(63.623047 0)"/>
       <use xlink:href="#DejaVuSans-35" transform="translate(127.246094 0)"/>
      </g>
     </g>
    </g>
    <g id="xtick_5">
     <g id="line2d_5">
      <g>
       <use xlink:href="#m8a2bbfb4ea" x="185.02625" y="97.478125" style="stroke: #000000; stroke-width: 0.8"/>
      </g>
     </g>
     <g id="text_5">
      <!-- 1000 -->
      <g transform="translate(172.30125 112.076563) scale(0.1 -0.1)">
       <defs>
        <path id="DejaVuSans-31" d="M 794 531 
L 1825 531 
L 1825 4091 
L 703 3866 
L 703 4441 
L 1819 4666 
L 2450 4666 
L 2450 531 
L 3481 531 
L 3481 0 
L 794 0 
L 794 531 
z
" transform="scale(0.015625)"/>
       </defs>
       <use xlink:href="#DejaVuSans-31"/>
       <use xlink:href="#DejaVuSans-30" transform="translate(63.623047 0)"/>
       <use xlink:href="#DejaVuSans-30" transform="translate(127.246094 0)"/>
       <use xlink:href="#DejaVuSans-30" transform="translate(190.869141 0)"/>
      </g>
     </g>
    </g>
    <g id="xtick_6">
     <g id="line2d_6">
      <g>
       <use xlink:href="#m8a2bbfb4ea" x="220.3375" y="97.478125" style="stroke: #000000; stroke-width: 0.8"/>
      </g>
     </g>
     <g id="text_6">
      <!-- 1025 -->
      <g transform="translate(207.6125 112.076563) scale(0.1 -0.1)">
       <use xlink:href="#DejaVuSans-31"/>
       <use xlink:href="#DejaVuSans-30" transform="translate(63.623047 0)"/>
       <use xlink:href="#DejaVuSans-32" transform="translate(127.246094 0)"/>
       <use xlink:href="#DejaVuSans-35" transform="translate(190.869141 0)"/>
      </g>
     </g>
    </g>
    <g id="xtick_7">
     <g id="line2d_7">
      <g>
       <use xlink:href="#m8a2bbfb4ea" x="255.64875" y="97.478125" style="stroke: #000000; stroke-width: 0.8"/>
      </g>
     </g>
     <g id="text_7">
      <!-- 1050 -->
      <g transform="translate(242.92375 112.076563) scale(0.1 -0.1)">
       <use xlink:href="#DejaVuSans-31"/>
       <use xlink:href="#DejaVuSans-30" transform="translate(63.623047 0)"/>
       <use xlink:href="#DejaVuSans-35" transform="translate(127.246094 0)"/>
       <use xlink:href="#DejaVuSans-30" transform="translate(190.869141 0)"/>
      </g>
     </g>
    </g>
    <g id="xtick_8">
     <g id="line2d_8">
      <g>
       <use xlink:href="#m8a2bbfb4ea" x="290.96" y="97.478125" style="stroke: #000000; stroke-width: 0.8"/>
      </g>
     </g>
     <g id="text_8">
      <!-- 1075 -->
      <g transform="translate(278.235 112.076563) scale(0.1 -0.1)">
       <use xlink:href="#DejaVuSans-31"/>
       <use xlink:href="#DejaVuSans-30" transform="translate(63.623047 0)"/>
       <use xlink:href="#DejaVuSans-37" transform="translate(127.246094 0)"/>
       <use xlink:href="#DejaVuSans-35" transform="translate(190.869141 0)"/>
      </g>
     </g>
    </g>
    <g id="xtick_9">
     <g id="line2d_9">
      <g>
       <use xlink:href="#m8a2bbfb4ea" x="326.27125" y="97.478125" style="stroke: #000000; stroke-width: 0.8"/>
      </g>
     </g>
     <g id="text_9">
      <!-- 1100 -->
      <g transform="translate(313.54625 112.076563) scale(0.1 -0.1)">
       <use xlink:href="#DejaVuSans-31"/>
       <use xlink:href="#DejaVuSans-31" transform="translate(63.623047 0)"/>
       <use xlink:href="#DejaVuSans-30" transform="translate(127.246094 0)"/>
       <use xlink:href="#DejaVuSans-30" transform="translate(190.869141 0)"/>
      </g>
     </g>
    </g>
    <g id="text_10">
     <!-- Energy (eV) -->
     <g transform="translate(155.5325 125.754688) scale(0.1 -0.1)">
      <defs>
       <path id="DejaVuSans-45" d="M 628 4666 
L 3578 4666 
L 3578 4134 
L 1259 4134 
L 1259 2753 
L 3481 2753 
L 3481 2222 
L 1259 2222 
L 1259 531 
L 3634 531 
L 3634 0 
L 628 0 
L 628 4666 
z
" transform="scale(0.015625)"/>
       <path id="DejaVuSans-6e" d="M 3513 2113 
L 3513 0 
L 2938 0 
L 2938 2094 
Q 2938 2591 2744 2837 
Q 2550 3084 2163 3084 
Q 1697 3084 1428 2787 
Q 1159 2491 1159 1978 
L 1159 0 
L 581 0 
L 581 3500 
L 1159 3500 
L 1159 2956 
Q 1366 3272 1645 3428 
Q 1925 3584 2291 3584 
Q 2894 3584 3203 3211 
Q 3513 2838 3513 2113 
z
" transform="scale(0.015625)"/>
       <path id="DejaVuSans-65" d="M 3597 1894 
L 3597 1613 
L 953 1613 
Q 991 1019 1311 708 
Q 1631 397 2203 397 
Q 2534 397 2845 478 
Q 3156 559 3463 722 
L 3463 178 
Q 3153 47 2828 -22 
Q 2503 -91 2169 -91 
Q 1331 -91 842 396 
Q 353 884 353 1716 
Q 353 2575 817 3079 
Q 1281 3584 2069 3584 
Q 2775 3584 3186 3129 
Q 3597 2675 3597 1894 
z
M 3022 2063 
Q 3016 2534 2758 2815 
Q 2500 3097 2075 3097 
Q 1594 3097 1305 2825 
Q 1016 2553 972 2059 
L 3022 2063 
z
" transform="scale(0.015625)"/>
       <path id="DejaVuSans-72" d="M 2631 2963 
Q 2534 3019 2420 3045 
Q 2306 3072 2169 3072 
Q 1681 3072 1420 2755 
Q 1159 2438 1159 1844 
L 1159 0 
L 581 0 
L 581 3500 
L 1159 3500 
L 1159 2956 
Q 1341 3275 1631 3429 
Q 1922 3584 2338 3584 
Q 2397 3584 2469 3576 
Q 2541 3569 2628 3553 
L 2631 2963 
z
" transform="scale(0.015625)"/>
       <path id="DejaVuSans-67" d="M 2906 1791 
Q 2906 2416 2648 2759 
Q 2391 3103 1925 3103 
Q 1463 3103 1205 2759 
Q 947 2416 947 1791 
Q 947 1169 1205 825 
Q 1463 481 1925 481 
Q 2391 481 2648 825 
Q 2906 1169 2906 1791 
z
M 3481 434 
Q 3481 -459 3084 -895 
Q 2688 -1331 1869 -1331 
Q 1566 -1331 1297 -1286 
Q 1028 -1241 775 -1147 
L 775 -588 
Q 1028 -725 1275 -790 
Q 1522 -856 1778 -856 
Q 2344 -856 2625 -561 
Q 2906 -266 2906 331 
L 2906 616 
Q 2728 306 2450 153 
Q 2172 0 1784 0 
Q 1141 0 747 490 
Q 353 981 353 1791 
Q 353 2603 747 3093 
Q 1141 3584 1784 3584 
Q 2172 3584 2450 3431 
Q 2728 3278 2906 2969 
L 2906 3500 
L 3481 3500 
L 3481 434 
z
" transform="scale(0.015625)"/>
       <path id="DejaVuSans-79" d="M 2059 -325 
Q 1816 -950 1584 -1140 
Q 1353 -1331 966 -1331 
L 506 -1331 
L 506 -850 
L 844 -850 
Q 1081 -850 1212 -737 
Q 1344 -625 1503 -206 
L 1606 56 
L 191 3500 
L 800 3500 
L 1894 763 
L 2988 3500 
L 3597 3500 
L 2059 -325 
z
" transform="scale(0.015625)"/>
       <path id="DejaVuSans-20" transform="scale(0.015625)"/>
       <path id="DejaVuSans-28" d="M 1984 4856 
Q 1566 4138 1362 3434 
Q 1159 2731 1159 2009 
Q 1159 1288 1364 580 
Q 1569 -128 1984 -844 
L 1484 -844 
Q 1016 -109 783 600 
Q 550 1309 550 2009 
Q 550 2706 781 3412 
Q 1013 4119 1484 4856 
L 1984 4856 
z
" transform="scale(0.015625)"/>
       <path id="DejaVuSans-56" d="M 1831 0 
L 50 4666 
L 709 4666 
L 2188 738 
L 3669 4666 
L 4325 4666 
L 2547 0 
L 1831 0 
z
" transform="scale(0.015625)"/>
       <path id="DejaVuSans-29" d="M 513 4856 
L 1013 4856 
Q 1481 4119 1714 3412 
Q 1947 2706 1947 2009 
Q 1947 1309 1714 600 
Q 1481 -109 1013 -844 
L 513 -844 
Q 928 -128 1133 580 
Q 1338 1288 1338 2009 
Q 1338 2731 1133 3434 
Q 928 4138 513 4856 
z
" transform="scale(0.015625)"/>
      </defs>
      <use xlink:href="#DejaVuSans-45"/>
      <use xlink:href="#DejaVuSans-6e" transform="translate(63.183594 0)"/>
      <use xlink:href="#DejaVuSans-65" transform="translate(126.5625 0)"/>
      <use xlink:href="#DejaVuSans-72" transform="translate(188.085938 0)"/>
      <use xlink:href="#DejaVuSans-67" transform="translate(227.449219 0)"/>
      <use xlink:href="#DejaVuSans-79" transform="translate(290.925781 0)"/>
      <use xlink:href="#DejaVuSans-20" transform="translate(350.105469 0)"/>
      <use xlink:href="#DejaVuSans-28" transform="translate(381.892578 0)"/>
      <use xlink:href="#DejaVuSans-65" transform="translate(420.90625 0)"/>
      <use xlink:href="#DejaVuSans-56" transform="translate(482.429688 0)"/>
      <use xlink:href="#DejaVuSans-29" transform="translate(550.837891 0)"/>
     </g>
    </g>
   </g>
   <g id="matplotlib.axis_2">
    <g id="ytick_1">
     <g id="line2d_10">
      <defs>
       <path id="m57d41f2eda" d="M 0 0 
L -3.5 0 
" style="stroke: #000000; stroke-width: 0.8"/>
      </defs>
      <g>
       <use xlink:href="#m57d41f2eda" x="43.78125" y="94.061761" style="stroke: #000000; stroke-width: 0.8"/>
      </g>
     </g>
     <g id="text_11">
      <!-- 0.0 -->
      <g transform="translate(20.878125 97.86098) scale(0.1 -0.1)">
       <defs>
        <path id="DejaVuSans-2e" d="M 684 794 
L 1344 794 
L 1344 0 
L 684 0 
L 684 794 
z
" transform="scale(0.015625)"/>
       </defs>
       <use xlink:href="#DejaVuSans-30"/>
       <use xlink:href="#DejaVuSans-2e" transform="translate(63.623047 0)"/>
       <use xlink:href="#DejaVuSans-30" transform="translate(95.410156 0)"/>
      </g>
     </g>
    </g>
    <g id="ytick_2">
     <g id="line2d_11">
      <g>
       <use xlink:href="#m57d41f2eda" x="43.78125" y="59.898125" style="stroke: #000000; stroke-width: 0.8"/>
      </g>
     </g>
     <g id="text_12">
      <!-- 0.5 -->
      <g transform="translate(20.878125 63.697344) scale(0.1 -0.1)">
       <use xlink:href="#DejaVuSans-30"/>
       <use xlink:href="#DejaVuSans-2e" transform="translate(63.623047 0)"/>
       <use xlink:href="#DejaVuSans-35" transform="translate(95.410156 0)"/>
      </g>
     </g>
    </g>
    <g id="ytick_3">
     <g id="line2d_12">
      <g>
       <use xlink:href="#m57d41f2eda" x="43.78125" y="25.734489" style="stroke: #000000; stroke-width: 0.8"/>
      </g>
     </g>
     <g id="text_13">
      <!-- 1.0 -->
      <g transform="translate(20.878125 29.533707) scale(0.1 -0.1)">
       <use xlink:href="#DejaVuSans-31"/>
       <use xlink:href="#DejaVuSans-2e" transform="translate(63.623047 0)"/>
       <use xlink:href="#DejaVuSans-30" transform="translate(95.410156 0)"/>
      </g>
     </g>
    </g>
    <g id="text_14">
     <!-- Intensity (a.u.) -->
     <g transform="translate(14.798438 96.562187) rotate(-90) scale(0.1 -0.1)">
      <defs>
       <path id="DejaVuSans-49" d="M 628 4666 
L 1259 4666 
L 1259 0 
L 628 0 
L 628 4666 
z
" transform="scale(0.015625)"/>
       <path id="DejaVuSans-74" d="M 1172 4494 
L 1172 3500 
L 2356 3500 
L 2356 3053 
L 1172 3053 
L 1172 1153 
Q 1172 725 1289 603 
Q 1406 481 1766 481 
L 2356 481 
L 2356 0 
L 1766 0 
Q 1100 0 847 248 
Q 594 497 594 1153 
L 594 3053 
L 172 3053 
L 172 3500 
L 594 3500 
L 594 4494 
L 1172 4494 
z
" transform="scale(0.015625)"/>
       <path id="DejaVuSans-73" d="M 2834 3397 
L 2834 2853 
Q 2591 2978 2328 3040 
Q 2066 3103 1784 3103 
Q 1356 3103 1142 2972 
Q 928 2841 928 2578 
Q 928 2378 1081 2264 
Q 1234 2150 1697 2047 
L 1894 2003 
Q 2506 1872 2764 1633 
Q 3022 1394 3022 966 
Q 3022 478 2636 193 
Q 2250 -91 1575 -91 
Q 1294 -91 989 -36 
Q 684 19 347 128 
L 347 722 
Q 666 556 975 473 
Q 1284 391 1588 391 
Q 1994 391 2212 530 
Q 2431 669 2431 922 
Q 2431 1156 2273 1281 
Q 2116 1406 1581 1522 
L 1381 1569 
Q 847 1681 609 1914 
Q 372 2147 372 2553 
Q 372 3047 722 3315 
Q 1072 3584 1716 3584 
Q 2034 3584 2315 3537 
Q 2597 3491 2834 3397 
z
" transform="scale(0.015625)"/>
       <path id="DejaVuSans-69" d="M 603 3500 
L 1178 3500 
L 1178 0 
L 603 0 
L 603 3500 
z
M 603 4863 
L 1178 4863 
L 1178 4134 
L 603 4134 
L 603 4863 
z
" transform="scale(0.015625)"/>
       <path id="DejaVuSans-61" d="M 2194 1759 
Q 1497 1759 1228 1600 
Q 959 1441 959 1056 
Q 959 750 1161 570 
Q 1363 391 1709 391 
Q 2188 391 2477 730 
Q 2766 1069 2766 1631 
L 2766 1759 
L 2194 1759 
z
M 3341 1997 
L 3341 0 
L 2766 0 
L 2766 531 
Q 2569 213 2275 61 
Q 1981 -91 1556 -91 
Q 1019 -91 701 211 
Q 384 513 384 1019 
Q 384 1609 779 1909 
Q 1175 2209 1959 2209 
L 2766 2209 
L 2766 2266 
Q 2766 2663 2505 2880 
Q 2244 3097 1772 3097 
Q 1472 3097 1187 3025 
Q 903 2953 641 2809 
L 641 3341 
Q 956 3463 1253 3523 
Q 1550 3584 1831 3584 
Q 2591 3584 2966 3190 
Q 3341 2797 3341 1997 
z
" transform="scale(0.015625)"/>
       <path id="DejaVuSans-75" d="M 544 1381 
L 544 3500 
L 1119 3500 
L 1119 1403 
Q 1119 906 1312 657 
Q 1506 409 1894 409 
Q 2359 409 2629 706 
Q 2900 1003 2900 1516 
L 2900 3500 
L 3475 3500 
L 3475 0 
L 2900 0 
L 2900 538 
Q 2691 219 2414 64 
Q 2138 -91 1772 -91 
Q 1169 -91 856 284 
Q 544 659 544 1381 
z
M 1991 3584 
L 1991 3584 
z
" transform="scale(0.015625)"/>
      </defs>
      <use xlink:href="#DejaVuSans-49"/>
      <use xlink:href="#DejaVuSans-6e" transform="translate(29.492188 0)"/>
      <use xlink:href="#DejaVuSans-74" transform="translate(92.871094 0)"/>
      <use xlink:href="#DejaVuSans-65" transform="translate(132.080078 0)"/>
      <use xlink:href="#DejaVuSans-6e" transform="translate(193.603516 0)"/>
      <use xlink:href="#DejaVuSans-73" transform="translate(256.982422 0)"/>
      <use xlink:href="#DejaVuSans-69" transform="translate(309.082031 0)"/>
      <use xlink:href="#DejaVuSans-74" transform="translate(336.865234 0)"/>
      <use xlink:href="#DejaVuSans-79" transform="translate(376.074219 0)"/>
      <use xlink:href="#DejaVuSans-20" transform="translate(435.253906 0)"/>
      <use xlink:href="#DejaVuSans-28" transform="translate(467.041016 0)"/>
      <use xlink:href="#DejaVuSans-61" transform="translate(506.054688 0)"/>
      <use xlink:href="#DejaVuSans-2e" transform="translate(567.333984 0)"/>
      <use xlink:href="#DejaVuSans-75" transform="translate(599.121094 0)"/>
      <use xlink:href="#DejaVuSans-2e" transform="translate(662.5 0)"/>
      <use xlink:href="#DejaVuSans-29" transform="translate(694.287109 0)"/>
     </g>
    </g>
   </g>
   <g id="line2d_13">
    <path d="M 43.712361 93.483774 
L 45.378438 93.657735 
L 45.634757 93.437878 
L 45.762913 93.536309 
L 46.019232 93.434691 
L 46.275551 93.538299 
L 46.788189 93.431102 
L 47.044508 93.399541 
L 47.300827 93.488103 
L 47.557146 93.323151 
L 47.941628 93.438136 
L 48.966904 93.12199 
L 49.223223 93.213904 
L 49.479542 92.836309 
L 49.607705 93.032693 
L 49.864024 92.577738 
L 50.120343 93.037872 
L 50.248499 92.907535 
L 50.504818 92.39604 
L 50.761137 93.026585 
L 51.017456 92.821531 
L 51.786419 92.948389 
L 51.914576 92.821961 
L 52.170895 92.937803 
L 52.299057 93.065544 
L 52.555376 92.900077 
L 52.683533 92.994696 
L 52.811695 92.940032 
L 53.068014 93.205261 
L 53.45249 92.609788 
L 53.708809 93.030342 
L 54.221447 92.780077 
L 54.34961 92.783632 
L 54.605929 92.593112 
L 54.99041 92.85777 
L 55.631205 92.625965 
L 55.759367 92.700238 
L 55.887524 92.951215 
L 56.015686 92.941441 
L 56.272005 92.692602 
L 56.400162 92.777954 
L 56.656481 92.685381 
L 56.9128 92.74016 
L 57.040962 92.710281 
L 57.297281 92.84104 
L 57.553601 92.685426 
L 57.80992 92.920435 
L 58.066239 92.883636 
L 58.194401 92.976008 
L 58.45072 92.850945 
L 58.707039 92.89789 
L 58.963358 92.973738 
L 59.219677 92.615314 
L 59.347834 92.606003 
L 59.604153 92.29687 
L 59.732315 92.497214 
L 59.860472 92.459838 
L 59.988634 92.227269 
L 60.116791 92.277999 
L 60.244953 92.196239 
L 60.501272 91.75295 
L 60.757591 91.619594 
L 61.01391 91.039715 
L 61.142067 90.586808 
L 61.270229 90.611627 
L 61.398392 90.400255 
L 61.654711 89.205318 
L 61.91103 89.728027 
L 62.039186 89.611469 
L 62.295506 89.127141 
L 62.423668 88.980958 
L 63.192625 86.718668 
L 63.577101 87.471361 
L 63.961582 86.359002 
L 64.089739 85.896555 
L 64.346058 85.943793 
L 64.602383 85.114731 
L 64.730539 85.199123 
L 64.858702 85.009143 
L 64.986858 85.156154 
L 65.115021 84.937464 
L 65.243177 84.362309 
L 65.627659 85.811677 
L 65.883978 86.641618 
L 66.140297 86.120805 
L 66.268453 86.32182 
L 66.396616 86.278467 
L 66.524772 86.049532 
L 66.652935 86.086253 
L 66.909254 86.573081 
L 67.165573 87.991557 
L 67.421892 88.392457 
L 67.550049 88.125525 
L 67.678211 88.262949 
L 67.93453 89.261733 
L 68.062693 89.329845 
L 68.190849 89.195702 
L 68.447168 89.430046 
L 68.575331 89.096211 
L 68.83165 89.383094 
L 68.959806 89.271729 
L 69.216125 89.487618 
L 69.856926 88.661793 
L 69.985082 88.627646 
L 70.241401 88.152445 
L 71.266684 83.722116 
L 71.651159 80.617662 
L 71.907478 78.411506 
L 72.29196 73.78974 
L 72.420116 72.52521 
L 72.676435 66.258244 
L 73.060917 55.216377 
L 73.189073 55.450639 
L 73.317236 56.076979 
L 73.829874 40.647169 
L 74.214355 34.676348 
L 74.470674 26.825756 
L 74.85515 25.734489 
L 74.983313 26.349461 
L 75.239632 31.27533 
L 75.367788 32.260441 
L 77.290184 76.769179 
L 77.546503 78.922836 
L 77.930984 83.483994 
L 78.187303 84.853001 
L 78.699941 88.178021 
L 78.956261 88.325292 
L 79.21258 89.491111 
L 79.340736 89.508912 
L 79.468899 89.707968 
L 79.725218 90.426816 
L 80.622337 91.084206 
L 80.750494 91.4494 
L 81.134975 91.51152 
L 81.391294 91.981998 
L 81.647613 91.933392 
L 81.903932 92.069024 
L 82.160251 91.935943 
L 82.41657 92.25527 
L 82.672889 92.188364 
L 82.929208 92.447335 
L 83.185528 92.463798 
L 83.570003 92.676408 
L 83.698166 92.52939 
L 84.210804 92.965569 
L 84.467129 92.731025 
L 84.723442 92.947182 
L 84.979767 92.862005 
L 85.107917 93.042167 
L 85.492405 92.907602 
L 85.748718 92.970219 
L 86.261356 92.919876 
L 86.517681 92.926133 
L 86.773994 93.01617 
L 87.286632 93.231435 
L 87.414794 93.374648 
L 87.67112 93.237261 
L 87.79927 93.063693 
L 88.568233 93.308555 
L 88.952709 93.134315 
L 89.209034 93.448957 
L 89.465347 93.326895 
L 89.721672 93.497594 
L 90.106147 93.450323 
L 90.618785 93.406638 
L 91.131423 93.323492 
L 91.387749 93.354319 
L 91.515899 93.322056 
L 91.772224 93.466705 
L 92.028537 93.361579 
L 92.284862 93.343961 
L 93.053813 93.551585 
L 93.310138 93.357673 
L 93.566463 93.498196 
L 94.976215 93.450322 
L 95.232528 93.476709 
L 95.488853 93.436885 
L 95.873328 93.422485 
L 96.385966 93.310442 
L 96.642292 93.49147 
L 96.898605 93.472103 
L 97.15493 93.500968 
L 97.411243 93.472442 
L 97.79573 93.536962 
L 98.052043 93.391974 
L 98.308368 93.492061 
L 98.821006 93.493221 
L 99.333644 93.680209 
L 99.589957 93.52408 
L 100.230758 93.612469 
L 100.743396 93.478569 
L 101.256034 93.632534 
L 101.896835 93.596639 
L 102.024997 93.693249 
L 102.409473 93.548708 
L 102.665786 93.636546 
L 103.050273 93.706582 
L 103.434749 93.602106 
L 103.691074 93.456947 
L 103.947387 93.662296 
L 105.100826 93.68613 
L 108.945617 93.594357 
L 109.20193 93.58355 
L 109.458255 93.652733 
L 109.714568 93.608388 
L 110.099056 93.620392 
L 111.124332 93.624439 
L 111.380645 93.675677 
L 111.893283 93.630593 
L 112.277758 93.654507 
L 112.534083 93.597133 
L 113.303047 93.676683 
L 113.687522 93.629096 
L 114.071998 93.6525 
L 114.456473 93.50619 
L 116.378875 93.643961 
L 116.891513 93.588115 
L 117.147826 93.67888 
L 117.404151 93.651625 
L 118.044952 93.737899 
L 118.942065 93.49332 
L 119.582866 93.627807 
L 119.839179 93.604937 
L 120.608142 93.682255 
L 121.505255 93.59561 
L 121.633418 93.613031 
L 121.761581 93.745262 
L 122.274219 93.742056 
L 122.915019 93.692137 
L 123.171332 93.708403 
L 123.555808 93.692582 
L 123.940295 93.683831 
L 124.196608 93.645048 
L 124.452933 93.704223 
L 124.709246 93.595832 
L 124.837409 93.714661 
L 125.221884 93.60977 
L 125.862685 93.686573 
L 126.11901 93.568007 
L 126.887961 93.68451 
L 127.144286 93.638446 
L 128.554038 93.66657 
L 129.835639 93.716048 
L 131.501704 93.735977 
L 131.886191 93.637061 
L 132.142504 93.72342 
L 133.680418 93.687217 
L 133.936743 93.742504 
L 134.577544 93.669482 
L 134.705694 93.744408 
L 135.090182 93.620951 
L 135.730983 93.720466 
L 135.987296 93.697242 
L 136.243621 93.703785 
L 136.499934 93.644322 
L 136.756259 93.763635 
L 137.012572 93.628569 
L 137.52521 93.721771 
L 138.16601 93.740217 
L 138.422336 93.764766 
L 138.678648 93.624039 
L 138.934974 93.691825 
L 140.0884 93.618696 
L 140.216563 93.540902 
L 140.601038 93.71821 
L 140.985526 93.719374 
L 141.498164 93.636773 
L 141.754477 93.692238 
L 141.882639 93.610109 
L 142.267115 93.765009 
L 142.779753 93.70288 
L 143.420554 93.818434 
L 143.676879 93.740338 
L 143.933192 93.740711 
L 144.44583 93.618926 
L 144.702155 93.727338 
L 145.214793 93.701553 
L 145.855593 93.642639 
L 146.111906 93.640318 
L 146.496382 93.750594 
L 146.88087 93.689689 
L 147.265345 93.754166 
L 148.418784 93.693843 
L 148.931422 93.805985 
L 149.828535 93.759545 
L 150.08486 93.660781 
L 150.469336 93.725071 
L 150.853811 93.706108 
L 151.494612 93.709205 
L 152.263575 93.79315 
L 152.519888 93.599488 
L 153.032526 93.784094 
L 153.801489 93.729033 
L 154.057802 93.782513 
L 154.57044 93.700831 
L 155.083078 93.743836 
L 156.236517 93.758243 
L 156.620992 93.834954 
L 157.00548 93.793612 
L 160.081309 93.793174 
L 160.337621 93.794069 
L 160.850272 93.784807 
L 161.36291 93.798989 
L 161.49106 93.885953 
L 162.003698 93.718672 
L 162.516336 93.761047 
L 162.772661 93.756363 
L 163.413462 93.699054 
L 163.669775 93.657638 
L 164.054263 93.787806 
L 165.720327 93.743308 
L 166.232965 93.764034 
L 166.48929 93.720752 
L 167.001928 93.75439 
L 167.642729 93.804649 
L 170.334082 93.784586 
L 170.590395 93.769172 
L 170.84672 93.809555 
L 171.103033 93.726304 
L 171.871996 93.742712 
L 172.384634 93.686474 
L 176.101263 93.749807 
L 176.485738 93.764386 
L 176.998376 93.797733 
L 177.254702 93.765759 
L 177.382864 93.819787 
L 177.639177 93.734818 
L 177.895502 93.791291 
L 178.279978 93.77531 
L 183.534521 93.72319 
L 184.687959 93.680279 
L 185.713236 93.762336 
L 186.738524 93.676406 
L 186.994825 93.553252 
L 187.25115 93.625839 
L 187.891938 93.650762 
L 188.148263 93.534721 
L 188.532751 93.599509 
L 189.558027 93.613538 
L 189.942515 93.683361 
L 190.967791 93.601535 
L 191.095929 93.695337 
L 191.480417 93.625791 
L 191.736742 93.70804 
L 191.993067 93.688414 
L 192.37753 93.685317 
L 192.762018 93.62705 
L 193.018343 93.663641 
L 193.659131 93.566832 
L 193.787294 93.612802 
L 194.171782 93.487984 
L 194.556245 93.61494 
L 195.197058 93.582971 
L 198.144724 93.723195 
L 198.272886 93.777327 
L 198.529187 93.678874 
L 198.785512 93.715312 
L 205.193494 93.632342 
L 205.706144 93.669306 
L 206.090607 93.569761 
L 206.603257 93.520699 
L 206.73142 93.461342 
L 206.987745 93.559741 
L 207.884859 93.434975 
L 208.269322 93.413873 
L 208.65381 93.35181 
L 209.038297 93.414689 
L 209.422761 93.26436 
L 209.550923 93.27612 
L 209.807248 92.998531 
L 210.191736 93.086672 
L 210.319874 93.234076 
L 211.08885 92.772904 
L 211.34515 92.348862 
L 211.601475 92.276277 
L 212.370451 90.933101 
L 214.421003 83.388034 
L 214.549141 83.418367 
L 214.677304 83.816782 
L 214.933629 82.444415 
L 215.061791 82.376923 
L 215.318117 83.118849 
L 215.446279 83.020046 
L 215.574442 82.527531 
L 215.830742 82.918849 
L 216.087068 82.240268 
L 216.21523 82.496791 
L 216.343393 83.066782 
L 216.599718 83.202155 
L 216.727856 83.543091 
L 216.856018 83.527556 
L 217.240506 85.082252 
L 217.496831 84.732061 
L 217.881295 85.995992 
L 218.009457 85.92847 
L 219.291058 89.782927 
L 219.419221 89.82611 
L 220.060009 91.68874 
L 220.828985 92.483834 
L 221.085285 92.605084 
L 221.469773 92.925208 
L 222.238724 93.134857 
L 222.495049 93.161361 
L 222.623212 93.182073 
L 222.879537 93.024244 
L 223.135838 93.330032 
L 223.392163 93.31398 
L 223.648488 93.310623 
L 223.904813 93.245187 
L 224.289276 93.392039 
L 225.058252 93.254512 
L 225.314552 93.443391 
L 225.570878 93.38355 
L 226.083528 93.46772 
L 226.852479 93.1914 
L 227.365105 93.152952 
L 227.493267 93.918988 
L 229.159356 93.94653 
L 230.953583 93.977815 
L 234.285737 94.003433 
L 236.592614 93.915163 
L 243.256921 93.954049 
L 244.538498 93.972201 
L 247.358025 93.893414 
L 250.946479 93.97666 
L 254.791283 93.867074 
L 265.428532 94.035641 
L 272.220977 94.033734 
L 276.834732 94.034616 
L 277.091057 93.851616 
L 278.885284 93.874697 
L 279.141609 93.863092 
L 280.679535 93.847734 
L 281.448486 93.919453 
L 281.961112 93.7951 
L 282.986388 93.877189 
L 283.370876 93.809149 
L 284.011664 93.873492 
L 284.524315 93.813294 
L 286.190379 93.749472 
L 286.703029 93.762857 
L 287.215655 93.77999 
L 287.728305 93.702349 
L 287.856468 93.732385 
L 288.112793 93.570103 
L 288.497256 93.461815 
L 288.881744 93.365347 
L 289.009907 93.403038 
L 289.650695 92.895217 
L 289.90702 92.636442 
L 290.163345 92.631479 
L 290.419646 92.573064 
L 290.547809 92.665914 
L 290.675971 92.606065 
L 290.932296 92.295707 
L 291.444922 92.346322 
L 291.701247 92.017066 
L 292.470223 91.983744 
L 292.854686 92.068143 
L 293.111011 92.125393 
L 293.7518 92.225946 
L 294.136287 91.984237 
L 294.648913 92.062842 
L 295.033401 91.976946 
L 295.289726 92.08555 
L 295.802352 92.081036 
L 296.315002 92.426991 
L 296.571327 92.000487 
L 296.827628 92.203295 
L 296.95579 92.150363 
L 297.212116 92.36649 
L 297.724766 92.422764 
L 299.006343 93.23188 
L 299.262668 93.335502 
L 299.518993 93.477677 
L 300.672432 93.678311 
L 301.441383 93.743182 
L 302.594821 93.806304 
L 302.851146 93.810838 
L 303.23561 93.834011 
L 305.158024 93.879013 
L 306.695926 93.883591 
L 318.10215 93.920587 
L 318.486613 93.923738 
L 318.742938 93.883687 
L 319.255564 93.918361 
L 320.921653 93.916296 
L 322.459555 93.925358 
L 323.100368 93.922286 
L 323.484831 93.946035 
L 324.381969 93.912307 
L 325.407245 93.945445 
L 326.304359 93.945266 
L 326.304359 93.945266 
" clip-path="url(#pb41ceb96b4)" style="fill: none; stroke: #000000; stroke-width: 1.2; stroke-linecap: square"/>
   </g>
   <g id="line2d_14">
    <path d="M 43.712361 94.061761 
L 43.96868 93.935957 
L 48.197947 93.78225 
L 48.966904 93.563279 
L 49.479542 92.358524 
L 49.864024 77.102486 
L 49.99218 77.79655 
L 50.376662 87.293362 
L 50.632981 92.799938 
L 51.530094 93.738272 
L 53.45249 93.679404 
L 54.093291 93.529193 
L 54.605929 91.394695 
L 54.734085 88.361759 
L 55.118567 59.799645 
L 55.631205 90.626826 
L 56.656481 93.618402 
L 57.297281 93.654389 
L 59.732315 93.595693 
L 63.064463 93.311071 
L 63.192625 93.232163 
L 64.346058 91.101265 
L 64.47422 87.829929 
L 64.730539 67.294365 
L 64.986858 89.97796 
L 65.243177 91.488892 
L 65.755815 92.799561 
L 66.781092 92.506719 
L 67.037411 92.429741 
L 67.678211 91.316852 
L 68.447168 90.089334 
L 69.728763 90.365646 
L 71.010365 87.711035 
L 72.29196 80.804461 
L 73.701711 50.548187 
L 74.470674 25.734489 
L 75.239632 25.887239 
L 75.367788 27.011696 
L 76.393064 60.339285 
L 77.674665 82.400564 
L 78.956261 88.435177 
L 80.366012 90.897113 
L 81.77577 92.049062 
L 83.441847 92.751124 
L 85.23608 93.174796 
L 87.030319 93.420471 
L 91.131423 93.705342 
L 98.180206 93.889906 
L 112.662246 93.99708 
L 163.541612 94.05806 
L 189.045377 93.94643 
L 189.429864 93.801719 
L 189.942515 92.471626 
L 190.070653 92.48029 
L 190.711466 93.900433 
L 192.121205 94.035527 
L 193.274644 93.988396 
L 193.659131 93.80305 
L 194.556245 93.955065 
L 195.837846 93.602152 
L 197.503911 94.048267 
L 210.704362 93.95265 
L 213.267564 93.659359 
L 214.549141 92.626667 
L 214.805466 91.212171 
L 215.318117 84.369641 
L 215.70258 84.263527 
L 216.087068 84.180801 
L 216.21523 84.185105 
L 216.343393 84.448048 
L 216.599718 89.510578 
L 217.496831 93.345407 
L 219.291058 93.890185 
L 222.495049 94.016703 
L 234.413899 94.054172 
L 284.908802 93.971886 
L 286.062241 93.898789 
L 286.446704 93.587779 
L 286.831192 93.788723 
L 287.600143 93.538173 
L 288.753582 90.359199 
L 288.881744 89.761745 
L 289.522533 89.7706 
L 290.675971 93.434489 
L 292.598361 93.928025 
L 296.315002 94.032136 
L 311.30968 94.057571 
L 326.304359 94.061761 
L 326.304359 94.061761 
" clip-path="url(#pb41ceb96b4)" style="fill: none; stroke-dasharray: 4.44,1.92; stroke-dashoffset: 0; stroke: #e8402a; stroke-width: 1.2"/>
   </g>
   <g id="patch_3">
    <path d="M 43.78125 97.478125 
L 43.78125 22.318125 
" style="fill: none; stroke: #000000; stroke-width: 0.8; stroke-linejoin: miter; stroke-linecap: square"/>
   </g>
   <g id="patch_4">
    <path d="M 326.27125 97.478125 
L 326.27125 22.318125 
" style="fill: none; stroke: #000000; stroke-width: 0.8; stroke-linejoin: miter; stroke-linecap: square"/>
   </g>
   <g id="patch_5">
    <path d="M 43.78125 97.478125 
L 326.27125 97.478125 
" style="fill: none; stroke: #000000; stroke-width: 0.8; stroke-linejoin: miter; stroke-linecap: square"/>
   </g>
   <g id="patch_6">
    <path d="M 43.78125 22.318125 
L 326.27125 22.318125 
" style="fill: none; stroke: #000000; stroke-width: 0.8; stroke-linejoin: miter; stroke-linecap: square"/>
   </g>
   <g id="text_15">
    <!-- 6258 -->
    <g transform="translate(169.75625 16.318125) scale(0.12 -0.12)">
     <defs>
      <path id="DejaVuSans-36" d="M 2113 2584 
Q 1688 2584 1439 2293 
Q 1191 2003 1191 1497 
Q 1191 994 1439 701 
Q 1688 409 2113 409 
Q 2538 409 2786 701 
Q 3034 994 3034 1497 
Q 3034 2003 2786 2293 
Q 2538 2584 2113 2584 
z
M 3366 4563 
L 3366 3988 
Q 3128 4100 2886 4159 
Q 2644 4219 2406 4219 
Q 1781 4219 1451 3797 
Q 1122 3375 1075 2522 
Q 1259 2794 1537 2939 
Q 1816 3084 2150 3084 
Q 2853 3084 3261 2657 
Q 3669 2231 3669 1497 
Q 3669 778 3244 343 
Q 2819 -91 2113 -91 
Q 1303 -91 875 529 
Q 447 1150 447 2328 
Q 447 3434 972 4092 
Q 1497 4750 2381 4750 
Q 2619 4750 2861 4703 
Q 3103 4656 3366 4563 
z
" transform="scale(0.015625)"/>
      <path id="DejaVuSans-38" d="M 2034 2216 
Q 1584 2216 1326 1975 
Q 1069 1734 1069 1313 
Q 1069 891 1326 650 
Q 1584 409 2034 409 
Q 2484 409 2743 651 
Q 3003 894 3003 1313 
Q 3003 1734 2745 1975 
Q 2488 2216 2034 2216 
z
M 1403 2484 
Q 997 2584 770 2862 
Q 544 3141 544 3541 
Q 544 4100 942 4425 
Q 1341 4750 2034 4750 
Q 2731 4750 3128 4425 
Q 3525 4100 3525 3541 
Q 3525 3141 3298 2862 
Q 3072 2584 2669 2484 
Q 3125 2378 3379 2068 
Q 3634 1759 3634 1313 
Q 3634 634 3220 271 
Q 2806 -91 2034 -91 
Q 1263 -91 848 271 
Q 434 634 434 1313 
Q 434 1759 690 2068 
Q 947 2378 1403 2484 
z
M 1172 3481 
Q 1172 3119 1398 2916 
Q 1625 2713 2034 2713 
Q 2441 2713 2670 2916 
Q 2900 3119 2900 3481 
Q 2900 3844 2670 4047 
Q 2441 4250 2034 4250 
Q 1625 4250 1398 4047 
Q 1172 3844 1172 3481 
z
" transform="scale(0.015625)"/>
     </defs>
     <use xlink:href="#DejaVuSans-36"/>
     <use xlink:href="#DejaVuSans-32" transform="translate(63.623047 0)"/>
     <use xlink:href="#DejaVuSans-35" transform="translate(127.246094 0)"/>
     <use xlink:href="#DejaVuSans-38" transform="translate(190.869141 0)"/>
    </g>
   </g>
  </g>
 </g>
 <defs>
  <clipPath id="pb41ceb96b4">
   <rect x="43.78125" y="22.318125" width="282.49" height="75.16"/>
  </clipPath>
 </defs>
</svg>
