<?xml version="1.0" encoding="utf-8" standalone="no"?>
<!DOCTYPE svg PUBLIC "-//W3C//DTD SVG 1.1//EN"
  "http://www.w3.org/Graphics/SVG/1.1/DTD/svg11.dtd">
<svg xmlns:xlink="http://www.w3.org/1999/xlink" width="346.19625pt" height="135.034375pt" viewBox="0 0 346.19625 135.034375" xmlns="http://www.w3.org/2000/svg" version="1.1">
 <metadata>
  <rdf:RDF xmlns:dc="http://purl.org/dc/elements/1.1/" xmlns:cc="http://creativecommons.org/ns#" xmlns:rdf="http://www.w3.org/1999/02/22-rdf-syntax-ns#">
   <cc:Work>
    <dc:type rdf:resource="http://purl.org/dc/dcmitype/StillImage"/>
    <dc:date>2026-03-03T17:06:08.643292</dc:date>
    <dc:format>image/svg+xml</dc:format>
    <dc:creator>
     <cc:Agent>
      <dc:title>Matplotlib v3.10.1, https://matplotlib.org/</dc:title>
     </cc:Agent>
    </dc:creator>
   </cc:Work>
  </rdf:RDF>
 </metadata>
 <defs>
  <style type="text/css">*{stroke-linejoin: round; stroke-linecap: butt}</style>
 </defs>
 <g id="figure_1">
  <g id="patch_1">
   <path d="M 0 135.034375 
L 346.19625 135.034375 
L 346.19625 0 
L 0 0 
z
" style="fill: #ffffff"/>
  </g>
  <g id="axes_1">
   <g id="patch_2">
    <path d="M 43.78125 97.478125 
L 326.27125 97.478125 
L 326.27125 22.318125 
L 43.78125 22.318125 
z
" style="fill: #ffffff"/>
   </g>
   <g id="matplotlib.axis_1">
    <g id="xtick_1">
     <g id="line2d_1">
      <defs>
       <path id="m19e7fb7a15" d="M 0 0 
L 0 3.5 
" style="stroke: #000000; stroke-width: 0.8"/>
      </defs>
      <g>
       <use xlink:href="#m19e7fb7a15" x="43.78125" y="97.478125" style="stroke: #000000; stroke-width: 0.8"/>
      </g>
     </g>
     <g id="text_1">
      <!-- 900 -->
      <g transform="translate(34.2375 112.076563) scale(0.1 -0.1)">
       <defs>
        <path id="DejaVuSans-39" d="M 703 97 
L 703 672 
Q 941 559 1184 500 
Q 1428 441 1663 441 
Q 2288 441 2617 861 
Q 2947 1281 2994 2138 
Q 2813 1869 2534 1725 
Q 2256 1581 1919 1581 
Q 1219 1581 811 2004 
Q 403 2428 403 3163 
Q 403 3881 828 4315 
Q 1253 4750 1959 4750 
Q 2769 4750 3195 4129 
Q 3622 3509 3622 2328 
Q 3622 1225 3098 567 
Q 2575 -91 1691 -91 
Q 1453 -91 1209 -44 
Q 966 3 703 97 
z
M 1959 2075 
Q 2384 2075 2632 2365 
Q 2881 2656 2881 3163 
Q 2881 3666 2632 3958 
Q 2384 4250 1959 4250 
Q 1534 4250 1286 3958 
Q 1038 3666 1038 3163 
Q 1038 2656 1286 2365 
Q 1534 2075 1959 2075 
z
" transform="scale(0.015625)"/>
        <path id="DejaVuSans-30" d="M 2034 4250 
Q 1547 4250 1301 3770 
Q 1056 3291 1056 2328 
Q 1056 1369 1301 889 
Q 1547 409 2034 409 
Q 2525 409 2770 889 
Q 3016 1369 3016 2328 
Q 3016 3291 2770 3770 
Q 2525 4250 2034 4250 
z
M 2034 4750 
Q 2819 4750 3233 4129 
Q 3647 3509 3647 2328 
Q 3647 1150 3233 529 
Q 2819 -91 2034 -91 
Q 1250 -91 836 529 
Q 422 1150 422 2328 
Q 422 3509 836 4129 
Q 1250 4750 2034 4750 
z
" transform="scale(0.015625)"/>
       </defs>
       <use xlink:href="#DejaVuSans-39"/>
       <use xlink:href="#DejaVuSans-30" transform="translate(63.623047 0)"/>
       <use xlink:href="#DejaVuSans-30" transform="translate(127.246094 0)"/>
      </g>
     </g>
    </g>
    <g id="xtick_2">
     <g id="line2d_2">
      <g>
       <use xlink:href="#m19e7fb7a15" x="79.0925" y="97.478125" style="stroke: #000000; stroke-width: 0.8"/>
      </g>
     </g>
     <g id="text_2">
      <!-- 925 -->
      <g transform="translate(69.54875 112.076563) scale(0.1 -0.1)">
       <defs>
        <path id="DejaVuSans-32" d="M 1228 531 
L 3431 531 
L 3431 0 
L 469 0 
L 469 531 
Q 828 903 1448 1529 
Q 2069 2156 2228 2338 
Q 2531 2678 2651 2914 
Q 2772 3150 2772 3378 
Q 2772 3750 2511 3984 
Q 2250 4219 1831 4219 
Q 1534 4219 1204 4116 
Q 875 4013 500 3803 
L 500 4441 
Q 881 4594 1212 4672 
Q 1544 4750 1819 4750 
Q 2544 4750 2975 4387 
Q 3406 4025 3406 3419 
Q 3406 3131 3298 2873 
Q 3191 2616 2906 2266 
Q 2828 2175 2409 1742 
Q 1991 1309 1228 531 
z
" transform="scale(0.015625)"/>
        <path id="DejaVuSans-35" d="M 691 4666 
L 3169 4666 
L 3169 4134 
L 1269 4134 
L 1269 2991 
Q 1406 3038 1543 3061 
Q 1681 3084 1819 3084 
Q 2600 3084 3056 2656 
Q 3513 2228 3513 1497 
Q 3513 744 3044 326 
Q 2575 -91 1722 -91 
Q 1428 -91 1123 -41 
Q 819 9 494 109 
L 494 744 
Q 775 591 1075 516 
Q 1375 441 1709 441 
Q 2250 441 2565 725 
Q 2881 1009 2881 1497 
Q 2881 1984 2565 2268 
Q 2250 2553 1709 2553 
Q 1456 2553 1204 2497 
Q 953 2441 691 2322 
L 691 4666 
z
" transform="scale(0.015625)"/>
       </defs>
       <use xlink:href="#DejaVuSans-39"/>
       <use xlink:href="#DejaVuSans-32" transform="translate(63.623047 0)"/>
       <use xlink:href="#DejaVuSans-35" transform="translate(127.246094 0)"/>
      </g>
     </g>
    </g>
    <g id="xtick_3">
     <g id="line2d_3">
      <g>
       <use xlink:href="#m19e7fb7a15" x="114.40375" y="97.478125" style="stroke: #000000; stroke-width: 0.8"/>
      </g>
     </g>
     <g id="text_3">
      <!-- 950 -->
      <g transform="translate(104.86 112.076563) scale(0.1 -0.1)">
       <use xlink:href="#DejaVuSans-39"/>
       <use xlink:href="#DejaVuSans-35" transform="translate(63.623047 0)"/>
       <use xlink:href="#DejaVuSans-30" transform="translate(127.246094 0)"/>
      </g>
     </g>
    </g>
    <g id="xtick_4">
     <g id="line2d_4">
      <g>
       <use xlink:href="#m19e7fb7a15" x="149.715" y="97.478125" style="stroke: #000000; stroke-width: 0.8"/>
      </g>
     </g>
     <g id="text_4">
      <!-- 975 -->
      <g transform="translate(140.17125 112.076563) scale(0.1 -0.1)">
       <defs>
        <path id="DejaVuSans-37" d="M 525 4666 
L 3525 4666 
L 3525 4397 
L 1831 0 
L 1172 0 
L 2766 4134 
L 525 4134 
L 525 4666 
z
" transform="scale(0.015625)"/>
       </defs>
       <use xlink:href="#DejaVuSans-39"/>
       <use xlink:href="#DejaVuSans-37" transform="translate(63.623047 0)"/>
       <use xlink:href="#DejaVuSans-35" transform="translate(127.246094 0)"/>
      </g>
     </g>
    </g>
    <g id="xtick_5">
     <g id="line2d_5">
      <g>
       <use xlink:href="#m19e7fb7a15" x="185.02625" y="97.478125" style="stroke: #000000; stroke-width: 0.8"/>
      </g>
     </g>
     <g id="text_5">
      <!-- 1000 -->
      <g transform="translate(172.30125 112.076563) scale(0.1 -0.1)">
       <defs>
        <path id="DejaVuSans-31" d="M 794 531 
L 1825 531 
L 1825 4091 
L 703 3866 
L 703 4441 
L 1819 4666 
L 2450 4666 
L 2450 531 
L 3481 531 
L 3481 0 
L 794 0 
L 794 531 
z
" transform="scale(0.015625)"/>
       </defs>
       <use xlink:href="#DejaVuSans-31"/>
       <use xlink:href="#DejaVuSans-30" transform="translate(63.623047 0)"/>
       <use xlink:href="#DejaVuSans-30" transform="translate(127.246094 0)"/>
       <use xlink:href="#DejaVuSans-30" transform="translate(190.869141 0)"/>
      </g>
     </g>
    </g>
    <g id="xtick_6">
     <g id="line2d_6">
      <g>
       <use xlink:href="#m19e7fb7a15" x="220.3375" y="97.478125" style="stroke: #000000; stroke-width: 0.8"/>
      </g>
     </g>
     <g id="text_6">
      <!-- 1025 -->
      <g transform="translate(207.6125 112.076563) scale(0.1 -0.1)">
       <use xlink:href="#DejaVuSans-31"/>
       <use xlink:href="#DejaVuSans-30" transform="translate(63.623047 0)"/>
       <use xlink:href="#DejaVuSans-32" transform="translate(127.246094 0)"/>
       <use xlink:href="#DejaVuSans-35" transform="translate(190.869141 0)"/>
      </g>
     </g>
    </g>
    <g id="xtick_7">
     <g id="line2d_7">
      <g>
       <use xlink:href="#m19e7fb7a15" x="255.64875" y="97.478125" style="stroke: #000000; stroke-width: 0.8"/>
      </g>
     </g>
     <g id="text_7">
      <!-- 1050 -->
      <g transform="translate(242.92375 112.076563) scale(0.1 -0.1)">
       <use xlink:href="#DejaVuSans-31"/>
       <use xlink:href="#DejaVuSans-30" transform="translate(63.623047 0)"/>
       <use xlink:href="#DejaVuSans-35" transform="translate(127.246094 0)"/>
       <use xlink:href="#DejaVuSans-30" transform="translate(190.869141 0)"/>
      </g>
     </g>
    </g>
    <g id="xtick_8">
     <g id="line2d_8">
      <g>
       <use xlink:href="#m19e7fb7a15" x="290.96" y="97.478125" style="stroke: #000000; stroke-width: 0.8"/>
      </g>
     </g>
     <g id="text_8">
      <!-- 1075 -->
      <g transform="translate(278.235 112.076563) scale(0.1 -0.1)">
       <use xlink:href="#DejaVuSans-31"/>
       <use xlink:href="#DejaVuSans-30" transform="translate(63.623047 0)"/>
       <use xlink:href="#DejaVuSans-37" transform="translate(127.246094 0)"/>
       <use xlink:href="#DejaVuSans-35" transform="translate(190.869141 0)"/>
      </g>
     </g>
    </g>
    <g id="xtick_9">
     <g id="line2d_9">
      <g>
       <use xlink:href="#m19e7fb7a15" x="326.27125" y="97.478125" style="stroke: #000000; stroke-width: 0.8"/>
      </g>
     </g>
     <g id="text_9">
      <!-- 1100 -->
      <g transform="translate(313.54625 112.076563) scale(0.1 -0.1)">
       <use xlink:href="#DejaVuSans-31"/>
       <use xlink:href="#DejaVuSans-31" transform="translate(63.623047 0)"/>
       <use xlink:href="#DejaVuSans-30" transform="translate(127.246094 0)"/>
       <use xlink:href="#DejaVuSans-30" transform="translate(190.869141 0)"/>
      </g>
     </g>
    </g>
    <g id="text_10">
     <!-- Energy (eV) -->
     <g transform="translate(155.5325 125.754688) scale(0.1 -0.1)">
      <defs>
       <path id="DejaVuSans-45" d="M 628 4666 
L 3578 4666 
L 3578 4134 
L 1259 4134 
L 1259 2753 
L 3481 2753 
L 3481 2222 
L 1259 2222 
L 1259 531 
L 3634 531 
L 3634 0 
L 628 0 
L 628 4666 
z
" transform="scale(0.015625)"/>
       <path id="DejaVuSans-6e" d="M 3513 2113 
L 3513 0 
L 2938 0 
L 2938 2094 
Q 2938 2591 2744 2837 
Q 2550 3084 2163 3084 
Q 1697 3084 1428 2787 
Q 1159 2491 1159 1978 
L 1159 0 
L 581 0 
L 581 3500 
L 1159 3500 
L 1159 2956 
Q 1366 3272 1645 3428 
Q 1925 3584 2291 3584 
Q 2894 3584 3203 3211 
Q 3513 2838 3513 2113 
z
" transform="scale(0.015625)"/>
       <path id="DejaVuSans-65" d="M 3597 1894 
L 3597 1613 
L 953 1613 
Q 991 1019 1311 708 
Q 1631 397 2203 397 
Q 2534 397 2845 478 
Q 3156 559 3463 722 
L 3463 178 
Q 3153 47 2828 -22 
Q 2503 -91 2169 -91 
Q 1331 -91 842 396 
Q 353 884 353 1716 
Q 353 2575 817 3079 
Q 1281 3584 2069 3584 
Q 2775 3584 3186 3129 
Q 3597 2675 3597 1894 
z
M 3022 2063 
Q 3016 2534 2758 2815 
Q 2500 3097 2075 3097 
Q 1594 3097 1305 2825 
Q 1016 2553 972 2059 
L 3022 2063 
z
" transform="scale(0.015625)"/>
       <path id="DejaVuSans-72" d="M 2631 2963 
Q 2534 3019 2420 3045 
Q 2306 3072 2169 3072 
Q 1681 3072 1420 2755 
Q 1159 2438 1159 1844 
L 1159 0 
L 581 0 
L 581 3500 
L 1159 3500 
L 1159 2956 
Q 1341 3275 1631 3429 
Q 1922 3584 2338 3584 
Q 2397 3584 2469 3576 
Q 2541 3569 2628 3553 
L 2631 2963 
z
" transform="scale(0.015625)"/>
       <path id="DejaVuSans-67" d="M 2906 1791 
Q 2906 2416 2648 2759 
Q 2391 3103 1925 3103 
Q 1463 3103 1205 2759 
Q 947 2416 947 1791 
Q 947 1169 1205 825 
Q 1463 481 1925 481 
Q 2391 481 2648 825 
Q 2906 1169 2906 1791 
z
M 3481 434 
Q 3481 -459 3084 -895 
Q 2688 -1331 1869 -1331 
Q 1566 -1331 1297 -1286 
Q 1028 -1241 775 -1147 
L 775 -588 
Q 1028 -725 1275 -790 
Q 1522 -856 1778 -856 
Q 2344 -856 2625 -561 
Q 2906 -266 2906 331 
L 2906 616 
Q 2728 306 2450 153 
Q 2172 0 1784 0 
Q 1141 0 747 490 
Q 353 981 353 1791 
Q 353 2603 747 3093 
Q 1141 3584 1784 3584 
Q 2172 3584 2450 3431 
Q 2728 3278 2906 2969 
L 2906 3500 
L 3481 3500 
L 3481 434 
z
" transform="scale(0.015625)"/>
       <path id="DejaVuSans-79" d="M 2059 -325 
Q 1816 -950 1584 -1140 
Q 1353 -1331 966 -1331 
L 506 -1331 
L 506 -850 
L 844 -850 
Q 1081 -850 1212 -737 
Q 1344 -625 1503 -206 
L 1606 56 
L 191 3500 
L 800 3500 
L 1894 763 
L 2988 3500 
L 3597 3500 
L 2059 -325 
z
" transform="scale(0.015625)"/>
       <path id="DejaVuSans-20" transform="scale(0.015625)"/>
       <path id="DejaVuSans-28" d="M 1984 4856 
Q 1566 4138 1362 3434 
Q 1159 2731 1159 2009 
Q 1159 1288 1364 580 
Q 1569 -128 1984 -844 
L 1484 -844 
Q 1016 -109 783 600 
Q 550 1309 550 2009 
Q 550 2706 781 3412 
Q 1013 4119 1484 4856 
L 1984 4856 
z
" transform="scale(0.015625)"/>
       <path id="DejaVuSans-56" d="M 1831 0 
L 50 4666 
L 709 4666 
L 2188 738 
L 3669 4666 
L 4325 4666 
L 2547 0 
L 1831 0 
z
" transform="scale(0.015625)"/>
       <path id="DejaVuSans-29" d="M 513 4856 
L 1013 4856 
Q 1481 4119 1714 3412 
Q 1947 2706 1947 2009 
Q 1947 1309 1714 600 
Q 1481 -109 1013 -844 
L 513 -844 
Q 928 -128 1133 580 
Q 1338 1288 1338 2009 
Q 1338 2731 1133 3434 
Q 928 4138 513 4856 
z
" transform="scale(0.015625)"/>
      </defs>
      <use xlink:href="#DejaVuSans-45"/>
      <use xlink:href="#DejaVuSans-6e" transform="translate(63.183594 0)"/>
      <use xlink:href="#DejaVuSans-65" transform="translate(126.5625 0)"/>
      <use xlink:href="#DejaVuSans-72" transform="translate(188.085938 0)"/>
      <use xlink:href="#DejaVuSans-67" transform="translate(227.449219 0)"/>
      <use xlink:href="#DejaVuSans-79" transform="translate(290.925781 0)"/>
      <use xlink:href="#DejaVuSans-20" transform="translate(350.105469 0)"/>
      <use xlink:href="#DejaVuSans-28" transform="translate(381.892578 0)"/>
      <use xlink:href="#DejaVuSans-65" transform="translate(420.90625 0)"/>
      <use xlink:href="#DejaVuSans-56" transform="translate(482.429688 0)"/>
      <use xlink:href="#DejaVuSans-29" transform="translate(550.837891 0)"/>
     </g>
    </g>
   </g>
   <g id="matplotlib.axis_2">
    <g id="ytick_1">
     <g id="line2d_10">
      <defs>
       <path id="m2a55593e6b" d="M 0 0 
L -3.5 0 
" style="stroke: #000000; stroke-width: 0.8"/>
      </defs>
      <g>
       <use xlink:href="#m2a55593e6b" x="43.78125" y="94.061761" style="stroke: #000000; stroke-width: 0.8"/>
      </g>
     </g>
     <g id="text_11">
      <!-- 0.0 -->
      <g transform="translate(20.878125 97.86098) scale(0.1 -0.1)">
       <defs>
        <path id="DejaVuSans-2e" d="M 684 794 
L 1344 794 
L 1344 0 
L 684 0 
L 684 794 
z
" transform="scale(0.015625)"/>
       </defs>
       <use xlink:href="#DejaVuSans-30"/>
       <use xlink:href="#DejaVuSans-2e" transform="translate(63.623047 0)"/>
       <use xlink:href="#DejaVuSans-30" transform="translate(95.410156 0)"/>
      </g>
     </g>
    </g>
    <g id="ytick_2">
     <g id="line2d_11">
      <g>
       <use xlink:href="#m2a55593e6b" x="43.78125" y="59.898125" style="stroke: #000000; stroke-width: 0.8"/>
      </g>
     </g>
     <g id="text_12">
      <!-- 0.5 -->
      <g transform="translate(20.878125 63.697344) scale(0.1 -0.1)">
       <use xlink:href="#DejaVuSans-30"/>
       <use xlink:href="#DejaVuSans-2e" transform="translate(63.623047 0)"/>
       <use xlink:href="#DejaVuSans-35" transform="translate(95.410156 0)"/>
      </g>
     </g>
    </g>
    <g id="ytick_3">
     <g id="line2d_12">
      <g>
       <use xlink:href="#m2a55593e6b" x="43.78125" y="25.734489" style="stroke: #000000; stroke-width: 0.8"/>
      </g>
     </g>
     <g id="text_13">
      <!-- 1.0 -->
      <g transform="translate(20.878125 29.533707) scale(0.1 -0.1)">
       <use xlink:href="#DejaVuSans-31"/>
       <use xlink:href="#DejaVuSans-2e" transform="translate(63.623047 0)"/>
       <use xlink:href="#DejaVuSans-30" transform="translate(95.410156 0)"/>
      </g>
     </g>
    </g>
    <g id="text_14">
     <!-- Intensity (a.u.) -->
     <g transform="translate(14.798438 96.562187) rotate(-90) scale(0.1 -0.1)">
      <defs>
       <path id="DejaVuSans-49" d="M 628 4666 
L 1259 4666 
L 1259 0 
L 628 0 
L 628 4666 
z
" transform="scale(0.015625)"/>
       <path id="DejaVuSans-74" d="M 1172 4494 
L 1172 3500 
L 2356 3500 
L 2356 3053 
L 1172 3053 
L 1172 1153 
Q 1172 725 1289 603 
Q 1406 481 1766 481 
L 2356 481 
L 2356 0 
L 1766 0 
Q 1100 0 847 248 
Q 594 497 594 1153 
L 594 3053 
L 172 3053 
L 172 3500 
L 594 3500 
L 594 4494 
L 1172 4494 
z
" transform="scale(0.015625)"/>
       <path id="DejaVuSans-73" d="M 2834 3397 
L 2834 2853 
Q 2591 2978 2328 3040 
Q 2066 3103 1784 3103 
Q 1356 3103 1142 2972 
Q 928 2841 928 2578 
Q 928 2378 1081 2264 
Q 1234 2150 1697 2047 
L 1894 2003 
Q 2506 1872 2764 1633 
Q 3022 1394 3022 966 
Q 3022 478 2636 193 
Q 2250 -91 1575 -91 
Q 1294 -91 989 -36 
Q 684 19 347 128 
L 347 722 
Q 666 556 975 473 
Q 1284 391 1588 391 
Q 1994 391 2212 530 
Q 2431 669 2431 922 
Q 2431 1156 2273 1281 
Q 2116 1406 1581 1522 
L 1381 1569 
Q 847 1681 609 1914 
Q 372 2147 372 2553 
Q 372 3047 722 3315 
Q 1072 3584 1716 3584 
Q 2034 3584 2315 3537 
Q 2597 3491 2834 3397 
z
" transform="scale(0.015625)"/>
       <path id="DejaVuSans-69" d="M 603 3500 
L 1178 3500 
L 1178 0 
L 603 0 
L 603 3500 
z
M 603 4863 
L 1178 4863 
L 1178 4134 
L 603 4134 
L 603 4863 
z
" transform="scale(0.015625)"/>
       <path id="DejaVuSans-61" d="M 2194 1759 
Q 1497 1759 1228 1600 
Q 959 1441 959 1056 
Q 959 750 1161 570 
Q 1363 391 1709 391 
Q 2188 391 2477 730 
Q 2766 1069 2766 1631 
L 2766 1759 
L 2194 1759 
z
M 3341 1997 
L 3341 0 
L 2766 0 
L 2766 531 
Q 2569 213 2275 61 
Q 1981 -91 1556 -91 
Q 1019 -91 701 211 
Q 384 513 384 1019 
Q 384 1609 779 1909 
Q 1175 2209 1959 2209 
L 2766 2209 
L 2766 2266 
Q 2766 2663 2505 2880 
Q 2244 3097 1772 3097 
Q 1472 3097 1187 3025 
Q 903 2953 641 2809 
L 641 3341 
Q 956 3463 1253 3523 
Q 1550 3584 1831 3584 
Q 2591 3584 2966 3190 
Q 3341 2797 3341 1997 
z
" transform="scale(0.015625)"/>
       <path id="DejaVuSans-75" d="M 544 1381 
L 544 3500 
L 1119 3500 
L 1119 1403 
Q 1119 906 1312 657 
Q 1506 409 1894 409 
Q 2359 409 2629 706 
Q 2900 1003 2900 1516 
L 2900 3500 
L 3475 3500 
L 3475 0 
L 2900 0 
L 2900 538 
Q 2691 219 2414 64 
Q 2138 -91 1772 -91 
Q 1169 -91 856 284 
Q 544 659 544 1381 
z
M 1991 3584 
L 1991 3584 
z
" transform="scale(0.015625)"/>
      </defs>
      <use xlink:href="#DejaVuSans-49"/>
      <use xlink:href="#DejaVuSans-6e" transform="translate(29.492188 0)"/>
      <use xlink:href="#DejaVuSans-74" transform="translate(92.871094 0)"/>
      <use xlink:href="#DejaVuSans-65" transform="translate(132.080078 0)"/>
      <use xlink:href="#DejaVuSans-6e" transform="translate(193.603516 0)"/>
      <use xlink:href="#DejaVuSans-73" transform="translate(256.982422 0)"/>
      <use xlink:href="#DejaVuSans-69" transform="translate(309.082031 0)"/>
      <use xlink:href="#DejaVuSans-74" transform="translate(336.865234 0)"/>
      <use xlink:href="#DejaVuSans-79" transform="translate(376.074219 0)"/>
      <use xlink:href="#DejaVuSans-20" transform="translate(435.253906 0)"/>
      <use xlink:href="#DejaVuSans-28" transform="translate(467.041016 0)"/>
      <use xlink:href="#DejaVuSans-61" transform="translate(506.054688 0)"/>
      <use xlink:href="#DejaVuSans-2e" transform="translate(567.333984 0)"/>
      <use xlink:href="#DejaVuSans-75" transform="translate(599.121094 0)"/>
      <use xlink:href="#DejaVuSans-2e" transform="translate(662.5 0)"/>
      <use xlink:href="#DejaVuSans-29" transform="translate(694.287109 0)"/>
     </g>
    </g>
   </g>
   <g id="line2d_13">
    <path d="M 347.19625 93.74843 
L 347.173602 93.757882 
L 346.730808 93.665915 
L 346.58321 93.673551 
L 346.435612 93.809571 
L 346.140416 93.778062 
L 345.697622 93.869059 
L 344.812035 93.663491 
L 344.221639 93.751761 
L 343.778846 93.652803 
L 343.48365 93.636589 
L 343.336052 93.462477 
L 343.188454 93.804318 
L 341.564876 93.717079 
L 341.269681 93.705642 
L 340.531687 93.59862 
L 340.088894 93.803078 
L 338.90811 93.46393 
L 338.612914 93.666798 
L 338.465313 93.452967 
L 337.874921 93.696803 
L 337.579725 93.6535 
L 336.694138 93.478609 
L 336.398942 93.712087 
L 335.956151 93.580424 
L 335.070557 93.738606 
L 334.775361 93.626472 
L 334.037375 93.460716 
L 333.742179 93.704269 
L 333.446983 93.657571 
L 333.299381 93.740517 
L 333.004186 93.619247 
L 332.70899 93.395966 
L 332.413794 93.553838 
L 332.118598 93.54957 
L 331.675801 93.704738 
L 330.495017 93.575311 
L 330.347423 93.430396 
L 330.199821 93.608149 
L 329.904625 93.677308 
L 328.871443 93.66057 
L 328.576247 93.554651 
L 328.281052 93.684045 
L 327.838254 93.581009 
L 327.690653 93.687889 
L 327.395457 93.567479 
L 327.100261 93.760742 
L 325.919478 93.631784 
L 325.624282 93.692739 
L 325.476687 93.597057 
L 325.181491 93.61535 
L 325.03389 93.51234 
L 324.738694 93.626101 
L 324.295897 93.439059 
L 324.148302 93.512479 
L 323.705505 93.41626 
L 323.115113 93.334971 
L 322.967519 93.188436 
L 322.672323 93.617269 
L 321.93433 93.564707 
L 321.639134 93.621101 
L 321.196344 93.332275 
L 320.901148 93.305533 
L 320.753546 93.397316 
L 320.605945 93.26519 
L 320.310749 93.483526 
L 319.867959 93.321897 
L 319.720357 93.201698 
L 319.572763 93.426697 
L 319.425161 93.350546 
L 319.277567 93.141106 
L 318.834769 93.47796 
L 318.244378 93.375332 
L 317.949182 93.482524 
L 317.506392 93.411398 
L 316.915993 93.352871 
L 316.620797 93.178666 
L 316.178007 93.284352 
L 316.030405 92.953069 
L 315.882811 93.022399 
L 315.440013 92.910255 
L 315.292419 92.948118 
L 315.144818 92.62894 
L 314.997223 92.81811 
L 314.849622 92.481678 
L 314.554426 92.806516 
L 314.406831 92.773608 
L 314.25923 93.091355 
L 314.111636 92.71131 
L 313.81644 92.959147 
L 313.668838 92.877181 
L 313.521244 93.043534 
L 313.078446 93.082918 
L 312.930845 92.887674 
L 312.783251 92.973696 
L 312.488055 92.839246 
L 312.340453 92.821056 
L 312.045257 92.976467 
L 311.897663 92.80761 
L 311.454866 93.13692 
L 311.307271 92.971068 
L 311.15967 93.019941 
L 311.012075 92.835994 
L 310.716879 92.733195 
L 310.274082 92.513787 
L 309.978886 92.557941 
L 309.831292 92.630048 
L 309.68369 92.498901 
L 309.093299 92.779867 
L 308.945697 92.257689 
L 308.650501 92.591394 
L 308.355305 92.308188 
L 308.06011 92.37932 
L 307.912515 92.584849 
L 307.617319 92.016691 
L 307.469718 92.018716 
L 307.174522 91.802872 
L 307.026927 91.387068 
L 306.436536 91.588002 
L 306.288934 91.151651 
L 306.14134 91.123624 
L 305.846137 90.802096 
L 305.550941 91.284476 
L 305.403347 91.673621 
L 305.255745 91.628195 
L 305.108151 91.954457 
L 304.812955 91.459046 
L 304.517759 92.07282 
L 304.222563 92.12788 
L 304.074962 92.078292 
L 303.632171 92.44405 
L 303.48457 92.356426 
L 303.336975 92.567334 
L 303.189374 92.562876 
L 303.04178 92.879845 
L 302.746584 92.619482 
L 302.598982 92.839026 
L 302.303786 92.667746 
L 302.156185 92.72311 
L 301.860989 92.529532 
L 301.713395 92.349506 
L 301.565793 92.47371 
L 301.418199 92.192131 
L 301.270597 92.657737 
L 301.123003 92.744792 
L 300.975401 92.641507 
L 300.827807 92.254821 
L 300.680206 92.339798 
L 300.38501 91.771362 
L 299.942219 91.698495 
L 299.794618 91.564859 
L 299.204226 90.235227 
L 299.056632 90.163354 
L 298.171037 88.338699 
L 298.023443 87.799474 
L 297.875841 88.1383 
L 297.728247 88.073596 
L 297.580645 87.672575 
L 297.28545 88.029005 
L 296.990254 87.761546 
L 296.842659 88.022077 
L 296.695058 88.845799 
L 296.547463 88.79576 
L 296.252267 89.29786 
L 296.104666 89.642369 
L 295.957072 88.844398 
L 295.80947 88.726907 
L 295.661876 89.449555 
L 295.514274 89.039261 
L 295.36668 88.995687 
L 295.219078 89.7571 
L 295.071484 89.921395 
L 294.923882 89.748028 
L 294.776281 89.851846 
L 294.481085 89.596124 
L 294.185889 90.437706 
L 294.038295 90.105271 
L 293.743099 91.258912 
L 293.447903 91.531461 
L 293.300302 91.321159 
L 293.152707 91.706928 
L 293.005106 91.767639 
L 292.857511 91.642043 
L 292.119518 92.659769 
L 291.676728 92.779905 
L 291.381532 93.122056 
L 291.233931 93.107431 
L 291.086329 92.920721 
L 290.643539 93.037088 
L 290.495937 93.073707 
L 290.053147 92.802217 
L 289.905546 92.972381 
L 289.757951 93.362889 
L 289.167559 92.928932 
L 289.019958 92.963479 
L 288.724762 93.240642 
L 288.13437 92.988396 
L 287.839174 93.309602 
L 287.543979 93.395897 
L 287.396377 93.230863 
L 287.248783 93.326866 
L 287.101181 93.271654 
L 286.805985 93.364134 
L 286.510789 93.258036 
L 286.067999 93.526176 
L 285.920398 93.446181 
L 285.772803 93.509559 
L 285.330006 93.211285 
L 285.182412 93.3441 
L 285.03481 93.264104 
L 284.59202 93.528303 
L 284.296824 93.587219 
L 283.116033 93.50164 
L 282.673243 93.280991 
L 282.230446 93.652375 
L 281.787655 93.473269 
L 281.49246 93.532415 
L 281.344858 93.429821 
L 281.049662 93.438507 
L 280.902068 93.356352 
L 280.606872 93.374927 
L 279.868872 93.407154 
L 279.573683 93.424744 
L 279.130893 93.50426 
L 278.688088 93.694117 
L 278.097696 93.500601 
L 277.950109 93.616935 
L 277.654906 93.284834 
L 277.507305 93.59262 
L 277.212116 93.358132 
L 277.064514 93.226146 
L 276.916913 93.249874 
L 276.769326 93.950825 
L 275.883731 93.98166 
L 274.407745 93.981814 
L 272.636569 94.001586 
L 272.193779 93.997429 
L 267.765834 93.896372 
L 267.323044 93.863313 
L 266.880253 93.873147 
L 266.58505 93.926665 
L 264.518672 93.670218 
L 263.633092 93.383948 
L 263.48549 93.223284 
L 262.895098 93.350208 
L 262.59991 93.461199 
L 261.714315 93.58475 
L 261.123923 93.733728 
L 259.352748 93.774707 
L 259.205146 93.718732 
L 258.762356 93.813909 
L 258.467153 93.774309 
L 258.171964 93.573268 
L 257.876761 93.203976 
L 257.28637 92.007062 
L 256.991181 91.589316 
L 256.843579 91.552843 
L 256.548377 91.380857 
L 256.400789 91.225196 
L 256.253188 91.307793 
L 255.810397 91.809528 
L 255.367593 92.220663 
L 255.072404 92.556364 
L 254.629614 92.653044 
L 254.334411 92.426158 
L 254.039208 92.530515 
L 253.744019 92.432614 
L 251.972844 93.564432 
L 251.677641 93.533329 
L 251.382452 93.56483 
L 250.79206 93.467035 
L 250.201669 93.308958 
L 249.168473 92.579595 
L 248.578081 91.503828 
L 248.430493 91.433476 
L 248.282892 91.567186 
L 248.135291 91.538325 
L 247.987689 91.722531 
L 247.544899 92.795663 
L 247.24971 93.318974 
L 246.659304 93.433661 
L 246.216514 93.282719 
L 245.626122 93.099723 
L 245.330933 92.988794 
L 245.03573 92.814072 
L 244.740541 92.956421 
L 244.297737 93.241354 
L 243.854947 93.305727 
L 243.264555 93.450341 
L 242.969352 93.317679 
L 242.674163 93.321739 
L 241.05059 93.314066 
L 240.017393 92.445726 
L 239.427002 92.596686 
L 239.131813 92.437381 
L 238.984211 92.434606 
L 238.541421 92.153058 
L 238.39382 92.131153 
L 238.098617 92.428902 
L 237.803428 92.926736 
L 237.508225 93.031685 
L 236.622644 93.335992 
L 236.327441 93.386444 
L 236.179854 93.51387 
L 235.73705 93.346661 
L 235.441861 93.226369 
L 235.146658 93.345842 
L 234.851469 93.448814 
L 234.261077 93.615396 
L 233.965874 93.677691 
L 232.194699 93.806794 
L 231.899496 93.726241 
L 231.604307 93.696889 
L 231.161517 93.58708 
L 228.947538 93.485663 
L 227.471565 92.850254 
L 227.323964 85.188317 
L 227.028761 83.990022 
L 226.733572 84.788483 
L 226.438369 83.573939 
L 226.290782 83.512294 
L 226.14318 84.82574 
L 225.847977 84.812333 
L 225.552789 86.363716 
L 225.405187 86.788821 
L 225.257586 86.720379 
L 225.109998 86.835143 
L 224.814795 87.416769 
L 224.519592 86.014667 
L 224.372005 86.010028 
L 223.929201 83.971657 
L 223.781613 84.141139 
L 223.634012 84.028838 
L 223.191222 81.399056 
L 222.896019 78.670591 
L 222.748417 79.075691 
L 222.60083 78.272809 
L 222.453228 76.676855 
L 222.305627 76.441556 
L 222.158025 77.565241 
L 221.715235 77.478929 
L 221.420046 75.650369 
L 221.272445 75.887186 
L 220.82964 78.189955 
L 220.682053 79.206803 
L 220.534452 78.639981 
L 219.50127 83.038856 
L 219.206067 82.169175 
L 219.058465 82.091772 
L 218.763276 80.367738 
L 218.468073 77.101058 
L 218.172885 73.93837 
L 217.28729 48.93247 
L 216.992101 45.374699 
L 216.8445 44.263199 
L 216.549297 40.742652 
L 216.401709 39.382721 
L 216.254108 40.407676 
L 215.958905 38.375546 
L 215.811318 39.522178 
L 215.663716 39.370944 
L 215.516115 38.341769 
L 215.368513 39.10091 
L 215.073324 42.497556 
L 214.482933 57.565481 
L 214.335331 59.250105 
L 214.18773 59.466976 
L 214.040142 58.731323 
L 213.597338 54.158126 
L 213.449737 51.563577 
L 213.302149 51.857428 
L 213.154548 51.8792 
L 213.006946 52.929872 
L 212.564156 58.900618 
L 212.416554 59.177843 
L 212.268953 59.977548 
L 211.08817 73.219093 
L 210.497778 83.681258 
L 209.759785 89.56076 
L 209.464596 89.680285 
L 209.021805 90.533674 
L 208.874204 90.27749 
L 208.579001 90.538598 
L 208.283812 90.426194 
L 208.136211 90.57529 
L 207.988609 90.48623 
L 207.69342 90.957047 
L 207.398218 90.707968 
L 207.25063 90.822425 
L 207.103029 90.753352 
L 206.807826 91.013424 
L 206.660238 90.876545 
L 206.512637 90.913447 
L 206.217434 91.622314 
L 205.922245 91.009165 
L 205.479441 91.637924 
L 205.331853 91.700205 
L 205.184252 92.00249 
L 204.889049 91.903773 
L 204.741462 91.966954 
L 204.59386 91.860111 
L 204.298657 92.447985 
L 204.15107 92.188178 
L 203.708266 92.860634 
L 203.560678 92.735047 
L 203.265475 92.853654 
L 202.970286 93.172156 
L 202.822685 92.847439 
L 202.232293 92.579715 
L 202.084692 92.756678 
L 201.789489 92.608653 
L 201.641902 92.85766 
L 201.346699 92.780793 
L 200.903908 92.19732 
L 200.756307 92.213934 
L 200.313517 92.572612 
L 200.018314 92.183171 
L 199.870726 92.37032 
L 199.575523 92.315772 
L 199.280334 92.853034 
L 199.132733 92.822627 
L 198.83753 92.922434 
L 198.39474 92.669757 
L 198.247138 92.41051 
L 197.804348 92.697292 
L 197.656747 92.685303 
L 197.509145 92.481368 
L 197.213956 92.620707 
L 196.918753 92.124538 
L 196.328362 92.947192 
L 196.033173 92.208648 
L 195.442781 92.527985 
L 195.147578 92.601316 
L 194.852389 92.507242 
L 194.704788 92.529059 
L 194.261998 92.015406 
L 194.114396 92.156185 
L 193.819193 92.74837 
L 193.376403 92.908441 
L 193.081214 92.703652 
L 192.786011 92.791314 
L 192.63841 92.756776 
L 192.343221 92.929946 
L 191.752829 92.081658 
L 191.605228 92.20851 
L 191.457626 92.753099 
L 190.424444 91.939463 
L 190.129241 92.40924 
L 189.834052 92.114111 
L 189.686451 92.368032 
L 189.391262 91.909767 
L 189.243661 91.595147 
L 189.096059 91.685203 
L 188.80087 92.239074 
L 188.653269 92.107973 
L 188.505667 91.64472 
L 188.210479 91.934307 
L 187.915276 92.178412 
L 187.620073 92.691571 
L 187.324884 92.794933 
L 187.029681 93.122605 
L 186.882094 93.085937 
L 186.734492 93.209739 
L 186.586891 93.021733 
L 186.439289 92.455035 
L 186.291702 92.343775 
L 185.996499 92.613747 
L 185.848898 92.547996 
L 185.70131 92.627186 
L 185.110918 92.308475 
L 184.815715 92.844568 
L 184.520527 92.565041 
L 184.225324 92.997959 
L 184.077722 92.996376 
L 183.930121 92.87966 
L 183.339729 93.02711 
L 183.04454 92.919839 
L 182.158946 92.889444 
L 181.568554 92.660469 
L 181.420966 93.111518 
L 180.682973 93.401375 
L 180.38777 93.163477 
L 179.94498 93.233457 
L 179.649777 92.959272 
L 179.354588 93.158641 
L 179.059385 93.100033 
L 178.911798 93.230473 
L 178.616595 93.128794 
L 178.173805 93.513032 
L 177.878602 93.352526 
L 177.583413 93.141989 
L 176.993021 93.307408 
L 176.550217 92.942002 
L 175.812238 93.165802 
L 175.517035 93.568916 
L 175.221846 93.478823 
L 175.074245 93.561322 
L 174.779042 93.3376 
L 174.631454 93.135472 
L 173.598258 93.497393 
L 173.007866 93.166397 
L 172.565076 93.378188 
L 172.269873 93.049748 
L 172.122286 92.989063 
L 171.827083 93.312263 
L 171.531894 92.979531 
L 171.236691 93.335126 
L 170.793901 93.248134 
L 170.498698 93.436556 
L 170.351111 93.384539 
L 170.055908 92.93609 
L 169.613117 93.242668 
L 169.465516 93.207783 
L 169.170313 93.429913 
L 168.875124 92.861319 
L 168.432334 93.261614 
L 168.284732 93.357325 
L 167.98953 92.913088 
L 167.694341 92.897604 
L 167.399138 93.227453 
L 167.25155 93.180231 
L 166.956347 93.317746 
L 166.661159 93.096513 
L 166.365956 93.536018 
L 166.218354 93.35766 
L 166.070767 92.95124 
L 165.332774 93.416688 
L 165.037571 93.171997 
L 164.889969 93.329782 
L 164.742382 93.288466 
L 164.59478 93.011214 
L 164.447179 93.025883 
L 164.15199 93.342751 
L 164.004389 93.353473 
L 163.709186 93.228843 
L 163.561598 93.386036 
L 163.413997 93.183526 
L 162.971207 93.322363 
L 162.823605 93.097253 
L 162.528402 93.349227 
L 162.380815 93.239975 
L 162.085612 93.300841 
L 161.642808 93.287654 
L 161.347633 93.039776 
L 160.609626 93.097359 
L 160.462024 92.895751 
L 160.314423 92.946745 
L 160.166849 93.251852 
L 159.871646 92.906026 
L 159.133639 93.133309 
L 158.838464 92.712618 
L 158.543262 93.073348 
L 158.248059 93.082551 
L 158.100457 92.989597 
L 157.51008 93.227347 
L 157.214877 92.958125 
L 157.067275 92.73361 
L 156.919674 92.856736 
L 156.772072 93.17993 
L 156.181695 92.956625 
L 155.886492 93.126266 
L 155.591289 93.410642 
L 155.443687 93.173288 
L 155.148513 93.049257 
L 154.558107 92.769144 
L 154.262904 92.96278 
L 154.115302 92.936814 
L 153.820128 92.563843 
L 153.524925 92.821871 
L 152.934519 93.039292 
L 152.786945 93.354175 
L 152.639344 93.401741 
L 152.491743 92.999609 
L 152.344141 92.941248 
L 152.048938 93.241766 
L 151.901337 93.1946 
L 151.458561 92.666272 
L 151.163358 92.853145 
L 151.015756 92.800173 
L 150.720553 92.930532 
L 150.42535 93.008415 
L 149.982574 93.157632 
L 149.687371 93.003574 
L 149.244567 93.235763 
L 148.949392 93.132913 
L 148.801791 93.01348 
L 148.506588 93.148563 
L 148.211385 92.810386 
L 147.768609 93.164095 
L 147.473406 93.006628 
L 147.030601 93.074043 
L 146.883 92.933477 
L 146.440224 93.204441 
L 145.997419 93.074291 
L 145.849818 92.970556 
L 145.554615 93.159466 
L 145.25944 92.926613 
L 145.111839 93.009783 
L 144.669034 92.770837 
L 144.373831 92.869448 
L 143.931055 92.864348 
L 143.488251 93.088585 
L 143.193048 93.104277 
L 142.750272 92.544639 
L 142.455069 93.057489 
L 142.307467 93.025665 
L 142.012264 92.681791 
L 141.569488 93.224482 
L 141.421887 93.205517 
L 141.126684 93.041447 
L 140.831481 93.310109 
L 140.536306 93.140438 
L 140.388705 93.190962 
L 139.9459 92.849194 
L 139.650697 93.166033 
L 139.503096 93.388622 
L 139.355494 93.364646 
L 139.06032 92.871638 
L 138.912718 92.777822 
L 138.765117 92.877182 
L 138.469914 93.249268 
L 138.174711 93.139774 
L 138.027138 93.208989 
L 137.731935 92.995173 
L 137.436732 92.909591 
L 137.28913 92.864974 
L 136.993927 93.034157 
L 136.698753 93.432821 
L 136.108347 92.804323 
L 135.665542 93.355822 
L 135.517969 93.230584 
L 135.222766 93.324736 
L 134.927563 92.901818 
L 134.779962 92.970651 
L 134.337186 92.567694 
L 134.041983 92.759067 
L 133.894381 92.594426 
L 133.451577 92.951219 
L 133.156402 93.19929 
L 132.713598 93.002633 
L 132.418395 93.250776 
L 132.123192 92.92053 
L 131.975591 92.684923 
L 131.828017 92.676059 
L 131.680416 92.869726 
L 131.385213 92.629897 
L 131.09001 92.847791 
L 130.794807 92.628761 
L 130.204429 92.983721 
L 130.056828 92.861687 
L 129.909226 92.909911 
L 129.614024 93.211485 
L 129.171247 92.897189 
L 129.023646 93.096565 
L 128.43324 92.896315 
L 128.138065 93.190865 
L 127.990464 92.847745 
L 127.842862 92.794249 
L 127.695261 93.037711 
L 127.400058 93.093741 
L 127.252457 93.125571 
L 126.957282 92.853847 
L 126.662079 92.979371 
L 126.514477 92.832032 
L 126.219275 93.000513 
L 125.924072 92.767095 
L 125.776498 92.717671 
L 125.038491 93.001472 
L 124.89089 92.927732 
L 124.595687 92.938434 
L 124.448113 92.61798 
L 124.300512 92.579869 
L 124.005309 92.910774 
L 123.562505 92.908969 
L 123.119728 92.662041 
L 122.676924 93.32617 
L 122.381721 93.109226 
L 122.23412 93.028617 
L 121.791343 92.196529 
L 121.643742 92.292876 
L 121.49614 92.642603 
L 121.348539 92.573972 
L 121.200938 92.770697 
L 120.905735 92.547347 
L 120.758161 92.815957 
L 120.61056 92.526399 
L 120.462958 92.549424 
L 120.315357 92.964558 
L 120.020154 93.048531 
L 119.872553 93.129436 
L 119.282175 92.963399 
L 119.134573 93.135938 
L 118.986972 93.10706 
L 118.839371 92.89477 
L 118.101391 93.054214 
L 117.95379 93.154319 
L 117.510986 92.714034 
L 117.215783 92.815226 
L 117.068209 92.439757 
L 116.920608 92.398717 
L 116.625405 92.843589 
L 116.477804 92.780916 
L 116.182601 93.077997 
L 115.887426 93.025045 
L 115.592223 93.291897 
L 115.29702 92.863145 
L 115.001817 92.864704 
L 114.706642 92.413427 
L 114.559041 92.509316 
L 114.263838 93.205799 
L 113.673432 92.873008 
L 113.378257 93.060802 
L 113.230656 92.783325 
L 112.935453 93.113327 
L 112.787852 92.983476 
L 112.492649 93.0763 
L 112.197474 92.687896 
L 111.75467 93.159187 
L 111.607068 93.083732 
L 111.459467 93.136783 
L 111.164264 93.019147 
L 111.01669 93.135593 
L 110.721488 93.00025 
L 110.426285 93.031863 
L 110.131082 92.634119 
L 109.98348 92.776117 
L 109.688306 92.623519 
L 109.393103 92.980304 
L 109.0979 93.146689 
L 108.655095 92.670755 
L 108.507522 92.834214 
L 108.359921 92.780956 
L 108.064718 93.367464 
L 107.621913 93.014081 
L 107.031536 93.178256 
L 106.883934 93.14199 
L 106.588731 92.819484 
L 106.145927 92.829651 
L 105.998354 92.788621 
L 105.555549 93.11042 
L 105.407948 92.705526 
L 105.260346 92.784717 
L 104.965143 93.085271 
L 104.81757 93.116546 
L 104.374766 92.65209 
L 103.931961 93.057637 
L 103.78436 92.917308 
L 103.341584 92.946283 
L 103.193982 92.924451 
L 102.898779 93.206699 
L 102.751178 93.183821 
L 102.308402 92.766279 
L 102.013199 93.019821 
L 101.865597 92.937431 
L 101.570394 92.982974 
L 101.275191 92.639064 
L 101.127618 92.802864 
L 100.832415 92.64069 
L 100.537212 92.432317 
L 100.242009 92.732883 
L 100.094408 92.910596 
L 99.651632 92.653114 
L 99.50403 92.686131 
L 99.208827 93.099609 
L 98.913624 93.217399 
L 98.175645 92.36022 
L 97.880442 92.915441 
L 97.732841 92.996481 
L 97.437666 92.847826 
L 97.142463 92.660407 
L 96.84726 92.98257 
L 96.699659 92.987372 
L 96.552057 92.854856 
L 96.256883 92.900861 
L 95.666477 92.296062 
L 95.518875 92.554837 
L 95.371274 93.187667 
L 95.223672 93.23921 
L 94.928498 92.387316 
L 94.780896 92.546519 
L 94.485693 92.464517 
L 94.19049 92.368837 
L 93.747714 92.509098 
L 93.452511 92.335584 
L 93.157308 92.484638 
L 92.862105 91.800551 
L 92.714504 92.159117 
L 92.566931 92.200281 
L 92.419329 92.010144 
L 92.271728 92.170732 
L 92.124126 92.111711 
L 91.828923 92.608991 
L 91.386119 92.113889 
L 90.943343 92.618751 
L 90.795741 92.609766 
L 90.500538 92.311115 
L 90.205336 92.483459 
L 90.057762 92.497297 
L 89.762559 92.273403 
L 89.319755 92.449259 
L 88.729377 92.383061 
L 88.434174 92.77001 
L 88.286573 92.708772 
L 87.99137 92.224369 
L 87.843768 91.723368 
L 87.696167 91.697231 
L 87.400992 92.314437 
L 87.253391 92.41272 
L 86.958188 92.091402 
L 86.810586 92.186374 
L 86.662985 92.487924 
L 86.515384 92.492348 
L 86.220209 92.123853 
L 85.925006 92.396393 
L 85.482201 91.700074 
L 85.187027 92.014698 
L 84.891824 91.677026 
L 84.596621 91.963527 
L 84.449019 91.947654 
L 84.153817 91.660722 
L 83.858642 91.919027 
L 83.563439 91.57959 
L 83.268236 91.520665 
L 83.120635 91.011732 
L 82.973033 90.96 
L 82.825432 91.484026 
L 82.677858 91.459684 
L 82.235054 90.287148 
L 82.087452 90.199849 
L 81.349473 87.63199 
L 81.201872 87.747131 
L 81.05427 87.2453 
L 80.611466 83.650181 
L 80.316263 84.948609 
L 80.16869 84.423796 
L 79.725885 81.857484 
L 79.578284 82.230382 
L 78.987906 84.938608 
L 78.840305 84.883363 
L 78.545102 84.33792 
L 77.954696 81.220326 
L 77.807123 81.140335 
L 77.659521 80.832575 
L 76.921514 73.035714 
L 75.888332 46.441517 
L 75.593129 35.09037 
L 75.150353 26.730566 
L 74.85515 25.734489 
L 74.707549 27.075763 
L 74.412346 30.962735 
L 74.264744 33.018348 
L 73.969569 40.367291 
L 73.674366 44.585985 
L 73.379164 51.370467 
L 73.083961 56.517992 
L 72.788786 61.240029 
L 72.493583 64.494599 
L 72.050779 63.245722 
L 71.165198 51.621137 
L 71.017597 48.12299 
L 70.869995 47.280979 
L 70.722394 47.805967 
L 70.427219 44.567934 
L 70.132016 46.324184 
L 69.836813 49.486931 
L 69.689212 50.46098 
L 69.246407 59.841484 
L 68.803631 68.057992 
L 68.508428 73.110901 
L 67.770449 81.839937 
L 67.475246 84.655438 
L 67.327645 85.004288 
L 67.032442 83.754185 
L 66.589666 85.41993 
L 66.442064 85.376639 
L 66.294463 85.522343 
L 65.99926 85.215402 
L 65.408882 82.499972 
L 65.261281 82.308788 
L 65.113679 82.578734 
L 64.966078 82.615724 
L 64.818476 82.422322 
L 64.523273 81.309696 
L 64.375672 81.127411 
L 64.228099 81.179212 
L 63.785294 81.911989 
L 63.490091 82.916902 
L 63.194888 84.690591 
L 62.899714 86.231354 
L 62.309308 87.600274 
L 62.014105 88.86964 
L 61.866503 88.297395 
L 61.71893 88.643472 
L 61.571329 89.294331 
L 61.276126 87.524098 
L 60.980923 88.339503 
L 60.68572 87.760563 
L 60.390545 88.196931 
L 59.947741 86.671284 
L 59.800139 87.082805 
L 59.504936 88.961351 
L 59.06216 90.147293 
L 58.766957 91.057909 
L 58.619356 91.220881 
L 58.176551 90.991209 
L 57.881377 91.216315 
L 57.586174 91.401006 
L 56.995768 91.392095 
L 56.552992 92.227548 
L 56.257789 91.682474 
L 55.962586 91.73809 
L 55.814984 91.699768 
L 55.372208 92.093143 
L 55.224607 92.083484 
L 55.077005 91.843041 
L 54.634201 91.907174 
L 54.486599 92.134786 
L 54.339026 91.952223 
L 54.191425 91.965211 
L 54.043823 92.214982 
L 53.601019 92.247935 
L 53.453417 91.914959 
L 53.305816 92.059609 
L 53.158243 92.411255 
L 53.010641 92.303774 
L 52.86304 92.406353 
L 52.420235 91.895575 
L 52.272634 91.955325 
L 51.682256 92.672735 
L 51.534655 92.642495 
L 51.387053 92.41403 
L 51.09185 92.464038 
L 50.501473 92.693492 
L 50.353871 92.541805 
L 50.20627 92.574851 
L 50.058668 92.805895 
L 49.911067 92.694569 
L 49.468291 92.98135 
L 49.320689 92.577941 
L 49.025486 93.177764 
L 48.582682 92.39011 
L 48.43508 92.576083 
L 48.287507 92.482339 
L 48.139906 91.980022 
L 47.992304 92.233193 
L 47.697101 92.988763 
L 47.401898 92.91533 
L 47.106696 92.93796 
L 46.811521 92.786305 
L 46.663919 92.827771 
L 46.368716 92.538655 
L 46.073513 92.731218 
L 45.778339 92.200138 
L 45.630737 92.36955 
L 45.483136 92.753733 
L 45.335534 92.734705 
L 45.187933 92.544876 
L 45.040331 92.571835 
L 44.89273 92.793715 
L 44.745129 92.526525 
L 44.597555 92.502629 
L 44.449954 92.802859 
L 44.302352 92.735493 
L 44.007149 92.059552 
L 43.711947 92.934153 
L 43.26917 92.531175 
L 43.121569 91.992791 
L 42.973967 91.884489 
L 42.826366 92.071707 
L 42.678764 92.520146 
L 42.531163 92.515638 
L 42.23596 92.092543 
L 41.940785 92.469228 
L 41.645582 92.120767 
L 40.907603 92.611926 
L 40.760002 93.002304 
L 40.6124 92.854121 
L 40.317197 92.970153 
L 40.021995 92.489971 
L 39.431617 92.690923 
L 39.284015 92.767254 
L 38.841211 92.353882 
L 38.69361 92.115956 
L 38.546008 92.213895 
L 38.398435 92.637636 
L 38.250833 92.688532 
L 38.103232 92.474404 
L 37.660428 93.022908 
L 37.217651 92.613164 
L 36.922448 93.071584 
L 36.774847 93.13801 
L 36.479644 92.920905 
L 36.184441 92.416838 
L 35.741665 92.637462 
L 35.594063 92.556281 
L 35.446462 92.635458 
L 35.151259 92.284697 
L 35.003658 92.410563 
L 34.856056 92.768144 
L 34.708483 92.808242 
L 34.265678 92.521898 
L 34.118077 92.431997 
L 33.822874 93.223868 
L 33.675273 93.059478 
L 33.084895 93.074761 
L 32.789692 92.329653 
L 32.642091 92.425688 
L 32.494489 92.691366 
L 32.199314 92.787513 
L 32.051713 92.830857 
L 31.75651 92.116399 
L 31.608909 92.171031 
L 31.313706 92.693556 
L 30.870929 92.56366 
L 30.723328 92.661839 
L 30.575727 92.906815 
L 30.428125 92.928213 
L 30.132922 92.649051 
L 29.985321 92.926802 
L 29.837747 92.961795 
L 29.542544 92.818103 
L 29.394943 92.823838 
L 29.247342 93.041357 
L 28.804537 93.053763 
L 28.361761 92.740712 
L 28.066558 92.801675 
L 27.623754 92.458022 
L 27.476152 92.546422 
L 27.180977 92.864881 
L 26.738173 92.195351 
L 26.590572 92.764071 
L 26.147795 92.815276 
L 26.000194 92.861162 
L 25.704991 92.226838 
L 25.55739 92.31547 
L 25.262187 92.809033 
L 25.114585 92.74633 
L 24.966984 92.826282 
L 24.81941 92.710175 
L 24.229005 93.155157 
L 23.933802 92.911726 
L 23.638627 92.992554 
L 23.343424 92.842209 
L 23.195823 92.667724 
L 22.162641 93.299945 
L 21.867438 92.227387 
L 21.719836 92.23808 
L 21.424633 92.751036 
L 20.981857 92.502907 
L 20.539053 92.914149 
L 20.24385 92.773936 
L 20.096248 92.809187 
L 19.653472 93.259309 
L 19.505871 93.203242 
L 19.210668 92.759982 
L 18.915465 93.033945 
L 18.325087 92.649187 
L 18.029884 93.156838 
L 17.734681 92.629877 
L 17.58708 92.628976 
L 17.291905 92.95297 
L 16.996702 92.43167 
L 16.849101 92.838097 
L 16.553898 92.568462 
L 16.406296 92.742189 
L 16.111122 92.727071 
L 15.815919 93.010783 
L 15.373114 92.458339 
L 15.225513 92.406431 
L 14.930338 93.01526 
L 14.635135 92.759413 
L 14.487534 93.079176 
L 14.192331 92.823206 
L 13.749555 92.468718 
L 13.30675 92.801156 
L 13.011547 92.264971 
L 12.716344 92.088151 
L 12.42117 92.665987 
L 12.273568 92.484369 
L 12.125967 92.107274 
L 11.683162 92.728171 
L 11.092785 92.599285 
L 10.945183 92.596024 
L 10.64998 92.876828 
L 9.616798 92.880912 
L 9.321595 92.18058 
L 9.026392 92.430808 
L 8.583616 92.681368 
L 8.436015 92.621289 
L 8.288413 92.915788 
L 8.140812 92.831572 
L 7.99321 92.549393 
L 7.845609 92.586655 
L 7.698036 92.956355 
L 7.402833 92.493315 
L 7.255231 92.40081 
L 7.10763 92.073457 
L 6.960028 92.087949 
L 6.664825 92.869198 
L 6.517224 92.803935 
L 6.369651 92.524779 
L 6.074448 92.752423 
L 5.779245 92.338743 
L 5.631643 92.516782 
L 5.484042 92.517025 
L 5.188867 91.981408 
L 4.893664 92.606883 
L 4.746063 92.701312 
L 4.598461 92.364599 
L 4.45086 92.406675 
L 4.155657 92.723448 
L 3.860482 92.997898 
L 3.565279 92.246111 
L 3.417678 92.297578 
L 3.122475 92.163232 
L 2.827272 92.749345 
L 2.679699 92.815807 
L 2.532097 92.488143 
L 2.384496 92.470233 
L 2.236894 92.961576 
L 1.79409 93.017092 
L 1.498915 92.946485 
L 1.056111 93.1043 
L 0.760908 92.242858 
L 0.613306 92.962921 
L 0.465705 92.977412 
L 0.022929 92.228891 
L -0.124673 92.262159 
L -0.567477 92.941412 
L -0.86268 92.445341 
L -1 92.45047 
L -1 92.45047 
" clip-path="url(#p08fc728c32)" style="fill: none; stroke: #000000; stroke-width: 1.2; stroke-linecap: square"/>
   </g>
   <g id="line2d_14">
    <path d="M 347.19625 94.061761 
L 296.695058 93.954624 
L 293.595498 93.756587 
L 292.119518 93.375305 
L 290.643539 91.694275 
L 289.61035 85.086767 
L 288.872364 85.07105 
L 288.724762 85.476895 
L 287.986776 89.935227 
L 287.543979 92.246463 
L 286.805985 93.053346 
L 286.363195 92.954462 
L 285.920398 93.496993 
L 283.706425 93.830711 
L 280.459271 93.94343 
L 271.455786 93.985215 
L 246.511717 93.879854 
L 235.884651 93.647873 
L 230.866314 93.331829 
L 228.357146 93.007017 
L 226.290782 92.565941 
L 224.667194 91.964618 
L 223.04362 90.887172 
L 221.715235 89.346071 
L 220.38685 86.473866 
L 218.910878 78.297052 
L 217.434891 50.514083 
L 216.549297 25.950838 
L 216.254108 25.806646 
L 215.073324 25.734489 
L 214.925723 26.192397 
L 214.778121 27.329114 
L 213.597338 60.453431 
L 213.006946 74.750334 
L 211.826163 83.704417 
L 211.678561 83.755656 
L 211.383372 82.103431 
L 211.235771 82.398349 
L 210.645379 87.625108 
L 210.054987 88.99112 
L 208.579001 90.833205 
L 206.955427 91.87654 
L 205.184252 92.519914 
L 203.413077 92.895657 
L 202.822685 92.925074 
L 201.641902 92.552955 
L 201.4943 92.101738 
L 201.05151 86.139993 
L 200.903908 86.107021 
L 200.313517 92.767004 
L 200.018314 93.112313 
L 198.099537 93.425811 
L 197.213956 93.456406 
L 196.475963 92.670067 
L 196.328362 90.864971 
L 196.033173 82.199737 
L 195.885571 83.497904 
L 195.590383 91.653672 
L 195.442781 91.659661 
L 195.147578 89.807423 
L 194.852389 86.293595 
L 194.704788 86.330761 
L 194.261998 92.800545 
L 193.671606 87.942257 
L 193.524004 88.463334 
L 193.081214 93.267627 
L 192.786011 93.473435 
L 191.457626 93.323599 
L 190.719633 91.842997 
L 190.424444 85.293394 
L 189.981654 74.782944 
L 189.243661 91.962552 
L 188.505667 93.402653 
L 186.586891 93.756994 
L 182.60175 93.869029 
L 173.007866 93.926156 
L 171.384293 93.457567 
L 169.908306 93.949785 
L 151.753735 93.993443 
L 94.338092 93.786452 
L 88.581776 93.521256 
L 85.629803 93.196069 
L 84.006215 92.865449 
L 82.382655 92.278765 
L 81.201872 91.558099 
L 80.16869 90.596214 
L 78.840305 87.976024 
L 77.51192 80.821579 
L 76.183535 55.498586 
L 75.297954 28.415357 
L 74.412346 28.328831 
L 74.264744 31.224082 
L 73.379164 58.558764 
L 72.19838 81.137784 
L 70.869995 87.967371 
L 69.689212 90.368689 
L 68.951233 89.50382 
L 68.508428 87.361739 
L 68.213225 90.918138 
L 68.065624 91.577136 
L 66.88484 92.436057 
L 65.851658 92.752286 
L 65.704057 92.665669 
L 65.113679 91.482126 
L 64.966078 86.74397 
L 64.670875 73.902205 
L 64.375672 91.462385 
L 63.047315 93.287878 
L 59.652538 93.575794 
L 57.143369 93.605498 
L 56.700593 93.588814 
L 56.257789 92.253799 
L 55.667411 90.319819 
L 55.51981 87.924692 
L 55.077005 52.732187 
L 54.634201 89.320118 
L 54.043823 93.501039 
L 52.420235 93.711585 
L 51.534655 93.67495 
L 50.944249 92.952609 
L 50.649074 92.566967 
L 50.20627 79.070944 
L 49.911067 71.526859 
L 49.320689 92.435996 
L 48.877885 93.584877 
L 46.959122 93.857026 
L 38.69361 94.061761 
L -1 94.061761 
L -1 94.061761 
" clip-path="url(#p08fc728c32)" style="fill: none; stroke-dasharray: 4.44,1.92; stroke-dashoffset: 0; stroke: #e8402a; stroke-width: 1.2"/>
   </g>
   <g id="patch_3">
    <path d="M 43.78125 97.478125 
L 43.78125 22.318125 
" style="fill: none; stroke: #000000; stroke-width: 0.8; stroke-linejoin: miter; stroke-linecap: square"/>
   </g>
   <g id="patch_4">
    <path d="M 326.27125 97.478125 
L 326.27125 22.318125 
" style="fill: none; stroke: #000000; stroke-width: 0.8; stroke-linejoin: miter; stroke-linecap: square"/>
   </g>
   <g id="patch_5">
    <path d="M 43.78125 97.478125 
L 326.27125 97.478125 
" style="fill: none; stroke: #000000; stroke-width: 0.8; stroke-linejoin: miter; stroke-linecap: square"/>
   </g>
   <g id="patch_6">
    <path d="M 43.78125 22.318125 
L 326.27125 22.318125 
" style="fill: none; stroke: #000000; stroke-width: 0.8; stroke-linejoin: miter; stroke-linecap: square"/>
   </g>
   <g id="text_15">
    <!-- 6172 -->
    <g transform="translate(169.75625 16.318125) scale(0.12 -0.12)">
     <defs>
      <path id="DejaVuSans-36" d="M 2113 2584 
Q 1688 2584 1439 2293 
Q 1191 2003 1191 1497 
Q 1191 994 1439 701 
Q 1688 409 2113 409 
Q 2538 409 2786 701 
Q 3034 994 3034 1497 
Q 3034 2003 2786 2293 
Q 2538 2584 2113 2584 
z
M 3366 4563 
L 3366 3988 
Q 3128 4100 2886 4159 
Q 2644 4219 2406 4219 
Q 1781 4219 1451 3797 
Q 1122 3375 1075 2522 
Q 1259 2794 1537 2939 
Q 1816 3084 2150 3084 
Q 2853 3084 3261 2657 
Q 3669 2231 3669 1497 
Q 3669 778 3244 343 
Q 2819 -91 2113 -91 
Q 1303 -91 875 529 
Q 447 1150 447 2328 
Q 447 3434 972 4092 
Q 1497 4750 2381 4750 
Q 2619 4750 2861 4703 
Q 3103 4656 3366 4563 
z
" transform="scale(0.015625)"/>
     </defs>
     <use xlink:href="#DejaVuSans-36"/>
     <use xlink:href="#DejaVuSans-31" transform="translate(63.623047 0)"/>
     <use xlink:href="#DejaVuSans-37" transform="translate(127.246094 0)"/>
     <use xlink:href="#DejaVuSans-32" transform="translate(190.869141 0)"/>
    </g>
   </g>
  </g>
 </g>
 <defs>
  <clipPath id="p08fc728c32">
   <rect x="43.78125" y="22.318125" width="282.49" height="75.16"/>
  </clipPath>
 </defs>
</svg>
