<?xml version="1.0" encoding="utf-8" standalone="no"?>
<!DOCTYPE svg PUBLIC "-//W3C//DTD SVG 1.1//EN"
  "http://www.w3.org/Graphics/SVG/1.1/DTD/svg11.dtd">
<svg xmlns:xlink="http://www.w3.org/1999/xlink" width="346.19625pt" height="135.034375pt" viewBox="0 0 346.19625 135.034375" xmlns="http://www.w3.org/2000/svg" version="1.1">
 <metadata>
  <rdf:RDF xmlns:dc="http://purl.org/dc/elements/1.1/" xmlns:cc="http://creativecommons.org/ns#" xmlns:rdf="http://www.w3.org/1999/02/22-rdf-syntax-ns#">
   <cc:Work>
    <dc:type rdf:resource="http://purl.org/dc/dcmitype/StillImage"/>
    <dc:date>2026-03-03T17:06:08.766928</dc:date>
    <dc:format>image/svg+xml</dc:format>
    <dc:creator>
     <cc:Agent>
      <dc:title>Matplotlib v3.10.1, https://matplotlib.org/</dc:title>
     </cc:Agent>
    </dc:creator>
   </cc:Work>
  </rdf:RDF>
 </metadata>
 <defs>
  <style type="text/css">*{stroke-linejoin: round; stroke-linecap: butt}</style>
 </defs>
 <g id="figure_1">
  <g id="patch_1">
   <path d="M 0 135.034375 
L 346.19625 135.034375 
L 346.19625 0 
L 0 0 
z
" style="fill: #ffffff"/>
  </g>
  <g id="axes_1">
   <g id="patch_2">
    <path d="M 43.78125 97.478125 
L 326.27125 97.478125 
L 326.27125 22.318125 
L 43.78125 22.318125 
z
" style="fill: #ffffff"/>
   </g>
   <g id="matplotlib.axis_1">
    <g id="xtick_1">
     <g id="line2d_1">
      <defs>
       <path id="m93964fdbaf" d="M 0 0 
L 0 3.5 
" style="stroke: #000000; stroke-width: 0.8"/>
      </defs>
      <g>
       <use xlink:href="#m93964fdbaf" x="43.78125" y="97.478125" style="stroke: #000000; stroke-width: 0.8"/>
      </g>
     </g>
     <g id="text_1">
      <!-- 900 -->
      <g transform="translate(34.2375 112.076563) scale(0.1 -0.1)">
       <defs>
        <path id="DejaVuSans-39" d="M 703 97 
L 703 672 
Q 941 559 1184 500 
Q 1428 441 1663 441 
Q 2288 441 2617 861 
Q 2947 1281 2994 2138 
Q 2813 1869 2534 1725 
Q 2256 1581 1919 1581 
Q 1219 1581 811 2004 
Q 403 2428 403 3163 
Q 403 3881 828 4315 
Q 1253 4750 1959 4750 
Q 2769 4750 3195 4129 
Q 3622 3509 3622 2328 
Q 3622 1225 3098 567 
Q 2575 -91 1691 -91 
Q 1453 -91 1209 -44 
Q 966 3 703 97 
z
M 1959 2075 
Q 2384 2075 2632 2365 
Q 2881 2656 2881 3163 
Q 2881 3666 2632 3958 
Q 2384 4250 1959 4250 
Q 1534 4250 1286 3958 
Q 1038 3666 1038 3163 
Q 1038 2656 1286 2365 
Q 1534 2075 1959 2075 
z
" transform="scale(0.015625)"/>
        <path id="DejaVuSans-30" d="M 2034 4250 
Q 1547 4250 1301 3770 
Q 1056 3291 1056 2328 
Q 1056 1369 1301 889 
Q 1547 409 2034 409 
Q 2525 409 2770 889 
Q 3016 1369 3016 2328 
Q 3016 3291 2770 3770 
Q 2525 4250 2034 4250 
z
M 2034 4750 
Q 2819 4750 3233 4129 
Q 3647 3509 3647 2328 
Q 3647 1150 3233 529 
Q 2819 -91 2034 -91 
Q 1250 -91 836 529 
Q 422 1150 422 2328 
Q 422 3509 836 4129 
Q 1250 4750 2034 4750 
z
" transform="scale(0.015625)"/>
       </defs>
       <use xlink:href="#DejaVuSans-39"/>
       <use xlink:href="#DejaVuSans-30" transform="translate(63.623047 0)"/>
       <use xlink:href="#DejaVuSans-30" transform="translate(127.246094 0)"/>
      </g>
     </g>
    </g>
    <g id="xtick_2">
     <g id="line2d_2">
      <g>
       <use xlink:href="#m93964fdbaf" x="79.0925" y="97.478125" style="stroke: #000000; stroke-width: 0.8"/>
      </g>
     </g>
     <g id="text_2">
      <!-- 925 -->
      <g transform="translate(69.54875 112.076563) scale(0.1 -0.1)">
       <defs>
        <path id="DejaVuSans-32" d="M 1228 531 
L 3431 531 
L 3431 0 
L 469 0 
L 469 531 
Q 828 903 1448 1529 
Q 2069 2156 2228 2338 
Q 2531 2678 2651 2914 
Q 2772 3150 2772 3378 
Q 2772 3750 2511 3984 
Q 2250 4219 1831 4219 
Q 1534 4219 1204 4116 
Q 875 4013 500 3803 
L 500 4441 
Q 881 4594 1212 4672 
Q 1544 4750 1819 4750 
Q 2544 4750 2975 4387 
Q 3406 4025 3406 3419 
Q 3406 3131 3298 2873 
Q 3191 2616 2906 2266 
Q 2828 2175 2409 1742 
Q 1991 1309 1228 531 
z
" transform="scale(0.015625)"/>
        <path id="DejaVuSans-35" d="M 691 4666 
L 3169 4666 
L 3169 4134 
L 1269 4134 
L 1269 2991 
Q 1406 3038 1543 3061 
Q 1681 3084 1819 3084 
Q 2600 3084 3056 2656 
Q 3513 2228 3513 1497 
Q 3513 744 3044 326 
Q 2575 -91 1722 -91 
Q 1428 -91 1123 -41 
Q 819 9 494 109 
L 494 744 
Q 775 591 1075 516 
Q 1375 441 1709 441 
Q 2250 441 2565 725 
Q 2881 1009 2881 1497 
Q 2881 1984 2565 2268 
Q 2250 2553 1709 2553 
Q 1456 2553 1204 2497 
Q 953 2441 691 2322 
L 691 4666 
z
" transform="scale(0.015625)"/>
       </defs>
       <use xlink:href="#DejaVuSans-39"/>
       <use xlink:href="#DejaVuSans-32" transform="translate(63.623047 0)"/>
       <use xlink:href="#DejaVuSans-35" transform="translate(127.246094 0)"/>
      </g>
     </g>
    </g>
    <g id="xtick_3">
     <g id="line2d_3">
      <g>
       <use xlink:href="#m93964fdbaf" x="114.40375" y="97.478125" style="stroke: #000000; stroke-width: 0.8"/>
      </g>
     </g>
     <g id="text_3">
      <!-- 950 -->
      <g transform="translate(104.86 112.076563) scale(0.1 -0.1)">
       <use xlink:href="#DejaVuSans-39"/>
       <use xlink:href="#DejaVuSans-35" transform="translate(63.623047 0)"/>
       <use xlink:href="#DejaVuSans-30" transform="translate(127.246094 0)"/>
      </g>
     </g>
    </g>
    <g id="xtick_4">
     <g id="line2d_4">
      <g>
       <use xlink:href="#m93964fdbaf" x="149.715" y="97.478125" style="stroke: #000000; stroke-width: 0.8"/>
      </g>
     </g>
     <g id="text_4">
      <!-- 975 -->
      <g transform="translate(140.17125 112.076563) scale(0.1 -0.1)">
       <defs>
        <path id="DejaVuSans-37" d="M 525 4666 
L 3525 4666 
L 3525 4397 
L 1831 0 
L 1172 0 
L 2766 4134 
L 525 4134 
L 525 4666 
z
" transform="scale(0.015625)"/>
       </defs>
       <use xlink:href="#DejaVuSans-39"/>
       <use xlink:href="#DejaVuSans-37" transform="translate(63.623047 0)"/>
       <use xlink:href="#DejaVuSans-35" transform="translate(127.246094 0)"/>
      </g>
     </g>
    </g>
    <g id="xtick_5">
     <g id="line2d_5">
      <g>
       <use xlink:href="#m93964fdbaf" x="185.02625" y="97.478125" style="stroke: #000000; stroke-width: 0.8"/>
      </g>
     </g>
     <g id="text_5">
      <!-- 1000 -->
      <g transform="translate(172.30125 112.076563) scale(0.1 -0.1)">
       <defs>
        <path id="DejaVuSans-31" d="M 794 531 
L 1825 531 
L 1825 4091 
L 703 3866 
L 703 4441 
L 1819 4666 
L 2450 4666 
L 2450 531 
L 3481 531 
L 3481 0 
L 794 0 
L 794 531 
z
" transform="scale(0.015625)"/>
       </defs>
       <use xlink:href="#DejaVuSans-31"/>
       <use xlink:href="#DejaVuSans-30" transform="translate(63.623047 0)"/>
       <use xlink:href="#DejaVuSans-30" transform="translate(127.246094 0)"/>
       <use xlink:href="#DejaVuSans-30" transform="translate(190.869141 0)"/>
      </g>
     </g>
    </g>
    <g id="xtick_6">
     <g id="line2d_6">
      <g>
       <use xlink:href="#m93964fdbaf" x="220.3375" y="97.478125" style="stroke: #000000; stroke-width: 0.8"/>
      </g>
     </g>
     <g id="text_6">
      <!-- 1025 -->
      <g transform="translate(207.6125 112.076563) scale(0.1 -0.1)">
       <use xlink:href="#DejaVuSans-31"/>
       <use xlink:href="#DejaVuSans-30" transform="translate(63.623047 0)"/>
       <use xlink:href="#DejaVuSans-32" transform="translate(127.246094 0)"/>
       <use xlink:href="#DejaVuSans-35" transform="translate(190.869141 0)"/>
      </g>
     </g>
    </g>
    <g id="xtick_7">
     <g id="line2d_7">
      <g>
       <use xlink:href="#m93964fdbaf" x="255.64875" y="97.478125" style="stroke: #000000; stroke-width: 0.8"/>
      </g>
     </g>
     <g id="text_7">
      <!-- 1050 -->
      <g transform="translate(242.92375 112.076563) scale(0.1 -0.1)">
       <use xlink:href="#DejaVuSans-31"/>
       <use xlink:href="#DejaVuSans-30" transform="translate(63.623047 0)"/>
       <use xlink:href="#DejaVuSans-35" transform="translate(127.246094 0)"/>
       <use xlink:href="#DejaVuSans-30" transform="translate(190.869141 0)"/>
      </g>
     </g>
    </g>
    <g id="xtick_8">
     <g id="line2d_8">
      <g>
       <use xlink:href="#m93964fdbaf" x="290.96" y="97.478125" style="stroke: #000000; stroke-width: 0.8"/>
      </g>
     </g>
     <g id="text_8">
      <!-- 1075 -->
      <g transform="translate(278.235 112.076563) scale(0.1 -0.1)">
       <use xlink:href="#DejaVuSans-31"/>
       <use xlink:href="#DejaVuSans-30" transform="translate(63.623047 0)"/>
       <use xlink:href="#DejaVuSans-37" transform="translate(127.246094 0)"/>
       <use xlink:href="#DejaVuSans-35" transform="translate(190.869141 0)"/>
      </g>
     </g>
    </g>
    <g id="xtick_9">
     <g id="line2d_9">
      <g>
       <use xlink:href="#m93964fdbaf" x="326.27125" y="97.478125" style="stroke: #000000; stroke-width: 0.8"/>
      </g>
     </g>
     <g id="text_9">
      <!-- 1100 -->
      <g transform="translate(313.54625 112.076563) scale(0.1 -0.1)">
       <use xlink:href="#DejaVuSans-31"/>
       <use xlink:href="#DejaVuSans-31" transform="translate(63.623047 0)"/>
       <use xlink:href="#DejaVuSans-30" transform="translate(127.246094 0)"/>
       <use xlink:href="#DejaVuSans-30" transform="translate(190.869141 0)"/>
      </g>
     </g>
    </g>
    <g id="text_10">
     <!-- Energy (eV) -->
     <g transform="translate(155.5325 125.754688) scale(0.1 -0.1)">
      <defs>
       <path id="DejaVuSans-45" d="M 628 4666 
L 3578 4666 
L 3578 4134 
L 1259 4134 
L 1259 2753 
L 3481 2753 
L 3481 2222 
L 1259 2222 
L 1259 531 
L 3634 531 
L 3634 0 
L 628 0 
L 628 4666 
z
" transform="scale(0.015625)"/>
       <path id="DejaVuSans-6e" d="M 3513 2113 
L 3513 0 
L 2938 0 
L 2938 2094 
Q 2938 2591 2744 2837 
Q 2550 3084 2163 3084 
Q 1697 3084 1428 2787 
Q 1159 2491 1159 1978 
L 1159 0 
L 581 0 
L 581 3500 
L 1159 3500 
L 1159 2956 
Q 1366 3272 1645 3428 
Q 1925 3584 2291 3584 
Q 2894 3584 3203 3211 
Q 3513 2838 3513 2113 
z
" transform="scale(0.015625)"/>
       <path id="DejaVuSans-65" d="M 3597 1894 
L 3597 1613 
L 953 1613 
Q 991 1019 1311 708 
Q 1631 397 2203 397 
Q 2534 397 2845 478 
Q 3156 559 3463 722 
L 3463 178 
Q 3153 47 2828 -22 
Q 2503 -91 2169 -91 
Q 1331 -91 842 396 
Q 353 884 353 1716 
Q 353 2575 817 3079 
Q 1281 3584 2069 3584 
Q 2775 3584 3186 3129 
Q 3597 2675 3597 1894 
z
M 3022 2063 
Q 3016 2534 2758 2815 
Q 2500 3097 2075 3097 
Q 1594 3097 1305 2825 
Q 1016 2553 972 2059 
L 3022 2063 
z
" transform="scale(0.015625)"/>
       <path id="DejaVuSans-72" d="M 2631 2963 
Q 2534 3019 2420 3045 
Q 2306 3072 2169 3072 
Q 1681 3072 1420 2755 
Q 1159 2438 1159 1844 
L 1159 0 
L 581 0 
L 581 3500 
L 1159 3500 
L 1159 2956 
Q 1341 3275 1631 3429 
Q 1922 3584 2338 3584 
Q 2397 3584 2469 3576 
Q 2541 3569 2628 3553 
L 2631 2963 
z
" transform="scale(0.015625)"/>
       <path id="DejaVuSans-67" d="M 2906 1791 
Q 2906 2416 2648 2759 
Q 2391 3103 1925 3103 
Q 1463 3103 1205 2759 
Q 947 2416 947 1791 
Q 947 1169 1205 825 
Q 1463 481 1925 481 
Q 2391 481 2648 825 
Q 2906 1169 2906 1791 
z
M 3481 434 
Q 3481 -459 3084 -895 
Q 2688 -1331 1869 -1331 
Q 1566 -1331 1297 -1286 
Q 1028 -1241 775 -1147 
L 775 -588 
Q 1028 -725 1275 -790 
Q 1522 -856 1778 -856 
Q 2344 -856 2625 -561 
Q 2906 -266 2906 331 
L 2906 616 
Q 2728 306 2450 153 
Q 2172 0 1784 0 
Q 1141 0 747 490 
Q 353 981 353 1791 
Q 353 2603 747 3093 
Q 1141 3584 1784 3584 
Q 2172 3584 2450 3431 
Q 2728 3278 2906 2969 
L 2906 3500 
L 3481 3500 
L 3481 434 
z
" transform="scale(0.015625)"/>
       <path id="DejaVuSans-79" d="M 2059 -325 
Q 1816 -950 1584 -1140 
Q 1353 -1331 966 -1331 
L 506 -1331 
L 506 -850 
L 844 -850 
Q 1081 -850 1212 -737 
Q 1344 -625 1503 -206 
L 1606 56 
L 191 3500 
L 800 3500 
L 1894 763 
L 2988 3500 
L 3597 3500 
L 2059 -325 
z
" transform="scale(0.015625)"/>
       <path id="DejaVuSans-20" transform="scale(0.015625)"/>
       <path id="DejaVuSans-28" d="M 1984 4856 
Q 1566 4138 1362 3434 
Q 1159 2731 1159 2009 
Q 1159 1288 1364 580 
Q 1569 -128 1984 -844 
L 1484 -844 
Q 1016 -109 783 600 
Q 550 1309 550 2009 
Q 550 2706 781 3412 
Q 1013 4119 1484 4856 
L 1984 4856 
z
" transform="scale(0.015625)"/>
       <path id="DejaVuSans-56" d="M 1831 0 
L 50 4666 
L 709 4666 
L 2188 738 
L 3669 4666 
L 4325 4666 
L 2547 0 
L 1831 0 
z
" transform="scale(0.015625)"/>
       <path id="DejaVuSans-29" d="M 513 4856 
L 1013 4856 
Q 1481 4119 1714 3412 
Q 1947 2706 1947 2009 
Q 1947 1309 1714 600 
Q 1481 -109 1013 -844 
L 513 -844 
Q 928 -128 1133 580 
Q 1338 1288 1338 2009 
Q 1338 2731 1133 3434 
Q 928 4138 513 4856 
z
" transform="scale(0.015625)"/>
      </defs>
      <use xlink:href="#DejaVuSans-45"/>
      <use xlink:href="#DejaVuSans-6e" transform="translate(63.183594 0)"/>
      <use xlink:href="#DejaVuSans-65" transform="translate(126.5625 0)"/>
      <use xlink:href="#DejaVuSans-72" transform="translate(188.085938 0)"/>
      <use xlink:href="#DejaVuSans-67" transform="translate(227.449219 0)"/>
      <use xlink:href="#DejaVuSans-79" transform="translate(290.925781 0)"/>
      <use xlink:href="#DejaVuSans-20" transform="translate(350.105469 0)"/>
      <use xlink:href="#DejaVuSans-28" transform="translate(381.892578 0)"/>
      <use xlink:href="#DejaVuSans-65" transform="translate(420.90625 0)"/>
      <use xlink:href="#DejaVuSans-56" transform="translate(482.429688 0)"/>
      <use xlink:href="#DejaVuSans-29" transform="translate(550.837891 0)"/>
     </g>
    </g>
   </g>
   <g id="matplotlib.axis_2">
    <g id="ytick_1">
     <g id="line2d_10">
      <defs>
       <path id="m32d5a39f1a" d="M 0 0 
L -3.5 0 
" style="stroke: #000000; stroke-width: 0.8"/>
      </defs>
      <g>
       <use xlink:href="#m32d5a39f1a" x="43.78125" y="94.061761" style="stroke: #000000; stroke-width: 0.8"/>
      </g>
     </g>
     <g id="text_11">
      <!-- 0.0 -->
      <g transform="translate(20.878125 97.86098) scale(0.1 -0.1)">
       <defs>
        <path id="DejaVuSans-2e" d="M 684 794 
L 1344 794 
L 1344 0 
L 684 0 
L 684 794 
z
" transform="scale(0.015625)"/>
       </defs>
       <use xlink:href="#DejaVuSans-30"/>
       <use xlink:href="#DejaVuSans-2e" transform="translate(63.623047 0)"/>
       <use xlink:href="#DejaVuSans-30" transform="translate(95.410156 0)"/>
      </g>
     </g>
    </g>
    <g id="ytick_2">
     <g id="line2d_11">
      <g>
       <use xlink:href="#m32d5a39f1a" x="43.78125" y="59.898125" style="stroke: #000000; stroke-width: 0.8"/>
      </g>
     </g>
     <g id="text_12">
      <!-- 0.5 -->
      <g transform="translate(20.878125 63.697344) scale(0.1 -0.1)">
       <use xlink:href="#DejaVuSans-30"/>
       <use xlink:href="#DejaVuSans-2e" transform="translate(63.623047 0)"/>
       <use xlink:href="#DejaVuSans-35" transform="translate(95.410156 0)"/>
      </g>
     </g>
    </g>
    <g id="ytick_3">
     <g id="line2d_12">
      <g>
       <use xlink:href="#m32d5a39f1a" x="43.78125" y="25.734489" style="stroke: #000000; stroke-width: 0.8"/>
      </g>
     </g>
     <g id="text_13">
      <!-- 1.0 -->
      <g transform="translate(20.878125 29.533707) scale(0.1 -0.1)">
       <use xlink:href="#DejaVuSans-31"/>
       <use xlink:href="#DejaVuSans-2e" transform="translate(63.623047 0)"/>
       <use xlink:href="#DejaVuSans-30" transform="translate(95.410156 0)"/>
      </g>
     </g>
    </g>
    <g id="text_14">
     <!-- Intensity (a.u.) -->
     <g transform="translate(14.798438 96.562187) rotate(-90) scale(0.1 -0.1)">
      <defs>
       <path id="DejaVuSans-49" d="M 628 4666 
L 1259 4666 
L 1259 0 
L 628 0 
L 628 4666 
z
" transform="scale(0.015625)"/>
       <path id="DejaVuSans-74" d="M 1172 4494 
L 1172 3500 
L 2356 3500 
L 2356 3053 
L 1172 3053 
L 1172 1153 
Q 1172 725 1289 603 
Q 1406 481 1766 481 
L 2356 481 
L 2356 0 
L 1766 0 
Q 1100 0 847 248 
Q 594 497 594 1153 
L 594 3053 
L 172 3053 
L 172 3500 
L 594 3500 
L 594 4494 
L 1172 4494 
z
" transform="scale(0.015625)"/>
       <path id="DejaVuSans-73" d="M 2834 3397 
L 2834 2853 
Q 2591 2978 2328 3040 
Q 2066 3103 1784 3103 
Q 1356 3103 1142 2972 
Q 928 2841 928 2578 
Q 928 2378 1081 2264 
Q 1234 2150 1697 2047 
L 1894 2003 
Q 2506 1872 2764 1633 
Q 3022 1394 3022 966 
Q 3022 478 2636 193 
Q 2250 -91 1575 -91 
Q 1294 -91 989 -36 
Q 684 19 347 128 
L 347 722 
Q 666 556 975 473 
Q 1284 391 1588 391 
Q 1994 391 2212 530 
Q 2431 669 2431 922 
Q 2431 1156 2273 1281 
Q 2116 1406 1581 1522 
L 1381 1569 
Q 847 1681 609 1914 
Q 372 2147 372 2553 
Q 372 3047 722 3315 
Q 1072 3584 1716 3584 
Q 2034 3584 2315 3537 
Q 2597 3491 2834 3397 
z
" transform="scale(0.015625)"/>
       <path id="DejaVuSans-69" d="M 603 3500 
L 1178 3500 
L 1178 0 
L 603 0 
L 603 3500 
z
M 603 4863 
L 1178 4863 
L 1178 4134 
L 603 4134 
L 603 4863 
z
" transform="scale(0.015625)"/>
       <path id="DejaVuSans-61" d="M 2194 1759 
Q 1497 1759 1228 1600 
Q 959 1441 959 1056 
Q 959 750 1161 570 
Q 1363 391 1709 391 
Q 2188 391 2477 730 
Q 2766 1069 2766 1631 
L 2766 1759 
L 2194 1759 
z
M 3341 1997 
L 3341 0 
L 2766 0 
L 2766 531 
Q 2569 213 2275 61 
Q 1981 -91 1556 -91 
Q 1019 -91 701 211 
Q 384 513 384 1019 
Q 384 1609 779 1909 
Q 1175 2209 1959 2209 
L 2766 2209 
L 2766 2266 
Q 2766 2663 2505 2880 
Q 2244 3097 1772 3097 
Q 1472 3097 1187 3025 
Q 903 2953 641 2809 
L 641 3341 
Q 956 3463 1253 3523 
Q 1550 3584 1831 3584 
Q 2591 3584 2966 3190 
Q 3341 2797 3341 1997 
z
" transform="scale(0.015625)"/>
       <path id="DejaVuSans-75" d="M 544 1381 
L 544 3500 
L 1119 3500 
L 1119 1403 
Q 1119 906 1312 657 
Q 1506 409 1894 409 
Q 2359 409 2629 706 
Q 2900 1003 2900 1516 
L 2900 3500 
L 3475 3500 
L 3475 0 
L 2900 0 
L 2900 538 
Q 2691 219 2414 64 
Q 2138 -91 1772 -91 
Q 1169 -91 856 284 
Q 544 659 544 1381 
z
M 1991 3584 
L 1991 3584 
z
" transform="scale(0.015625)"/>
      </defs>
      <use xlink:href="#DejaVuSans-49"/>
      <use xlink:href="#DejaVuSans-6e" transform="translate(29.492188 0)"/>
      <use xlink:href="#DejaVuSans-74" transform="translate(92.871094 0)"/>
      <use xlink:href="#DejaVuSans-65" transform="translate(132.080078 0)"/>
      <use xlink:href="#DejaVuSans-6e" transform="translate(193.603516 0)"/>
      <use xlink:href="#DejaVuSans-73" transform="translate(256.982422 0)"/>
      <use xlink:href="#DejaVuSans-69" transform="translate(309.082031 0)"/>
      <use xlink:href="#DejaVuSans-74" transform="translate(336.865234 0)"/>
      <use xlink:href="#DejaVuSans-79" transform="translate(376.074219 0)"/>
      <use xlink:href="#DejaVuSans-20" transform="translate(435.253906 0)"/>
      <use xlink:href="#DejaVuSans-28" transform="translate(467.041016 0)"/>
      <use xlink:href="#DejaVuSans-61" transform="translate(506.054688 0)"/>
      <use xlink:href="#DejaVuSans-2e" transform="translate(567.333984 0)"/>
      <use xlink:href="#DejaVuSans-75" transform="translate(599.121094 0)"/>
      <use xlink:href="#DejaVuSans-2e" transform="translate(662.5 0)"/>
      <use xlink:href="#DejaVuSans-29" transform="translate(694.287109 0)"/>
     </g>
    </g>
   </g>
   <g id="line2d_13">
    <path d="M 347.19625 93.840744 
L 346.307801 93.763476 
L 346.021012 93.826674 
L 345.87761 93.695879 
L 345.44742 93.759862 
L 345.017229 93.739577 
L 344.443637 93.864852 
L 341.575664 93.788854 
L 341.288875 93.871839 
L 340.141691 93.808054 
L 339.7115 93.861282 
L 339.281296 93.875452 
L 338.420915 93.864773 
L 336.556738 93.803194 
L 336.126547 93.875534 
L 335.409554 93.760209 
L 334.97935 93.702535 
L 334.692561 93.646281 
L 334.405758 93.790366 
L 333.115186 93.746055 
L 332.11139 93.780648 
L 331.681199 93.714456 
L 331.251009 93.782015 
L 328.956641 93.739611 
L 328.669838 93.69596 
L 328.383036 93.748998 
L 328.239648 93.794349 
L 327.952845 93.700041 
L 326.088668 93.742908 
L 325.371688 93.776762 
L 325.084885 93.842481 
L 324.798082 93.761375 
L 324.51128 93.777453 
L 322.933919 93.840752 
L 322.647116 93.760953 
L 322.360313 93.800813 
L 321.356531 93.763533 
L 321.069728 93.766508 
L 320.782952 93.698733 
L 320.639551 93.746827 
L 320.352748 93.651973 
L 319.922544 93.63435 
L 319.205564 93.754168 
L 318.918762 93.546323 
L 318.631959 93.71865 
L 316.767795 93.73429 
L 314.76023 93.772475 
L 314.186625 93.729111 
L 313.039441 93.732284 
L 312.465862 93.759741 
L 311.892257 93.788691 
L 310.171467 93.710498 
L 309.311086 93.817261 
L 309.024283 93.744874 
L 308.737508 93.801525 
L 308.594107 93.707612 
L 307.733725 93.836875 
L 306.156337 93.71408 
L 305.726133 93.727641 
L 304.865752 93.636841 
L 303.431765 93.719797 
L 303.144963 93.654874 
L 302.858187 93.620846 
L 302.14118 93.574924 
L 301.854377 93.484001 
L 301.567602 93.511932 
L 301.280799 93.216187 
L 300.850595 93.247868 
L 300.563819 93.422875 
L 300.133615 93.201851 
L 299.990214 93.266187 
L 299.703411 92.817395 
L 299.560009 92.808808 
L 298.986431 92.220459 
L 298.699628 91.804519 
L 298.412826 91.784559 
L 297.552445 90.736743 
L 297.12224 90.382149 
L 296.978866 90.489035 
L 296.261859 89.72155 
L 295.975056 90.346348 
L 295.831655 90.439026 
L 295.54488 90.820704 
L 295.258077 90.90887 
L 294.397696 92.200161 
L 293.10711 92.855072 
L 292.963709 93.085287 
L 292.820308 93.039946 
L 292.103328 93.407436 
L 288.661749 93.686821 
L 288.374973 93.67921 
L 288.088171 93.693989 
L 287.084388 93.611774 
L 286.797585 93.582257 
L 286.510783 93.625775 
L 286.367381 93.675697 
L 285.937204 93.531394 
L 285.507 93.608939 
L 285.076796 93.594538 
L 284.79002 93.606683 
L 284.359816 93.617814 
L 284.073013 93.668925 
L 283.786238 93.581642 
L 283.212632 93.777635 
L 282.782428 93.642229 
L 282.495653 93.654807 
L 282.20885 93.710113 
L 281.922047 93.629732 
L 281.635244 93.730924 
L 281.061666 93.653979 
L 280.631462 93.610825 
L 279.914482 93.728429 
L 279.484278 93.701078 
L 276.903107 93.656722 
L 276.759706 93.992179 
L 273.318154 93.986684 
L 258.691566 93.894297 
L 257.974559 93.719962 
L 257.25758 93.210821 
L 256.827376 92.75418 
L 255.966994 92.229507 
L 255.393389 92.607088 
L 254.676409 93.671383 
L 253.242422 93.506636 
L 252.95562 93.61642 
L 252.668844 93.629815 
L 252.23864 93.761365 
L 250.231075 93.792337 
L 249.083891 93.303206 
L 248.080081 92.512036 
L 247.506503 92.756795 
L 246.50272 93.633164 
L 245.785713 93.867474 
L 244.781931 93.855669 
L 243.778149 93.778706 
L 242.917767 93.607516 
L 241.627182 93.484562 
L 241.340379 93.534446 
L 240.910175 93.505983 
L 240.479998 93.33781 
L 239.046012 93.068115 
L 238.759209 93.161688 
L 238.042229 93.097224 
L 237.755426 93.187839 
L 236.895045 93.691404 
L 236.178038 93.842021 
L 234.600677 93.922314 
L 233.310092 93.936911 
L 231.732704 93.88108 
L 229.581738 93.796124 
L 228.721357 93.84117 
L 227.717547 93.79576 
L 227.430771 93.815267 
L 227.28737 92.251299 
L 227.000567 92.584068 
L 226.857166 92.308387 
L 226.283587 92.793402 
L 225.56658 92.430183 
L 225.136403 92.592174 
L 223.98922 92.377383 
L 223.559015 92.10904 
L 222.842036 91.835296 
L 222.411831 91.943963 
L 222.26843 92.121508 
L 221.981627 92.040309 
L 221.694852 91.911363 
L 221.55145 91.897609 
L 220.691042 90.936516 
L 220.547641 90.993686 
L 220.260865 90.257229 
L 219.257083 86.135572 
L 218.97028 82.970039 
L 218.253273 71.290135 
L 217.966497 66.259895 
L 217.823096 65.42479 
L 217.392892 59.211738 
L 217.106089 54.804184 
L 216.819313 53.024952 
L 216.102306 46.255871 
L 215.815504 43.388529 
L 215.241925 50.264392 
L 214.955123 53.629408 
L 214.811721 54.561184 
L 214.524946 59.224209 
L 213.95134 75.173168 
L 213.23436 84.617965 
L 212.804156 88.057033 
L 212.517353 88.398787 
L 212.373952 88.521755 
L 212.087177 89.452093 
L 211.800374 90.674158 
L 211.656972 90.285324 
L 210.939993 90.674909 
L 210.796591 90.914411 
L 210.509788 90.863377 
L 210.366387 91.060238 
L 210.222986 91.033457 
L 210.079584 91.332161 
L 209.936183 91.290322 
L 209.506006 91.66529 
L 209.219203 91.749218 
L 208.9324 91.729949 
L 208.502223 92.182269 
L 208.358822 92.272759 
L 208.215421 92.202398 
L 207.928618 92.561187 
L 207.785216 92.385805 
L 207.641815 92.456795 
L 207.498414 92.707743 
L 207.35504 92.700255 
L 207.211638 92.809215 
L 206.924835 92.456522 
L 206.781434 92.429539 
L 206.207828 92.920504 
L 205.777651 93.054241 
L 205.490849 92.844208 
L 205.347447 92.754292 
L 205.060644 92.969498 
L 204.91727 93.214063 
L 204.630468 93.153428 
L 204.487066 93.139244 
L 204.343665 92.9696 
L 203.913461 93.182734 
L 203.626685 93.037761 
L 203.483284 93.242721 
L 203.339882 93.215262 
L 203.196481 93.342915 
L 202.3361 93.068231 
L 202.049297 93.207524 
L 201.762494 93.230431 
L 201.045514 92.898244 
L 200.758712 92.910879 
L 200.61531 92.953586 
L 200.471909 93.114256 
L 200.328507 92.892485 
L 200.185133 92.984834 
L 200.041732 93.22175 
L 199.611528 93.139531 
L 199.468126 93.084725 
L 199.181324 93.265544 
L 199.037922 93.104871 
L 198.320942 93.190702 
L 198.03414 93.370491 
L 197.603963 93.270772 
L 197.460561 93.330119 
L 197.31716 93.194611 
L 197.173759 93.229523 
L 196.886956 93.090307 
L 196.743554 93.121826 
L 196.60018 93.339298 
L 196.169976 92.913723 
L 195.883173 92.974741 
L 195.452969 93.005634 
L 195.309595 92.752126 
L 195.022792 92.8796 
L 194.879391 92.645007 
L 194.735989 92.757064 
L 194.305785 92.71422 
L 193.875608 92.751692 
L 193.732207 92.744246 
L 193.445404 92.877299 
L 193.302003 92.777695 
L 192.441622 93.245613 
L 192.011417 93.214886 
L 191.868016 92.96972 
L 191.724642 93.171438 
L 191.437839 93.044423 
L 191.151036 92.856756 
L 191.007635 92.787926 
L 190.864234 92.931031 
L 189.71705 92.553184 
L 189.430274 92.422795 
L 189.143471 92.641138 
L 189.00007 92.776568 
L 188.713267 92.476002 
L 188.426464 92.979743 
L 188.283063 92.645913 
L 188.139689 92.604692 
L 187.852886 92.86757 
L 187.566083 93.013437 
L 185.988695 93.435729 
L 185.845321 93.552231 
L 185.70192 93.46674 
L 185.558518 93.633362 
L 185.271715 93.370538 
L 184.984913 93.44589 
L 184.69811 93.172018 
L 183.98113 93.315224 
L 183.694327 93.439447 
L 183.407552 93.349045 
L 183.120749 93.683331 
L 182.977348 93.698016 
L 182.547143 93.349579 
L 182.260368 93.312005 
L 182.116967 93.571742 
L 181.973565 93.340868 
L 179.965973 93.377784 
L 179.679197 93.500859 
L 179.248993 93.354884 
L 178.675415 93.252279 
L 178.245211 93.505977 
L 177.528204 93.357123 
L 177.38483 93.489822 
L 177.241428 93.320423 
L 177.098027 93.450567 
L 176.811224 93.215463 
L 176.667823 93.200774 
L 176.524421 93.322038 
L 176.094244 93.301015 
L 175.807442 93.436751 
L 175.66404 93.310919 
L 175.377237 93.361473 
L 175.233836 93.276479 
L 175.090462 93.507826 
L 174.373455 93.276756 
L 174.230054 93.419172 
L 174.086652 93.314987 
L 173.656475 93.407197 
L 173.513074 93.333603 
L 173.369672 93.504831 
L 173.08287 93.223044 
L 172.939468 93.512652 
L 172.796067 93.476069 
L 172.652693 93.309618 
L 172.509291 93.31822 
L 172.079087 93.606457 
L 171.935686 93.607194 
L 171.792284 93.38104 
L 171.505509 93.540133 
L 171.075305 93.276328 
L 170.788502 93.379324 
L 170.214924 93.282479 
L 169.928121 93.347367 
L 169.784719 93.08443 
L 169.641318 93.351031 
L 169.354515 93.316973 
L 169.06774 93.060324 
L 168.924338 93.233406 
L 168.780937 93.227364 
L 168.637535 93.346238 
L 168.350733 93.389 
L 167.777154 93.458461 
L 167.490352 93.311642 
L 166.773345 93.338605 
L 166.343168 93.137622 
L 166.056365 93.35425 
L 165.769562 93.066257 
L 165.626161 93.278055 
L 165.195984 93.182952 
L 164.76578 93.246616 
L 164.335603 93.199984 
L 164.192201 93.11179 
L 163.905398 93.292183 
L 163.331793 93.08234 
L 163.045017 93.319941 
L 162.758215 93.409451 
L 162.614813 93.23232 
L 162.32801 93.393134 
L 162.041208 93.158196 
L 161.897834 93.279905 
L 161.467629 93.248962 
L 161.324228 93.364082 
L 160.894024 93.145566 
L 160.75065 93.316742 
L 160.177044 93.074062 
L 160.033643 93.317632 
L 159.74684 93.27439 
L 159.603438 93.370808 
L 159.316663 93.201624 
L 159.173262 93.110038 
L 159.02986 93.419885 
L 158.886459 93.417361 
L 158.743057 93.159691 
L 158.599656 93.387519 
L 157.882676 93.273519 
L 157.739275 93.484695 
L 156.018485 93.048182 
L 155.588308 93.135903 
L 155.444907 92.891153 
L 155.014703 93.157552 
L 154.871301 92.970781 
L 154.727927 93.007042 
L 154.584526 93.304236 
L 154.441125 93.108659 
L 154.297723 93.236964 
L 154.154322 93.208643 
L 154.01092 93.379953 
L 153.150539 93.271672 
L 153.007138 93.364709 
L 152.720335 93.1853 
L 152.433532 93.354772 
L 152.146757 93.050132 
L 151.859954 93.34538 
L 151.573151 93.341601 
L 150.856171 93.229672 
L 150.71277 93.129384 
L 150.569369 93.25866 
L 150.282566 92.931911 
L 150.139164 93.13905 
L 149.99579 93.070659 
L 149.708988 93.330628 
L 149.422185 92.96827 
L 149.278783 92.865035 
L 148.991981 93.22379 
L 148.848579 93.173633 
L 148.561804 93.325973 
L 147.988198 93.324904 
L 146.984416 93.358272 
L 146.697613 93.467493 
L 146.410837 93.208988 
L 145.837232 93.402242 
L 145.69383 93.095264 
L 145.407028 93.206402 
L 145.120252 93.292098 
L 144.546646 93.233369 
L 143.973068 93.354781 
L 143.686265 93.32344 
L 143.399463 93.140909 
L 143.256061 93.022434 
L 143.11266 93.210218 
L 142.969258 93.050139 
L 142.539081 93.275576 
L 142.252279 93.2294 
L 141.822074 93.21198 
L 141.678673 93.032352 
L 141.105095 93.261793 
L 140.818292 93.028562 
L 140.674891 92.947786 
L 140.244714 93.163389 
L 140.101312 92.815658 
L 139.957911 92.780767 
L 139.527707 93.180447 
L 139.09753 93.031524 
L 138.810727 93.484067 
L 138.667326 93.422509 
L 138.523924 93.219162 
L 138.380523 93.329977 
L 138.237121 93.274654 
L 137.663543 93.586725 
L 137.520142 93.581269 
L 137.233339 93.376811 
L 136.803162 93.368032 
L 136.516359 93.216231 
L 135.799352 93.280486 
L 135.512577 93.234583 
L 135.082373 93.224623 
L 134.652168 92.959149 
L 134.365393 93.271246 
L 134.221991 92.99344 
L 133.935189 93.26504 
L 133.504984 93.175136 
L 132.931406 93.133298 
L 132.788005 93.263576 
L 132.214399 92.967482 
L 131.927624 93.078761 
L 131.784222 92.913936 
L 131.640821 93.103908 
L 131.497419 93.095456 
L 131.210617 93.273356 
L 130.923814 93.068896 
L 130.637038 92.931951 
L 130.350236 93.202387 
L 129.77663 93.072321 
L 129.633256 93.287828 
L 129.346453 93.103125 
L 129.05965 92.975253 
L 128.486072 92.973016 
L 128.342671 92.944055 
L 128.055868 93.364239 
L 127.625664 93.125736 
L 127.195487 93.20897 
L 127.052085 93.215013 
L 126.765282 92.995422 
L 126.621881 93.107607 
L 126.191677 92.88768 
L 126.048303 92.871995 
L 125.904901 92.741082 
L 125.618099 93.044859 
L 125.187894 92.902748 
L 124.614316 93.215858 
L 124.184112 93.045869 
L 123.467132 93.118539 
L 122.893527 93.179232 
L 122.750125 93.269785 
L 122.176547 92.796104 
L 121.889744 92.878406 
L 121.746343 92.940464 
L 121.602941 92.816537 
L 121.45954 92.880418 
L 121.172764 93.210212 
L 120.885962 93.274378 
L 120.455757 93.002487 
L 120.168955 93.058087 
L 119.882179 93.141383 
L 119.451975 93.206066 
L 119.308574 92.902058 
L 119.165172 92.88054 
L 118.878397 93.113099 
L 118.734995 92.979379 
L 118.448192 93.067138 
L 117.587811 93.010323 
L 117.014206 93.295368 
L 116.584002 93.205188 
L 116.440628 93.262323 
L 116.297226 93.140063 
L 116.153825 92.801661 
L 115.867022 92.841728 
L 115.723621 92.884633 
L 115.293444 92.721305 
L 115.006641 93.122853 
L 114.719838 92.985593 
L 114.576437 92.964451 
L 114.433035 92.790222 
L 114.14626 92.827566 
L 114.002858 92.794637 
L 113.859457 92.879832 
L 113.572654 92.747398 
L 113.14245 92.975627 
L 112.855674 92.805051 
L 112.712273 92.753062 
L 112.42547 92.999394 
L 112.282069 92.970282 
L 112.138667 92.67676 
L 111.851865 92.793307 
L 111.565089 93.12865 
L 111.278286 92.632542 
L 110.991484 92.956447 
L 110.704681 92.897011 
L 110.417905 93.183564 
L 110.274504 93.145751 
L 110.131102 93.308883 
L 109.414095 93.136183 
L 108.983919 92.963152 
L 108.697116 93.054576 
L 108.553714 93.292941 
L 108.266912 93.249129 
L 107.980136 93.016778 
L 107.693333 93.094822 
L 107.263129 92.996126 
L 107.119728 93.108605 
L 106.259347 92.78011 
L 105.972544 92.966654 
L 105.685768 92.588861 
L 105.398965 92.996967 
L 105.255564 93.217888 
L 105.112163 93.233489 
L 104.395183 92.440218 
L 104.251782 92.535977 
L 104.10838 92.819432 
L 103.821577 92.636752 
L 103.678176 92.788345 
L 103.534775 92.763227 
L 103.247999 93.022066 
L 103.104598 92.752131 
L 102.961196 92.750411 
L 102.817795 92.954447 
L 101.814012 92.773066 
L 101.670611 92.607281 
L 100.81023 92.744539 
L 100.523427 92.567523 
L 100.093223 92.731332 
L 99.806447 92.450883 
L 98.659236 92.800006 
L 98.372461 92.550921 
L 98.229059 92.656948 
L 97.942257 92.612517 
L 97.225277 92.680412 
L 96.795073 92.882993 
L 96.221494 92.682609 
L 95.361086 92.960904 
L 95.074283 92.725085 
L 94.78748 92.80264 
L 94.357303 92.414738 
L 94.070501 92.388525 
L 93.783698 92.452339 
L 93.496895 92.504008 
L 93.066718 92.73104 
L 92.20631 92.406792 
L 91.919562 92.670465 
L 91.632759 92.21268 
L 91.345956 92.497514 
L 91.202527 92.366338 
L 91.059153 92.03788 
L 90.915724 92.006517 
L 90.628976 92.381667 
L 90.342174 92.192988 
L 90.055371 92.298078 
L 89.768568 92.158711 
L 89.481765 92.320034 
L 89.194962 92.314999 
L 88.908159 92.398524 
L 88.621357 92.797908 
L 88.334609 91.920334 
L 88.19118 91.888138 
L 88.047806 92.05108 
L 87.617574 91.859599 
L 87.330771 92.516576 
L 87.187397 92.503081 
L 86.470418 91.75324 
L 85.753438 92.0041 
L 85.466635 91.781036 
L 85.036404 91.722734 
L 84.89303 91.858511 
L 84.17605 91.290233 
L 83.889247 91.571623 
L 83.602444 91.030942 
L 83.172267 91.174461 
L 82.885465 90.749654 
L 82.455288 90.942462 
L 82.311859 90.59599 
L 82.025056 90.72941 
L 81.451451 90.120498 
L 81.308076 90.259242 
L 81.164702 90.237295 
L 81.021274 90.013134 
L 80.734471 88.464403 
L 80.591097 88.635846 
L 80.447668 89.069169 
L 80.304294 89.018244 
L 79.730688 87.267243 
L 79.443886 87.230846 
L 78.583532 83.272253 
L 78.296729 78.758181 
L 77.579749 65.55729 
L 76.432538 34.64977 
L 76.145735 27.122822 
L 75.858933 25.734489 
L 75.715558 26.04519 
L 75.428756 32.186695 
L 74.85515 48.055886 
L 74.568347 55.259952 
L 74.281544 58.639961 
L 73.994796 68.51124 
L 73.851368 69.487435 
L 73.707993 69.276014 
L 73.564565 69.627473 
L 72.990959 73.297059 
L 72.704211 76.852923 
L 72.560782 77.74612 
L 72.130605 81.744401 
L 71.413626 86.379127 
L 70.84002 87.664097 
L 70.696591 87.665483 
L 70.409843 88.636077 
L 70.266414 88.370403 
L 70.12304 88.393643 
L 69.692809 89.558607 
L 69.406006 88.81291 
L 69.262632 88.735424 
L 68.975829 89.108952 
L 68.832455 88.833225 
L 68.689026 88.886028 
L 68.402224 89.117169 
L 68.258849 89.264906 
L 68.115475 89.14664 
L 67.828673 89.219296 
L 67.54187 88.195158 
L 67.398441 88.220242 
L 66.82489 86.31924 
L 66.538087 85.200229 
L 66.251285 84.782467 
L 65.964482 84.248584 
L 65.677679 82.745628 
L 65.534305 82.972672 
L 65.390876 82.933608 
L 65.247502 83.088162 
L 65.104073 83.439997 
L 64.960699 82.72101 
L 64.817271 83.064002 
L 64.100291 86.99779 
L 63.813488 88.404534 
L 63.526685 89.879767 
L 63.096508 90.848951 
L 62.953134 91.165981 
L 62.809706 91.187436 
L 62.522903 91.726414 
L 62.2361 91.45096 
L 62.092726 91.152918 
L 61.805923 91.572628 
L 61.51912 90.93894 
L 61.088943 91.800927 
L 60.371964 92.27859 
L 60.085161 92.126335 
L 59.654984 92.147191 
L 59.368181 92.630544 
L 58.794576 92.413347 
L 58.507773 92.109736 
L 58.364399 92.198809 
L 57.934167 91.832857 
L 57.790793 91.837366 
L 57.647364 91.695387 
L 57.50399 91.781673 
L 57.217187 92.112997 
L 56.930385 92.225984 
L 56.787011 92.023785 
L 56.500208 91.984849 
L 56.356779 91.929492 
L 56.213405 92.190669 
L 55.926602 92.134223 
L 55.783228 92.045355 
L 55.496425 92.194688 
L 55.352997 92.333497 
L 55.066194 92.292961 
L 54.92282 92.348311 
L 54.779446 92.248973 
L 54.349214 92.531192 
L 53.775663 92.292926 
L 53.345432 92.440535 
L 52.771826 92.616896 
L 52.628452 92.483719 
L 52.485078 92.158688 
L 52.054846 92.42707 
L 51.624669 92.692487 
L 51.337867 92.402658 
L 51.051064 92.978414 
L 50.620887 92.599824 
L 50.477458 92.555369 
L 50.19071 92.766514 
L 49.903907 92.778731 
L 49.617104 92.892014 
L 49.043499 92.477753 
L 48.613322 92.710471 
L 48.469893 92.81107 
L 48.039716 92.717797 
L 47.322737 92.966385 
L 47.035934 92.703159 
L 46.892505 92.66216 
L 46.605757 92.341235 
L 46.462328 92.366289 
L 46.175525 92.852405 
L 46.032151 92.6031 
L 45.171743 92.625584 
L 45.028369 92.69474 
L 44.311335 92.443915 
L 43.881158 92.633099 
L 43.594355 92.624578 
L 43.307552 92.896358 
L 43.020804 92.480451 
L 42.877375 92.554738 
L 42.590572 92.324239 
L 42.447198 92.458881 
L 42.160395 92.828266 
L 41.873593 92.842302 
L 41.58679 92.755977 
L 41.443416 92.605154 
L 41.013184 92.784 
L 40.726381 92.493322 
L 40.583007 92.497058 
L 40.296205 92.728493 
L 39.866028 92.502101 
L 39.722599 92.374811 
L 39.435851 92.693711 
L 39.149048 92.175171 
L 38.718817 92.622889 
L 38.575442 92.639433 
L 38.432014 92.883381 
L 38.145266 92.87468 
L 38.001837 93.029977 
L 37.715034 92.775168 
L 37.57166 92.845568 
L 37.428231 92.69768 
L 37.141428 92.720557 
L 36.998054 92.623024 
L 36.85468 92.679789 
L 36.711252 92.938541 
L 36.424449 92.805476 
L 36.281075 92.699759 
L 35.707469 92.741407 
L 35.564095 92.599724 
L 35.277292 92.919072 
L 34.847061 92.492575 
L 34.703687 92.548177 
L 34.560313 93.039407 
L 34.416884 93.102213 
L 33.986707 92.821129 
L 33.843278 92.760092 
L 33.699904 92.555415 
L 33.413101 93.049618 
L 33.126298 92.646112 
L 32.839496 92.694958 
L 32.552693 92.334142 
L 32.265945 92.725222 
L 32.122516 92.582164 
L 31.835713 92.636528 
L 31.54891 92.731097 
L 31.405536 92.965665 
L 30.975359 92.783254 
L 30.831931 92.926554 
L 30.688557 92.748463 
L 30.401754 92.892662 
L 30.114951 92.673018 
L 29.828148 92.91847 
L 29.684774 93.030156 
L 29.111169 92.662468 
L 28.680992 92.448844 
L 28.537563 92.309098 
L 28.107386 92.769165 
L 27.963957 92.826298 
L 27.820583 92.700802 
L 27.677154 92.356329 
L 27.246978 92.74094 
L 26.960175 92.406218 
L 26.673372 92.710296 
L 25.813018 92.909025 
L 25.382787 92.684494 
L 25.239413 92.751143 
L 24.95261 92.520208 
L 24.665807 92.541208 
L 24.23563 92.963112 
L 23.662025 93.377175 
L 23.231848 93.03942 
L 23.088419 93.208165 
L 22.801616 92.791115 
L 22.658242 92.776608 
L 22.514868 92.491776 
L 22.371439 92.737499 
L 22.084636 92.5622 
L 21.941262 92.571135 
L 21.65446 92.941233 
L 21.511086 92.736906 
L 21.367657 92.732865 
L 21.080854 92.379633 
L 20.794051 92.5554 
L 20.363874 92.558661 
L 20.2205 92.306615 
L 19.790269 92.776622 
L 19.360092 92.683548 
L 19.216663 92.861281 
L 18.212881 92.311549 
L 17.926132 92.828001 
L 17.782704 92.903279 
L 17.495901 92.734972 
L 17.209098 92.688435 
L 17.065724 92.631411 
L 16.922295 92.81043 
L 16.492118 92.622642 
L 16.061942 92.6407 
L 15.775139 92.950533 
L 15.63171 92.984846 
L 15.488336 93.161959 
L 15.058159 92.865855 
L 14.91473 92.865649 
L 14.771356 92.749082 
L 14.341179 92.886304 
L 14.054377 92.680059 
L 13.910948 92.798522 
L 13.767574 92.592155 
L 13.624145 92.870746 
L 13.480771 92.829175 
L 13.193968 92.417927 
L 13.050594 92.679105 
L 12.763791 92.464809 
L 12.476988 92.763627 
L 12.046757 92.374755 
L 11.760009 92.575474 
L 11.61658 92.567203 
L 11.473206 92.437391 
L 11.186403 92.664279 
L 10.8996 92.72313 
L 10.756226 92.717328 
L 10.612798 92.977546 
L 10.182621 92.689567 
L 9.752389 92.211004 
L 9.609015 91.923967 
L 9.178838 92.841383 
L 8.892035 92.550733 
L 8.748607 92.221106 
L 8.175056 92.607055 
L 7.888253 92.502574 
L 7.744824 92.573571 
L 7.60145 92.842273 
L 7.171273 92.68154 
L 6.88447 92.357279 
L 6.741042 92.657016 
L 6.597668 92.489708 
L 6.454239 92.098671 
L 6.167436 92.00135 
L 6.024062 92.074707 
L 5.880688 92.353421 
L 5.593885 92.273207 
L 5.163654 92.290287 
L 4.876851 92.688183 
L 4.733477 92.206533 
L 4.590103 92.191013 
L 4.3033 92.576944 
L 4.159871 92.667595 
L 4.016497 92.45354 
L 3.873068 92.553144 
L 3.729694 92.891643 
L 3.299517 92.595242 
L 3.156089 92.676051 
L 3.012715 92.514834 
L 2.869286 92.724279 
L 2.725912 92.655687 
L 2.582483 92.450855 
L 2.439109 92.64452 
L 2.295735 92.190015 
L 1.578701 92.526993 
L 1.291898 92.49202 
L 1.00515 92.109704 
L 0.718347 92.514438 
L 0.431544 92.008381 
L 0.288115 92.096839 
L 0.001367 92.497852 
L -0.572238 92.37505 
L -0.859041 92.172081 
L -1 92.475527 
L -1 92.475527 
" clip-path="url(#p47c6f25231)" style="fill: none; stroke: #000000; stroke-width: 1.2; stroke-linecap: square"/>
   </g>
   <g id="line2d_14">
    <path d="M 347.19625 94.061761 
L 294.397696 93.951084 
L 292.246702 93.763147 
L 291.673124 93.456645 
L 290.669341 92.865906 
L 289.952334 89.603777 
L 289.522157 87.335723 
L 288.948552 87.325231 
L 288.80515 87.440736 
L 288.518375 89.404221 
L 287.514565 93.146303 
L 286.797585 93.561871 
L 286.367381 93.372587 
L 285.937204 93.772078 
L 283.069231 93.974217 
L 275.899325 94.028122 
L 242.487563 93.984568 
L 230.155316 93.804414 
L 225.853383 93.536505 
L 223.415614 93.154103 
L 222.411831 92.825963 
L 221.55145 92.420333 
L 220.404267 91.59257 
L 219.113681 89.128042 
L 218.97028 88.851111 
L 218.540076 85.570471 
L 217.536293 77.17318 
L 217.24949 68.323639 
L 216.532511 42.4469 
L 216.389109 40.223699 
L 215.815504 40.185543 
L 215.385327 40.343009 
L 215.098524 40.323117 
L 214.955123 43.072508 
L 214.381544 66.605954 
L 213.090959 87.096996 
L 211.513571 90.684214 
L 210.079584 92.401826 
L 208.215421 93.104832 
L 206.207828 93.461158 
L 204.056862 93.65069 
L 202.479501 93.634105 
L 201.619093 93.505855 
L 201.475691 93.317719 
L 201.045514 90.306785 
L 200.902113 90.336777 
L 200.471909 93.374188 
L 200.185133 93.662563 
L 199.754929 93.7573 
L 197.31716 93.858504 
L 196.886956 93.705999 
L 196.456779 93.500646 
L 196.313377 92.574337 
L 196.026575 88.064137 
L 195.883173 88.93396 
L 195.59637 93.217362 
L 195.309595 92.645573 
L 195.166194 92.278679 
L 194.735989 90.019419 
L 194.305785 93.567989 
L 193.588806 91.999798 
L 193.302003 93.154986 
L 193.158601 93.774778 
L 192.728424 93.858778 
L 191.437839 93.753523 
L 190.720832 93.070534 
L 190.577458 92.113177 
L 190.003852 84.438924 
L 189.286873 93.075385 
L 188.569866 93.79231 
L 185.845321 93.968908 
L 176.954625 94.013562 
L 172.509291 93.926163 
L 171.362107 93.80128 
L 169.641318 94.022837 
L 133.791787 94.028913 
L 98.085658 93.886109 
L 90.198745 93.665378 
L 86.326989 93.354072 
L 84.032621 92.963624 
L 82.311859 92.374694 
L 81.308076 91.825162 
L 80.160865 90.819595 
L 78.870335 88.504862 
L 77.579749 82.41179 
L 76.862715 69.848442 
L 76.145735 55.061062 
L 75.285382 25.84916 
L 74.568347 25.734489 
L 74.424973 25.751951 
L 74.13817 34.56256 
L 73.421191 58.778464 
L 72.273979 81.487001 
L 70.84002 88.412197 
L 69.692809 90.608393 
L 69.119258 89.998592 
L 68.975829 89.835629 
L 68.689026 88.439596 
L 68.545652 87.565541 
L 68.115475 91.71534 
L 66.82489 92.567909 
L 65.821053 92.853688 
L 65.534305 92.36597 
L 65.104073 91.408343 
L 64.960699 86.357233 
L 64.673896 71.655665 
L 64.387094 91.356743 
L 63.096508 93.341496 
L 59.511555 93.624945 
L 57.073813 93.649808 
L 56.643582 93.573848 
L 55.639799 90.571197 
L 55.496425 87.681141 
L 55.066194 57.935476 
L 54.636017 89.959189 
L 54.062411 93.567178 
L 52.198275 93.743177 
L 51.481241 93.700372 
L 50.620887 92.674898 
L 49.903907 73.290182 
L 49.330302 92.570127 
L 48.900125 93.637551 
L 46.892505 93.884635 
L 38.432014 94.061761 
L -1 94.061761 
L -1 94.061761 
" clip-path="url(#p47c6f25231)" style="fill: none; stroke-dasharray: 4.44,1.92; stroke-dashoffset: 0; stroke: #e8402a; stroke-width: 1.2"/>
   </g>
   <g id="patch_3">
    <path d="M 43.78125 97.478125 
L 43.78125 22.318125 
" style="fill: none; stroke: #000000; stroke-width: 0.8; stroke-linejoin: miter; stroke-linecap: square"/>
   </g>
   <g id="patch_4">
    <path d="M 326.27125 97.478125 
L 326.27125 22.318125 
" style="fill: none; stroke: #000000; stroke-width: 0.8; stroke-linejoin: miter; stroke-linecap: square"/>
   </g>
   <g id="patch_5">
    <path d="M 43.78125 97.478125 
L 326.27125 97.478125 
" style="fill: none; stroke: #000000; stroke-width: 0.8; stroke-linejoin: miter; stroke-linecap: square"/>
   </g>
   <g id="patch_6">
    <path d="M 43.78125 22.318125 
L 326.27125 22.318125 
" style="fill: none; stroke: #000000; stroke-width: 0.8; stroke-linejoin: miter; stroke-linecap: square"/>
   </g>
   <g id="text_15">
    <!-- 6173 -->
    <g transform="translate(169.75625 16.318125) scale(0.12 -0.12)">
     <defs>
      <path id="DejaVuSans-36" d="M 2113 2584 
Q 1688 2584 1439 2293 
Q 1191 2003 1191 1497 
Q 1191 994 1439 701 
Q 1688 409 2113 409 
Q 2538 409 2786 701 
Q 3034 994 3034 1497 
Q 3034 2003 2786 2293 
Q 2538 2584 2113 2584 
z
M 3366 4563 
L 3366 3988 
Q 3128 4100 2886 4159 
Q 2644 4219 2406 4219 
Q 1781 4219 1451 3797 
Q 1122 3375 1075 2522 
Q 1259 2794 1537 2939 
Q 1816 3084 2150 3084 
Q 2853 3084 3261 2657 
Q 3669 2231 3669 1497 
Q 3669 778 3244 343 
Q 2819 -91 2113 -91 
Q 1303 -91 875 529 
Q 447 1150 447 2328 
Q 447 3434 972 4092 
Q 1497 4750 2381 4750 
Q 2619 4750 2861 4703 
Q 3103 4656 3366 4563 
z
" transform="scale(0.015625)"/>
      <path id="DejaVuSans-33" d="M 2597 2516 
Q 3050 2419 3304 2112 
Q 3559 1806 3559 1356 
Q 3559 666 3084 287 
Q 2609 -91 1734 -91 
Q 1441 -91 1130 -33 
Q 819 25 488 141 
L 488 750 
Q 750 597 1062 519 
Q 1375 441 1716 441 
Q 2309 441 2620 675 
Q 2931 909 2931 1356 
Q 2931 1769 2642 2001 
Q 2353 2234 1838 2234 
L 1294 2234 
L 1294 2753 
L 1863 2753 
Q 2328 2753 2575 2939 
Q 2822 3125 2822 3475 
Q 2822 3834 2567 4026 
Q 2313 4219 1838 4219 
Q 1578 4219 1281 4162 
Q 984 4106 628 3988 
L 628 4550 
Q 988 4650 1302 4700 
Q 1616 4750 1894 4750 
Q 2613 4750 3031 4423 
Q 3450 4097 3450 3541 
Q 3450 3153 3228 2886 
Q 3006 2619 2597 2516 
z
" transform="scale(0.015625)"/>
     </defs>
     <use xlink:href="#DejaVuSans-36"/>
     <use xlink:href="#DejaVuSans-31" transform="translate(63.623047 0)"/>
     <use xlink:href="#DejaVuSans-37" transform="translate(127.246094 0)"/>
     <use xlink:href="#DejaVuSans-33" transform="translate(190.869141 0)"/>
    </g>
   </g>
  </g>
 </g>
 <defs>
  <clipPath id="p47c6f25231">
   <rect x="43.78125" y="22.318125" width="282.49" height="75.16"/>
  </clipPath>
 </defs>
</svg>
